%FSLAX45Y45*%
G04 Gerber Fmt 4.5, Leading zero omitted, Abs format (unit mm)*
G04 Created by KiCad (PCBNEW 5.1.12-84ad8e8a86~92~ubuntu18.04.1) date 2022-01-22 16:22:56*
%MOMM*%
%LPD*%
G01*
G04 APERTURE LIST*
%TA.AperFunction,Profile*%
%ADD10C,0.100000*%
%TD*%
%ADD11C,0.200000*%
%ADD12C,0.300000*%
G04 APERTURE END LIST*
D10*
X26225500Y-5334000D02*
X26225500Y-14668500D01*
X9652000Y-5334000D02*
X26225500Y-5334000D01*
X9652000Y-14668500D02*
X9652000Y-5334000D01*
X26225500Y-14668500D02*
X9652000Y-14668500D01*
D11*
D12*
X9933428Y-15139214D02*
X9933428Y-14839214D01*
X10004857Y-14839214D01*
X10047714Y-14853500D01*
X10076286Y-14882071D01*
X10090571Y-14910643D01*
X10104857Y-14967786D01*
X10104857Y-15010643D01*
X10090571Y-15067786D01*
X10076286Y-15096357D01*
X10047714Y-15124929D01*
X10004857Y-15139214D01*
X9933428Y-15139214D01*
X10233428Y-15139214D02*
X10233428Y-14939214D01*
X10233428Y-14996357D02*
X10247714Y-14967786D01*
X10262000Y-14953500D01*
X10290571Y-14939214D01*
X10319143Y-14939214D01*
X10419143Y-15139214D02*
X10419143Y-14939214D01*
X10419143Y-14839214D02*
X10404857Y-14853500D01*
X10419143Y-14867786D01*
X10433428Y-14853500D01*
X10419143Y-14839214D01*
X10419143Y-14867786D01*
X10604857Y-15139214D02*
X10576286Y-15124929D01*
X10562000Y-15096357D01*
X10562000Y-14839214D01*
X10762000Y-15139214D02*
X10733428Y-15124929D01*
X10719143Y-15096357D01*
X10719143Y-14839214D01*
X11104857Y-15139214D02*
X11104857Y-14839214D01*
X11204857Y-15053500D01*
X11304857Y-14839214D01*
X11304857Y-15139214D01*
X11576286Y-15139214D02*
X11576286Y-14982071D01*
X11562000Y-14953500D01*
X11533428Y-14939214D01*
X11476286Y-14939214D01*
X11447714Y-14953500D01*
X11576286Y-15124929D02*
X11547714Y-15139214D01*
X11476286Y-15139214D01*
X11447714Y-15124929D01*
X11433428Y-15096357D01*
X11433428Y-15067786D01*
X11447714Y-15039214D01*
X11476286Y-15024929D01*
X11547714Y-15024929D01*
X11576286Y-15010643D01*
X11719143Y-14939214D02*
X11719143Y-15239214D01*
X11719143Y-14953500D02*
X11747714Y-14939214D01*
X11804857Y-14939214D01*
X11833428Y-14953500D01*
X11847714Y-14967786D01*
X11862000Y-14996357D01*
X11862000Y-15082071D01*
X11847714Y-15110643D01*
X11833428Y-15124929D01*
X11804857Y-15139214D01*
X11747714Y-15139214D01*
X11719143Y-15124929D01*
X11990571Y-15110643D02*
X12004857Y-15124929D01*
X11990571Y-15139214D01*
X11976286Y-15124929D01*
X11990571Y-15110643D01*
X11990571Y-15139214D01*
X11990571Y-14953500D02*
X12004857Y-14967786D01*
X11990571Y-14982071D01*
X11976286Y-14967786D01*
X11990571Y-14953500D01*
X11990571Y-14982071D01*
M02*
