%TF.GenerationSoftware,KiCad,Pcbnew,5.1.12-84ad8e8a86~92~ubuntu18.04.1*%
%TF.CreationDate,2022-01-22T16:21:03-05:00*%
%TF.ProjectId,kicad,6b696361-642e-46b6-9963-61645f706362,rev?*%
%TF.SameCoordinates,Original*%
%TF.FileFunction,Copper,L1,Top*%
%TF.FilePolarity,Positive*%
%FSLAX46Y46*%
G04 Gerber Fmt 4.6, Leading zero omitted, Abs format (unit mm)*
G04 Created by KiCad (PCBNEW 5.1.12-84ad8e8a86~92~ubuntu18.04.1) date 2022-01-22 16:21:03*
%MOMM*%
%LPD*%
G01*
G04 APERTURE LIST*
%TA.AperFunction,ComponentPad*%
%ADD10O,1.600000X1.600000*%
%TD*%
%TA.AperFunction,ComponentPad*%
%ADD11R,1.600000X1.600000*%
%TD*%
%TA.AperFunction,ComponentPad*%
%ADD12C,1.600000*%
%TD*%
%TA.AperFunction,ComponentPad*%
%ADD13C,1.700000*%
%TD*%
%TA.AperFunction,ComponentPad*%
%ADD14O,1.700000X1.700000*%
%TD*%
%TA.AperFunction,ComponentPad*%
%ADD15R,1.700000X1.700000*%
%TD*%
%TA.AperFunction,ComponentPad*%
%ADD16C,2.400000*%
%TD*%
%TA.AperFunction,ComponentPad*%
%ADD17R,2.400000X2.400000*%
%TD*%
%TA.AperFunction,ViaPad*%
%ADD18C,0.800000*%
%TD*%
%TA.AperFunction,Conductor*%
%ADD19C,0.250000*%
%TD*%
G04 APERTURE END LIST*
D10*
%TO.P,U18,24*%
%TO.N,+5V*%
X223520000Y-99060000D03*
%TO.P,U18,12*%
%TO.N,GND*%
X251460000Y-114300000D03*
%TO.P,U18,23*%
%TO.N,Net-(U10-Pad10)*%
X226060000Y-99060000D03*
%TO.P,U18,11*%
%TO.N,Net-(U18-Pad11)*%
X248920000Y-114300000D03*
%TO.P,U18,22*%
%TO.N,Net-(U10-Pad9)*%
X228600000Y-99060000D03*
%TO.P,U18,10*%
%TO.N,Net-(U18-Pad10)*%
X246380000Y-114300000D03*
%TO.P,U18,21*%
%TO.N,Net-(U10-Pad8)*%
X231140000Y-99060000D03*
%TO.P,U18,9*%
%TO.N,Net-(U18-Pad9)*%
X243840000Y-114300000D03*
%TO.P,U18,20*%
%TO.N,Net-(U10-Pad7)*%
X233680000Y-99060000D03*
%TO.P,U18,8*%
%TO.N,Net-(U17-Pad4)*%
X241300000Y-114300000D03*
%TO.P,U18,19*%
%TO.N,Net-(U17-Pad11)*%
X236220000Y-99060000D03*
%TO.P,U18,7*%
%TO.N,Net-(U14-Pad2)*%
X238760000Y-114300000D03*
%TO.P,U18,18*%
%TO.N,GND*%
X238760000Y-99060000D03*
%TO.P,U18,6*%
%TO.N,Net-(U14-Pad5)*%
X236220000Y-114300000D03*
%TO.P,U18,17*%
%TO.N,Net-(U18-Pad17)*%
X241300000Y-99060000D03*
%TO.P,U18,5*%
%TO.N,Net-(U14-Pad10)*%
X233680000Y-114300000D03*
%TO.P,U18,16*%
%TO.N,Net-(U18-Pad16)*%
X243840000Y-99060000D03*
%TO.P,U18,4*%
%TO.N,Net-(U14-Pad13)*%
X231140000Y-114300000D03*
%TO.P,U18,15*%
%TO.N,Net-(U18-Pad15)*%
X246380000Y-99060000D03*
%TO.P,U18,3*%
%TO.N,Net-(U18-Pad3)*%
X228600000Y-114300000D03*
%TO.P,U18,14*%
%TO.N,Net-(U18-Pad14)*%
X248920000Y-99060000D03*
%TO.P,U18,2*%
%TO.N,Net-(U18-Pad2)*%
X226060000Y-114300000D03*
%TO.P,U18,13*%
%TO.N,Net-(U18-Pad13)*%
X251460000Y-99060000D03*
D11*
%TO.P,U18,1*%
%TO.N,Net-(U18-Pad1)*%
X223520000Y-114300000D03*
%TD*%
D10*
%TO.P,U17,14*%
%TO.N,+5V*%
X217805000Y-95250000D03*
%TO.P,U17,7*%
%TO.N,GND*%
X202565000Y-87630000D03*
%TO.P,U17,13*%
%TO.N,Net-(U16-Pad19)*%
X215265000Y-95250000D03*
%TO.P,U17,6*%
%TO.N,Net-(U15-Pad11)*%
X205105000Y-87630000D03*
%TO.P,U17,12*%
%TO.N,Net-(U11-Pad19)*%
X212725000Y-95250000D03*
%TO.P,U17,5*%
%TO.N,Net-(U14-Pad1)*%
X207645000Y-87630000D03*
%TO.P,U17,11*%
%TO.N,Net-(U17-Pad11)*%
X210185000Y-95250000D03*
%TO.P,U17,4*%
%TO.N,Net-(U17-Pad4)*%
X210185000Y-87630000D03*
%TO.P,U17,10*%
%TO.N,Net-(U17-Pad10)*%
X207645000Y-95250000D03*
%TO.P,U17,3*%
%TO.N,Net-(U10-Pad20)*%
X212725000Y-87630000D03*
%TO.P,U17,9*%
%TO.N,Net-(U17-Pad9)*%
X205105000Y-95250000D03*
%TO.P,U17,2*%
%TO.N,Net-(U17-Pad2)*%
X215265000Y-87630000D03*
%TO.P,U17,8*%
%TO.N,Net-(U17-Pad8)*%
X202565000Y-95250000D03*
D11*
%TO.P,U17,1*%
%TO.N,Net-(U11-Pad17)*%
X217805000Y-87630000D03*
%TD*%
D10*
%TO.P,U16,20*%
%TO.N,+5V*%
X167005000Y-95250000D03*
%TO.P,U16,10*%
%TO.N,GND*%
X144145000Y-87630000D03*
%TO.P,U16,19*%
%TO.N,Net-(U16-Pad19)*%
X164465000Y-95250000D03*
%TO.P,U16,9*%
%TO.N,GND*%
X146685000Y-87630000D03*
%TO.P,U16,18*%
%TO.N,+5V*%
X161925000Y-95250000D03*
%TO.P,U16,8*%
%TO.N,GND*%
X149225000Y-87630000D03*
%TO.P,U16,17*%
%TO.N,Net-(U10-Pad3)*%
X159385000Y-95250000D03*
%TO.P,U16,7*%
%TO.N,GND*%
X151765000Y-87630000D03*
%TO.P,U16,16*%
%TO.N,+5V*%
X156845000Y-95250000D03*
%TO.P,U16,6*%
%TO.N,GND*%
X154305000Y-87630000D03*
%TO.P,U16,15*%
%TO.N,Net-(U10-Pad4)*%
X154305000Y-95250000D03*
%TO.P,U16,5*%
%TO.N,GND*%
X156845000Y-87630000D03*
%TO.P,U16,14*%
%TO.N,+5V*%
X151765000Y-95250000D03*
%TO.P,U16,4*%
%TO.N,GND*%
X159385000Y-87630000D03*
%TO.P,U16,13*%
%TO.N,Net-(U10-Pad5)*%
X149225000Y-95250000D03*
%TO.P,U16,3*%
%TO.N,GND*%
X161925000Y-87630000D03*
%TO.P,U16,12*%
%TO.N,+5V*%
X146685000Y-95250000D03*
%TO.P,U16,2*%
%TO.N,GND*%
X164465000Y-87630000D03*
%TO.P,U16,11*%
%TO.N,Net-(U10-Pad6)*%
X144145000Y-95250000D03*
D11*
%TO.P,U16,1*%
%TO.N,Net-(U16-Pad1)*%
X167005000Y-87630000D03*
%TD*%
D10*
%TO.P,U15,20*%
%TO.N,+5V*%
X240665000Y-128270000D03*
%TO.P,U15,10*%
%TO.N,GND*%
X217805000Y-120650000D03*
%TO.P,U15,19*%
%TO.N,Net-(U15-Pad19)*%
X238125000Y-128270000D03*
%TO.P,U15,9*%
%TO.N,Net-(U15-Pad9)*%
X220345000Y-120650000D03*
%TO.P,U15,18*%
%TO.N,Net-(U1-Pad18)*%
X235585000Y-128270000D03*
%TO.P,U15,8*%
%TO.N,Net-(U1-Pad8)*%
X222885000Y-120650000D03*
%TO.P,U15,17*%
%TO.N,Net-(U1-Pad17)*%
X233045000Y-128270000D03*
%TO.P,U15,7*%
%TO.N,Net-(U1-Pad7)*%
X225425000Y-120650000D03*
%TO.P,U15,16*%
%TO.N,Net-(U15-Pad16)*%
X230505000Y-128270000D03*
%TO.P,U15,6*%
%TO.N,Net-(U15-Pad6)*%
X227965000Y-120650000D03*
%TO.P,U15,15*%
%TO.N,Net-(U15-Pad15)*%
X227965000Y-128270000D03*
%TO.P,U15,5*%
%TO.N,Net-(J5-Pad2)*%
X230505000Y-120650000D03*
%TO.P,U15,14*%
%TO.N,Net-(U1-Pad14)*%
X225425000Y-128270000D03*
%TO.P,U15,4*%
%TO.N,Net-(U1-Pad4)*%
X233045000Y-120650000D03*
%TO.P,U15,13*%
%TO.N,Net-(U1-Pad13)*%
X222885000Y-128270000D03*
%TO.P,U15,3*%
%TO.N,Net-(U1-Pad3)*%
X235585000Y-120650000D03*
%TO.P,U15,12*%
%TO.N,Net-(U15-Pad12)*%
X220345000Y-128270000D03*
%TO.P,U15,2*%
%TO.N,Net-(J5-Pad1)*%
X238125000Y-120650000D03*
%TO.P,U15,11*%
%TO.N,Net-(U15-Pad11)*%
X217805000Y-128270000D03*
D11*
%TO.P,U15,1*%
%TO.N,GND*%
X240665000Y-120650000D03*
%TD*%
D10*
%TO.P,U14,14*%
%TO.N,+5V*%
X239395000Y-95250000D03*
%TO.P,U14,7*%
%TO.N,GND*%
X224155000Y-87630000D03*
%TO.P,U14,13*%
%TO.N,Net-(U14-Pad13)*%
X236855000Y-95250000D03*
%TO.P,U14,6*%
%TO.N,Net-(U14-Pad6)*%
X226695000Y-87630000D03*
%TO.P,U14,12*%
%TO.N,Net-(U14-Pad1)*%
X234315000Y-95250000D03*
%TO.P,U14,5*%
%TO.N,Net-(U14-Pad5)*%
X229235000Y-87630000D03*
%TO.P,U14,11*%
%TO.N,Net-(U1-Pad11)*%
X231775000Y-95250000D03*
%TO.P,U14,4*%
%TO.N,Net-(U14-Pad1)*%
X231775000Y-87630000D03*
%TO.P,U14,10*%
%TO.N,Net-(U14-Pad10)*%
X229235000Y-95250000D03*
%TO.P,U14,3*%
%TO.N,Net-(U12-Pad11)*%
X234315000Y-87630000D03*
%TO.P,U14,9*%
%TO.N,Net-(U14-Pad1)*%
X226695000Y-95250000D03*
%TO.P,U14,2*%
%TO.N,Net-(U14-Pad2)*%
X236855000Y-87630000D03*
%TO.P,U14,8*%
%TO.N,Net-(U14-Pad8)*%
X224155000Y-95250000D03*
D11*
%TO.P,U14,1*%
%TO.N,Net-(U14-Pad1)*%
X239395000Y-87630000D03*
%TD*%
D10*
%TO.P,U13,28*%
%TO.N,+5V*%
X251460000Y-80010000D03*
%TO.P,U13,14*%
%TO.N,GND*%
X218440000Y-64770000D03*
%TO.P,U13,27*%
%TO.N,+5V*%
X248920000Y-80010000D03*
%TO.P,U13,13*%
%TO.N,Net-(U1-Pad7)*%
X220980000Y-64770000D03*
%TO.P,U13,26*%
%TO.N,Net-(U10-Pad26)*%
X246380000Y-80010000D03*
%TO.P,U13,12*%
%TO.N,Net-(U1-Pad4)*%
X223520000Y-64770000D03*
%TO.P,U13,25*%
%TO.N,Net-(U10-Pad25)*%
X243840000Y-80010000D03*
%TO.P,U13,11*%
%TO.N,Net-(U1-Pad3)*%
X226060000Y-64770000D03*
%TO.P,U13,24*%
%TO.N,Net-(U10-Pad24)*%
X241300000Y-80010000D03*
%TO.P,U13,10*%
%TO.N,Net-(U10-Pad10)*%
X228600000Y-64770000D03*
%TO.P,U13,23*%
%TO.N,Net-(U10-Pad23)*%
X238760000Y-80010000D03*
%TO.P,U13,9*%
%TO.N,Net-(U10-Pad9)*%
X231140000Y-64770000D03*
%TO.P,U13,22*%
%TO.N,GND*%
X236220000Y-80010000D03*
%TO.P,U13,8*%
%TO.N,Net-(U10-Pad8)*%
X233680000Y-64770000D03*
%TO.P,U13,21*%
%TO.N,Net-(U10-Pad21)*%
X233680000Y-80010000D03*
%TO.P,U13,7*%
%TO.N,Net-(U10-Pad7)*%
X236220000Y-64770000D03*
%TO.P,U13,20*%
%TO.N,Net-(U13-Pad20)*%
X231140000Y-80010000D03*
%TO.P,U13,6*%
%TO.N,Net-(U10-Pad6)*%
X238760000Y-64770000D03*
%TO.P,U13,19*%
%TO.N,Net-(U1-Pad18)*%
X228600000Y-80010000D03*
%TO.P,U13,5*%
%TO.N,Net-(U10-Pad5)*%
X241300000Y-64770000D03*
%TO.P,U13,18*%
%TO.N,Net-(U1-Pad17)*%
X226060000Y-80010000D03*
%TO.P,U13,4*%
%TO.N,Net-(U10-Pad4)*%
X243840000Y-64770000D03*
%TO.P,U13,17*%
%TO.N,Net-(U1-Pad14)*%
X223520000Y-80010000D03*
%TO.P,U13,3*%
%TO.N,Net-(U10-Pad3)*%
X246380000Y-64770000D03*
%TO.P,U13,16*%
%TO.N,Net-(U1-Pad13)*%
X220980000Y-80010000D03*
%TO.P,U13,2*%
%TO.N,Net-(U10-Pad2)*%
X248920000Y-64770000D03*
%TO.P,U13,15*%
%TO.N,Net-(U1-Pad8)*%
X218440000Y-80010000D03*
D11*
%TO.P,U13,1*%
%TO.N,Net-(U10-Pad1)*%
X251460000Y-64770000D03*
%TD*%
D10*
%TO.P,U12,20*%
%TO.N,+5V*%
X211455000Y-124460000D03*
%TO.P,U12,10*%
%TO.N,GND*%
X188595000Y-116840000D03*
%TO.P,U12,19*%
%TO.N,Net-(U12-Pad19)*%
X208915000Y-124460000D03*
%TO.P,U12,9*%
%TO.N,Net-(J4-Pad4)*%
X191135000Y-116840000D03*
%TO.P,U12,18*%
%TO.N,Net-(U1-Pad18)*%
X206375000Y-124460000D03*
%TO.P,U12,8*%
%TO.N,Net-(U1-Pad8)*%
X193675000Y-116840000D03*
%TO.P,U12,17*%
%TO.N,Net-(U1-Pad17)*%
X203835000Y-124460000D03*
%TO.P,U12,7*%
%TO.N,Net-(U1-Pad7)*%
X196215000Y-116840000D03*
%TO.P,U12,16*%
%TO.N,Net-(U12-Pad16)*%
X201295000Y-124460000D03*
%TO.P,U12,6*%
%TO.N,Net-(J4-Pad3)*%
X198755000Y-116840000D03*
%TO.P,U12,15*%
%TO.N,Net-(U12-Pad15)*%
X198755000Y-124460000D03*
%TO.P,U12,5*%
%TO.N,Net-(J4-Pad2)*%
X201295000Y-116840000D03*
%TO.P,U12,14*%
%TO.N,Net-(U1-Pad14)*%
X196215000Y-124460000D03*
%TO.P,U12,4*%
%TO.N,Net-(U1-Pad4)*%
X203835000Y-116840000D03*
%TO.P,U12,13*%
%TO.N,Net-(U1-Pad13)*%
X193675000Y-124460000D03*
%TO.P,U12,3*%
%TO.N,Net-(U1-Pad3)*%
X206375000Y-116840000D03*
%TO.P,U12,12*%
%TO.N,Net-(J4-Pad5)*%
X191135000Y-124460000D03*
%TO.P,U12,2*%
%TO.N,Net-(J4-Pad1)*%
X208915000Y-116840000D03*
%TO.P,U12,11*%
%TO.N,Net-(U12-Pad11)*%
X188595000Y-124460000D03*
D11*
%TO.P,U12,1*%
%TO.N,GND*%
X211455000Y-116840000D03*
%TD*%
D10*
%TO.P,U11,20*%
%TO.N,+5V*%
X196215000Y-95250000D03*
%TO.P,U11,10*%
%TO.N,GND*%
X173355000Y-87630000D03*
%TO.P,U11,19*%
%TO.N,Net-(U11-Pad19)*%
X193675000Y-95250000D03*
%TO.P,U11,9*%
%TO.N,+5V*%
X175895000Y-87630000D03*
%TO.P,U11,18*%
%TO.N,GND*%
X191135000Y-95250000D03*
%TO.P,U11,8*%
%TO.N,Net-(U10-Pad23)*%
X178435000Y-87630000D03*
%TO.P,U11,17*%
%TO.N,Net-(U11-Pad17)*%
X188595000Y-95250000D03*
%TO.P,U11,7*%
%TO.N,+5V*%
X180975000Y-87630000D03*
%TO.P,U11,16*%
X186055000Y-95250000D03*
%TO.P,U11,6*%
%TO.N,Net-(U10-Pad21)*%
X183515000Y-87630000D03*
%TO.P,U11,15*%
%TO.N,Net-(U10-Pad1)*%
X183515000Y-95250000D03*
%TO.P,U11,5*%
%TO.N,+5V*%
X186055000Y-87630000D03*
%TO.P,U11,14*%
X180975000Y-95250000D03*
%TO.P,U11,4*%
%TO.N,Net-(U10-Pad24)*%
X188595000Y-87630000D03*
%TO.P,U11,13*%
%TO.N,Net-(U10-Pad26)*%
X178435000Y-95250000D03*
%TO.P,U11,3*%
%TO.N,+5V*%
X191135000Y-87630000D03*
%TO.P,U11,12*%
X175895000Y-95250000D03*
%TO.P,U11,2*%
%TO.N,Net-(U10-Pad25)*%
X193675000Y-87630000D03*
%TO.P,U11,11*%
%TO.N,Net-(U10-Pad2)*%
X173355000Y-95250000D03*
D11*
%TO.P,U11,1*%
%TO.N,Net-(U11-Pad1)*%
X196215000Y-87630000D03*
%TD*%
D10*
%TO.P,U10,28*%
%TO.N,+5V*%
X212090000Y-80010000D03*
%TO.P,U10,14*%
%TO.N,GND*%
X179070000Y-64770000D03*
%TO.P,U10,27*%
%TO.N,Net-(U10-Pad27)*%
X209550000Y-80010000D03*
%TO.P,U10,13*%
%TO.N,Net-(U1-Pad7)*%
X181610000Y-64770000D03*
%TO.P,U10,26*%
%TO.N,Net-(U10-Pad26)*%
X207010000Y-80010000D03*
%TO.P,U10,12*%
%TO.N,Net-(U1-Pad4)*%
X184150000Y-64770000D03*
%TO.P,U10,25*%
%TO.N,Net-(U10-Pad25)*%
X204470000Y-80010000D03*
%TO.P,U10,11*%
%TO.N,Net-(U1-Pad3)*%
X186690000Y-64770000D03*
%TO.P,U10,24*%
%TO.N,Net-(U10-Pad24)*%
X201930000Y-80010000D03*
%TO.P,U10,10*%
%TO.N,Net-(U10-Pad10)*%
X189230000Y-64770000D03*
%TO.P,U10,23*%
%TO.N,Net-(U10-Pad23)*%
X199390000Y-80010000D03*
%TO.P,U10,9*%
%TO.N,Net-(U10-Pad9)*%
X191770000Y-64770000D03*
%TO.P,U10,22*%
%TO.N,Net-(U10-Pad22)*%
X196850000Y-80010000D03*
%TO.P,U10,8*%
%TO.N,Net-(U10-Pad8)*%
X194310000Y-64770000D03*
%TO.P,U10,21*%
%TO.N,Net-(U10-Pad21)*%
X194310000Y-80010000D03*
%TO.P,U10,7*%
%TO.N,Net-(U10-Pad7)*%
X196850000Y-64770000D03*
%TO.P,U10,20*%
%TO.N,Net-(U10-Pad20)*%
X191770000Y-80010000D03*
%TO.P,U10,6*%
%TO.N,Net-(U10-Pad6)*%
X199390000Y-64770000D03*
%TO.P,U10,19*%
%TO.N,Net-(U1-Pad18)*%
X189230000Y-80010000D03*
%TO.P,U10,5*%
%TO.N,Net-(U10-Pad5)*%
X201930000Y-64770000D03*
%TO.P,U10,18*%
%TO.N,Net-(U1-Pad17)*%
X186690000Y-80010000D03*
%TO.P,U10,4*%
%TO.N,Net-(U10-Pad4)*%
X204470000Y-64770000D03*
%TO.P,U10,17*%
%TO.N,Net-(U1-Pad14)*%
X184150000Y-80010000D03*
%TO.P,U10,3*%
%TO.N,Net-(U10-Pad3)*%
X207010000Y-64770000D03*
%TO.P,U10,16*%
%TO.N,Net-(U1-Pad13)*%
X181610000Y-80010000D03*
%TO.P,U10,2*%
%TO.N,Net-(U10-Pad2)*%
X209550000Y-64770000D03*
%TO.P,U10,15*%
%TO.N,Net-(U1-Pad8)*%
X179070000Y-80010000D03*
D11*
%TO.P,U10,1*%
%TO.N,Net-(U10-Pad1)*%
X212090000Y-64770000D03*
%TD*%
D10*
%TO.P,U9,20*%
%TO.N,+5V*%
X181610000Y-109220000D03*
%TO.P,U9,10*%
%TO.N,GND*%
X158750000Y-101600000D03*
%TO.P,U9,19*%
%TO.N,Net-(U1-Pad18)*%
X179070000Y-109220000D03*
%TO.P,U9,9*%
%TO.N,Net-(U1-Pad8)*%
X161290000Y-101600000D03*
%TO.P,U9,18*%
%TO.N,Net-(J1-Pad1)*%
X176530000Y-109220000D03*
%TO.P,U9,8*%
%TO.N,Net-(J1-Pad5)*%
X163830000Y-101600000D03*
%TO.P,U9,17*%
%TO.N,Net-(J1-Pad2)*%
X173990000Y-109220000D03*
%TO.P,U9,7*%
%TO.N,Net-(J1-Pad6)*%
X166370000Y-101600000D03*
%TO.P,U9,16*%
%TO.N,Net-(U1-Pad17)*%
X171450000Y-109220000D03*
%TO.P,U9,6*%
%TO.N,Net-(U1-Pad7)*%
X168910000Y-101600000D03*
%TO.P,U9,15*%
%TO.N,Net-(U1-Pad14)*%
X168910000Y-109220000D03*
%TO.P,U9,5*%
%TO.N,Net-(U1-Pad4)*%
X171450000Y-101600000D03*
%TO.P,U9,14*%
%TO.N,Net-(J1-Pad3)*%
X166370000Y-109220000D03*
%TO.P,U9,4*%
%TO.N,Net-(J1-Pad7)*%
X173990000Y-101600000D03*
%TO.P,U9,13*%
%TO.N,Net-(J1-Pad4)*%
X163830000Y-109220000D03*
%TO.P,U9,3*%
%TO.N,Net-(J1-Pad8)*%
X176530000Y-101600000D03*
%TO.P,U9,12*%
%TO.N,Net-(U1-Pad13)*%
X161290000Y-109220000D03*
%TO.P,U9,2*%
%TO.N,Net-(U1-Pad3)*%
X179070000Y-101600000D03*
%TO.P,U9,11*%
%TO.N,Net-(J1-Pad9)*%
X158750000Y-109220000D03*
D11*
%TO.P,U9,1*%
%TO.N,Net-(U18-Pad3)*%
X181610000Y-101600000D03*
%TD*%
D10*
%TO.P,U8,20*%
%TO.N,+5V*%
X182245000Y-124460000D03*
%TO.P,U8,10*%
%TO.N,GND*%
X159385000Y-116840000D03*
%TO.P,U8,19*%
%TO.N,Net-(U8-Pad19)*%
X179705000Y-124460000D03*
%TO.P,U8,9*%
%TO.N,Net-(U8-Pad9)*%
X161925000Y-116840000D03*
%TO.P,U8,18*%
%TO.N,Net-(U1-Pad18)*%
X177165000Y-124460000D03*
%TO.P,U8,8*%
%TO.N,Net-(U1-Pad8)*%
X164465000Y-116840000D03*
%TO.P,U8,17*%
%TO.N,Net-(U1-Pad17)*%
X174625000Y-124460000D03*
%TO.P,U8,7*%
%TO.N,Net-(U1-Pad7)*%
X167005000Y-116840000D03*
%TO.P,U8,16*%
%TO.N,Net-(U8-Pad16)*%
X172085000Y-124460000D03*
%TO.P,U8,6*%
%TO.N,Net-(U8-Pad6)*%
X169545000Y-116840000D03*
%TO.P,U8,15*%
%TO.N,Net-(U8-Pad15)*%
X169545000Y-124460000D03*
%TO.P,U8,5*%
%TO.N,Net-(J3-Pad18)*%
X172085000Y-116840000D03*
%TO.P,U8,14*%
%TO.N,Net-(U1-Pad14)*%
X167005000Y-124460000D03*
%TO.P,U8,4*%
%TO.N,Net-(U1-Pad4)*%
X174625000Y-116840000D03*
%TO.P,U8,13*%
%TO.N,Net-(U1-Pad13)*%
X164465000Y-124460000D03*
%TO.P,U8,3*%
%TO.N,Net-(U1-Pad3)*%
X177165000Y-116840000D03*
%TO.P,U8,12*%
%TO.N,Net-(U8-Pad12)*%
X161925000Y-124460000D03*
%TO.P,U8,2*%
%TO.N,Net-(J3-Pad17)*%
X179705000Y-116840000D03*
%TO.P,U8,11*%
%TO.N,Net-(U14-Pad6)*%
X159385000Y-124460000D03*
D11*
%TO.P,U8,1*%
%TO.N,GND*%
X182245000Y-116840000D03*
%TD*%
D10*
%TO.P,U7,14*%
%TO.N,+5V*%
X137160000Y-95250000D03*
%TO.P,U7,7*%
%TO.N,GND*%
X121920000Y-87630000D03*
%TO.P,U7,13*%
%TO.N,Net-(U7-Pad13)*%
X134620000Y-95250000D03*
%TO.P,U7,6*%
%TO.N,Net-(U7-Pad6)*%
X124460000Y-87630000D03*
%TO.P,U7,12*%
%TO.N,Net-(U7-Pad12)*%
X132080000Y-95250000D03*
%TO.P,U7,5*%
%TO.N,Net-(U7-Pad5)*%
X127000000Y-87630000D03*
%TO.P,U7,11*%
%TO.N,Net-(U7-Pad11)*%
X129540000Y-95250000D03*
%TO.P,U7,4*%
%TO.N,Net-(U7-Pad4)*%
X129540000Y-87630000D03*
%TO.P,U7,10*%
%TO.N,Net-(U7-Pad10)*%
X127000000Y-95250000D03*
%TO.P,U7,3*%
%TO.N,Net-(U3-Pad3)*%
X132080000Y-87630000D03*
%TO.P,U7,9*%
%TO.N,Net-(U7-Pad9)*%
X124460000Y-95250000D03*
%TO.P,U7,2*%
%TO.N,Net-(U10-Pad22)*%
X134620000Y-87630000D03*
%TO.P,U7,8*%
%TO.N,Net-(U7-Pad8)*%
X121920000Y-95250000D03*
D11*
%TO.P,U7,1*%
%TO.N,Net-(U3-Pad13)*%
X137160000Y-87630000D03*
%TD*%
D10*
%TO.P,U6,20*%
%TO.N,+5V*%
X152400000Y-109220000D03*
%TO.P,U6,10*%
%TO.N,GND*%
X129540000Y-101600000D03*
%TO.P,U6,19*%
%TO.N,Net-(U1-Pad18)*%
X149860000Y-109220000D03*
%TO.P,U6,9*%
%TO.N,Net-(U1-Pad8)*%
X132080000Y-101600000D03*
%TO.P,U6,18*%
%TO.N,Net-(J1-Pad1)*%
X147320000Y-109220000D03*
%TO.P,U6,8*%
%TO.N,Net-(J1-Pad5)*%
X134620000Y-101600000D03*
%TO.P,U6,17*%
%TO.N,Net-(J1-Pad2)*%
X144780000Y-109220000D03*
%TO.P,U6,7*%
%TO.N,Net-(J1-Pad6)*%
X137160000Y-101600000D03*
%TO.P,U6,16*%
%TO.N,Net-(U1-Pad17)*%
X142240000Y-109220000D03*
%TO.P,U6,6*%
%TO.N,Net-(U1-Pad7)*%
X139700000Y-101600000D03*
%TO.P,U6,15*%
%TO.N,Net-(U1-Pad14)*%
X139700000Y-109220000D03*
%TO.P,U6,5*%
%TO.N,Net-(U1-Pad4)*%
X142240000Y-101600000D03*
%TO.P,U6,14*%
%TO.N,Net-(J1-Pad3)*%
X137160000Y-109220000D03*
%TO.P,U6,4*%
%TO.N,Net-(J1-Pad7)*%
X144780000Y-101600000D03*
%TO.P,U6,13*%
%TO.N,Net-(J1-Pad4)*%
X134620000Y-109220000D03*
%TO.P,U6,3*%
%TO.N,Net-(J1-Pad8)*%
X147320000Y-101600000D03*
%TO.P,U6,12*%
%TO.N,Net-(U1-Pad13)*%
X132080000Y-109220000D03*
%TO.P,U6,2*%
%TO.N,Net-(U1-Pad3)*%
X149860000Y-101600000D03*
%TO.P,U6,11*%
%TO.N,Net-(J1-Pad10)*%
X129540000Y-109220000D03*
D11*
%TO.P,U6,1*%
%TO.N,Net-(U18-Pad2)*%
X152400000Y-101600000D03*
%TD*%
D10*
%TO.P,U5,20*%
%TO.N,+5V*%
X153035000Y-124460000D03*
%TO.P,U5,10*%
%TO.N,GND*%
X130175000Y-116840000D03*
%TO.P,U5,19*%
%TO.N,Net-(J3-Pad16)*%
X150495000Y-124460000D03*
%TO.P,U5,9*%
%TO.N,Net-(J3-Pad12)*%
X132715000Y-116840000D03*
%TO.P,U5,18*%
%TO.N,Net-(U1-Pad18)*%
X147955000Y-124460000D03*
%TO.P,U5,8*%
%TO.N,Net-(U1-Pad8)*%
X135255000Y-116840000D03*
%TO.P,U5,17*%
%TO.N,Net-(U1-Pad17)*%
X145415000Y-124460000D03*
%TO.P,U5,7*%
%TO.N,Net-(U1-Pad7)*%
X137795000Y-116840000D03*
%TO.P,U5,16*%
%TO.N,Net-(J3-Pad15)*%
X142875000Y-124460000D03*
%TO.P,U5,6*%
%TO.N,Net-(J3-Pad11)*%
X140335000Y-116840000D03*
%TO.P,U5,15*%
%TO.N,Net-(J3-Pad14)*%
X140335000Y-124460000D03*
%TO.P,U5,5*%
%TO.N,Net-(J3-Pad10)*%
X142875000Y-116840000D03*
%TO.P,U5,14*%
%TO.N,Net-(U1-Pad14)*%
X137795000Y-124460000D03*
%TO.P,U5,4*%
%TO.N,Net-(U1-Pad4)*%
X145415000Y-116840000D03*
%TO.P,U5,13*%
%TO.N,Net-(U1-Pad13)*%
X135255000Y-124460000D03*
%TO.P,U5,3*%
%TO.N,Net-(U1-Pad3)*%
X147955000Y-116840000D03*
%TO.P,U5,12*%
%TO.N,Net-(J3-Pad13)*%
X132715000Y-124460000D03*
%TO.P,U5,2*%
%TO.N,Net-(J3-Pad9)*%
X150495000Y-116840000D03*
%TO.P,U5,11*%
%TO.N,Net-(U14-Pad8)*%
X130175000Y-124460000D03*
D11*
%TO.P,U5,1*%
%TO.N,GND*%
X153035000Y-116840000D03*
%TD*%
D10*
%TO.P,U4,40*%
%TO.N,Net-(R2-Pad2)*%
X124460000Y-64770000D03*
%TO.P,U4,20*%
%TO.N,Net-(U10-Pad23)*%
X172720000Y-80010000D03*
%TO.P,U4,39*%
%TO.N,Net-(U3-Pad13)*%
X127000000Y-64770000D03*
%TO.P,U4,19*%
%TO.N,Net-(U10-Pad21)*%
X170180000Y-80010000D03*
%TO.P,U4,38*%
%TO.N,+5V*%
X129540000Y-64770000D03*
%TO.P,U4,18*%
%TO.N,Net-(U10-Pad24)*%
X167640000Y-80010000D03*
%TO.P,U4,37*%
%TO.N,Net-(U4-Pad37)*%
X132080000Y-64770000D03*
%TO.P,U4,17*%
%TO.N,Net-(U10-Pad25)*%
X165100000Y-80010000D03*
%TO.P,U4,36*%
%TO.N,Net-(R4-Pad1)*%
X134620000Y-64770000D03*
%TO.P,U4,16*%
%TO.N,Net-(U10-Pad3)*%
X162560000Y-80010000D03*
%TO.P,U4,35*%
%TO.N,Net-(U4-Pad35)*%
X137160000Y-64770000D03*
%TO.P,U4,15*%
%TO.N,Net-(U10-Pad4)*%
X160020000Y-80010000D03*
%TO.P,U4,34*%
%TO.N,Net-(U3-Pad1)*%
X139700000Y-64770000D03*
%TO.P,U4,14*%
%TO.N,Net-(U10-Pad5)*%
X157480000Y-80010000D03*
%TO.P,U4,33*%
%TO.N,Net-(U1-Pad3)*%
X142240000Y-64770000D03*
%TO.P,U4,13*%
%TO.N,Net-(U10-Pad6)*%
X154940000Y-80010000D03*
%TO.P,U4,32*%
%TO.N,Net-(U1-Pad4)*%
X144780000Y-64770000D03*
%TO.P,U4,12*%
%TO.N,Net-(U10-Pad7)*%
X152400000Y-80010000D03*
%TO.P,U4,31*%
%TO.N,Net-(U1-Pad7)*%
X147320000Y-64770000D03*
%TO.P,U4,11*%
%TO.N,Net-(U10-Pad8)*%
X149860000Y-80010000D03*
%TO.P,U4,30*%
%TO.N,Net-(U1-Pad8)*%
X149860000Y-64770000D03*
%TO.P,U4,10*%
%TO.N,Net-(U10-Pad9)*%
X147320000Y-80010000D03*
%TO.P,U4,29*%
%TO.N,Net-(U1-Pad13)*%
X152400000Y-64770000D03*
%TO.P,U4,9*%
%TO.N,Net-(U10-Pad10)*%
X144780000Y-80010000D03*
%TO.P,U4,28*%
%TO.N,Net-(U1-Pad14)*%
X154940000Y-64770000D03*
%TO.P,U4,8*%
%TO.N,+5V*%
X142240000Y-80010000D03*
%TO.P,U4,27*%
%TO.N,Net-(U1-Pad17)*%
X157480000Y-64770000D03*
%TO.P,U4,7*%
%TO.N,Net-(U4-Pad7)*%
X139700000Y-80010000D03*
%TO.P,U4,26*%
%TO.N,Net-(U1-Pad18)*%
X160020000Y-64770000D03*
%TO.P,U4,6*%
%TO.N,Net-(R3-Pad1)*%
X137160000Y-80010000D03*
%TO.P,U4,25*%
%TO.N,Net-(U11-Pad17)*%
X162560000Y-64770000D03*
%TO.P,U4,5*%
%TO.N,Net-(U4-Pad5)*%
X134620000Y-80010000D03*
%TO.P,U4,24*%
%TO.N,Net-(U10-Pad1)*%
X165100000Y-64770000D03*
%TO.P,U4,4*%
%TO.N,Net-(J1-Pad12)*%
X132080000Y-80010000D03*
%TO.P,U4,23*%
%TO.N,Net-(U10-Pad26)*%
X167640000Y-64770000D03*
%TO.P,U4,3*%
%TO.N,Net-(U4-Pad3)*%
X129540000Y-80010000D03*
%TO.P,U4,22*%
%TO.N,Net-(U10-Pad2)*%
X170180000Y-64770000D03*
%TO.P,U4,2*%
%TO.N,Net-(R1-Pad1)*%
X127000000Y-80010000D03*
%TO.P,U4,21*%
%TO.N,GND*%
X172720000Y-64770000D03*
D11*
%TO.P,U4,1*%
%TO.N,Net-(U4-Pad1)*%
X124460000Y-80010000D03*
%TD*%
D10*
%TO.P,U3,14*%
%TO.N,+5V*%
X115570000Y-95250000D03*
%TO.P,U3,7*%
%TO.N,GND*%
X100330000Y-87630000D03*
%TO.P,U3,13*%
%TO.N,Net-(U3-Pad13)*%
X113030000Y-95250000D03*
%TO.P,U3,6*%
%TO.N,Net-(U17-Pad2)*%
X102870000Y-87630000D03*
%TO.P,U3,12*%
%TO.N,Net-(U14-Pad1)*%
X110490000Y-95250000D03*
%TO.P,U3,5*%
%TO.N,Net-(U17-Pad11)*%
X105410000Y-87630000D03*
%TO.P,U3,11*%
%TO.N,Net-(U3-Pad11)*%
X107950000Y-95250000D03*
%TO.P,U3,4*%
%TO.N,Net-(U10-Pad27)*%
X107950000Y-87630000D03*
%TO.P,U3,10*%
%TO.N,Net-(U3-Pad10)*%
X105410000Y-95250000D03*
%TO.P,U3,3*%
%TO.N,Net-(U3-Pad3)*%
X110490000Y-87630000D03*
%TO.P,U3,9*%
%TO.N,Net-(U11-Pad17)*%
X102870000Y-95250000D03*
%TO.P,U3,2*%
%TO.N,Net-(U10-Pad22)*%
X113030000Y-87630000D03*
%TO.P,U3,8*%
%TO.N,Net-(U13-Pad20)*%
X100330000Y-95250000D03*
D11*
%TO.P,U3,1*%
%TO.N,Net-(U3-Pad1)*%
X115570000Y-87630000D03*
%TD*%
D10*
%TO.P,U2,20*%
%TO.N,+5V*%
X123190000Y-109220000D03*
%TO.P,U2,10*%
%TO.N,GND*%
X100330000Y-101600000D03*
%TO.P,U2,19*%
%TO.N,Net-(U1-Pad18)*%
X120650000Y-109220000D03*
%TO.P,U2,9*%
%TO.N,Net-(U1-Pad8)*%
X102870000Y-101600000D03*
%TO.P,U2,18*%
%TO.N,Net-(J1-Pad1)*%
X118110000Y-109220000D03*
%TO.P,U2,8*%
%TO.N,Net-(J1-Pad5)*%
X105410000Y-101600000D03*
%TO.P,U2,17*%
%TO.N,Net-(J1-Pad2)*%
X115570000Y-109220000D03*
%TO.P,U2,7*%
%TO.N,Net-(J1-Pad6)*%
X107950000Y-101600000D03*
%TO.P,U2,16*%
%TO.N,Net-(U1-Pad17)*%
X113030000Y-109220000D03*
%TO.P,U2,6*%
%TO.N,Net-(U1-Pad7)*%
X110490000Y-101600000D03*
%TO.P,U2,15*%
%TO.N,Net-(U1-Pad14)*%
X110490000Y-109220000D03*
%TO.P,U2,5*%
%TO.N,Net-(U1-Pad4)*%
X113030000Y-101600000D03*
%TO.P,U2,14*%
%TO.N,Net-(J1-Pad3)*%
X107950000Y-109220000D03*
%TO.P,U2,4*%
%TO.N,Net-(J1-Pad7)*%
X115570000Y-101600000D03*
%TO.P,U2,13*%
%TO.N,Net-(J1-Pad4)*%
X105410000Y-109220000D03*
%TO.P,U2,3*%
%TO.N,Net-(J1-Pad8)*%
X118110000Y-101600000D03*
%TO.P,U2,12*%
%TO.N,Net-(U1-Pad13)*%
X102870000Y-109220000D03*
%TO.P,U2,2*%
%TO.N,Net-(U1-Pad3)*%
X120650000Y-101600000D03*
%TO.P,U2,11*%
%TO.N,Net-(J1-Pad11)*%
X100330000Y-109220000D03*
D11*
%TO.P,U2,1*%
%TO.N,Net-(U18-Pad1)*%
X123190000Y-101600000D03*
%TD*%
D10*
%TO.P,U1,20*%
%TO.N,+5V*%
X123190000Y-124460000D03*
%TO.P,U1,10*%
%TO.N,GND*%
X100330000Y-116840000D03*
%TO.P,U1,19*%
%TO.N,Net-(J3-Pad8)*%
X120650000Y-124460000D03*
%TO.P,U1,9*%
%TO.N,Net-(J3-Pad4)*%
X102870000Y-116840000D03*
%TO.P,U1,18*%
%TO.N,Net-(U1-Pad18)*%
X118110000Y-124460000D03*
%TO.P,U1,8*%
%TO.N,Net-(U1-Pad8)*%
X105410000Y-116840000D03*
%TO.P,U1,17*%
%TO.N,Net-(U1-Pad17)*%
X115570000Y-124460000D03*
%TO.P,U1,7*%
%TO.N,Net-(U1-Pad7)*%
X107950000Y-116840000D03*
%TO.P,U1,16*%
%TO.N,Net-(J3-Pad7)*%
X113030000Y-124460000D03*
%TO.P,U1,6*%
%TO.N,Net-(J3-Pad3)*%
X110490000Y-116840000D03*
%TO.P,U1,15*%
%TO.N,Net-(J3-Pad6)*%
X110490000Y-124460000D03*
%TO.P,U1,5*%
%TO.N,Net-(J3-Pad2)*%
X113030000Y-116840000D03*
%TO.P,U1,14*%
%TO.N,Net-(U1-Pad14)*%
X107950000Y-124460000D03*
%TO.P,U1,4*%
%TO.N,Net-(U1-Pad4)*%
X115570000Y-116840000D03*
%TO.P,U1,13*%
%TO.N,Net-(U1-Pad13)*%
X105410000Y-124460000D03*
%TO.P,U1,3*%
%TO.N,Net-(U1-Pad3)*%
X118110000Y-116840000D03*
%TO.P,U1,12*%
%TO.N,Net-(J3-Pad5)*%
X102870000Y-124460000D03*
%TO.P,U1,2*%
%TO.N,Net-(J3-Pad1)*%
X120650000Y-116840000D03*
%TO.P,U1,11*%
%TO.N,Net-(U1-Pad11)*%
X100330000Y-124460000D03*
D11*
%TO.P,U1,1*%
%TO.N,GND*%
X123190000Y-116840000D03*
%TD*%
D12*
%TO.P,X1,7*%
%TO.N,GND*%
X116840000Y-65405000D03*
%TO.P,X1,8*%
%TO.N,Net-(U4-Pad37)*%
X116840000Y-57785000D03*
%TO.P,X1,14*%
%TO.N,+5V*%
X101600000Y-57785000D03*
D11*
%TO.P,X1,1*%
%TO.N,Net-(X1-Pad1)*%
X101600000Y-65405000D03*
%TD*%
D13*
%TO.P,SW1,1*%
%TO.N,Net-(SW1-Pad1)*%
X99695000Y-74295000D03*
%TO.P,SW1,2*%
%TO.N,GND*%
X106195000Y-74295000D03*
%TO.P,SW1,3*%
%TO.N,Net-(SW1-Pad3)*%
X99695000Y-78795000D03*
%TO.P,SW1,4*%
%TO.N,Net-(R2-Pad2)*%
X106195000Y-78795000D03*
%TD*%
D10*
%TO.P,R4,2*%
%TO.N,+5V*%
X144780000Y-61595000D03*
D12*
%TO.P,R4,1*%
%TO.N,Net-(R4-Pad1)*%
X134620000Y-61595000D03*
%TD*%
D10*
%TO.P,R3,2*%
%TO.N,+5V*%
X147320000Y-83820000D03*
D12*
%TO.P,R3,1*%
%TO.N,Net-(R3-Pad1)*%
X137160000Y-83820000D03*
%TD*%
D10*
%TO.P,R2,2*%
%TO.N,Net-(R2-Pad2)*%
X109855000Y-83185000D03*
D12*
%TO.P,R2,1*%
%TO.N,+5V*%
X109855000Y-73025000D03*
%TD*%
D10*
%TO.P,R1,2*%
%TO.N,+5V*%
X117475000Y-73025000D03*
D12*
%TO.P,R1,1*%
%TO.N,Net-(R1-Pad1)*%
X117475000Y-83185000D03*
%TD*%
D14*
%TO.P,J5,2*%
%TO.N,Net-(J5-Pad2)*%
X212725000Y-140970000D03*
D15*
%TO.P,J5,1*%
%TO.N,Net-(J5-Pad1)*%
X210185000Y-140970000D03*
%TD*%
D14*
%TO.P,J4,5*%
%TO.N,Net-(J4-Pad5)*%
X201930000Y-140970000D03*
%TO.P,J4,4*%
%TO.N,Net-(J4-Pad4)*%
X199390000Y-140970000D03*
%TO.P,J4,3*%
%TO.N,Net-(J4-Pad3)*%
X196850000Y-140970000D03*
%TO.P,J4,2*%
%TO.N,Net-(J4-Pad2)*%
X194310000Y-140970000D03*
D15*
%TO.P,J4,1*%
%TO.N,Net-(J4-Pad1)*%
X191770000Y-140970000D03*
%TD*%
D14*
%TO.P,J3,18*%
%TO.N,Net-(J3-Pad18)*%
X187960000Y-140970000D03*
%TO.P,J3,17*%
%TO.N,Net-(J3-Pad17)*%
X185420000Y-140970000D03*
%TO.P,J3,16*%
%TO.N,Net-(J3-Pad16)*%
X182880000Y-140970000D03*
%TO.P,J3,15*%
%TO.N,Net-(J3-Pad15)*%
X180340000Y-140970000D03*
%TO.P,J3,14*%
%TO.N,Net-(J3-Pad14)*%
X177800000Y-140970000D03*
%TO.P,J3,13*%
%TO.N,Net-(J3-Pad13)*%
X175260000Y-140970000D03*
%TO.P,J3,12*%
%TO.N,Net-(J3-Pad12)*%
X172720000Y-140970000D03*
%TO.P,J3,11*%
%TO.N,Net-(J3-Pad11)*%
X170180000Y-140970000D03*
%TO.P,J3,10*%
%TO.N,Net-(J3-Pad10)*%
X167640000Y-140970000D03*
%TO.P,J3,9*%
%TO.N,Net-(J3-Pad9)*%
X165100000Y-140970000D03*
%TO.P,J3,8*%
%TO.N,Net-(J3-Pad8)*%
X162560000Y-140970000D03*
%TO.P,J3,7*%
%TO.N,Net-(J3-Pad7)*%
X160020000Y-140970000D03*
%TO.P,J3,6*%
%TO.N,Net-(J3-Pad6)*%
X157480000Y-140970000D03*
%TO.P,J3,5*%
%TO.N,Net-(J3-Pad5)*%
X154940000Y-140970000D03*
%TO.P,J3,4*%
%TO.N,Net-(J3-Pad4)*%
X152400000Y-140970000D03*
%TO.P,J3,3*%
%TO.N,Net-(J3-Pad3)*%
X149860000Y-140970000D03*
%TO.P,J3,2*%
%TO.N,Net-(J3-Pad2)*%
X147320000Y-140970000D03*
D15*
%TO.P,J3,1*%
%TO.N,Net-(J3-Pad1)*%
X144780000Y-140970000D03*
%TD*%
D14*
%TO.P,J2,5*%
%TO.N,GND*%
X231775000Y-140970000D03*
%TO.P,J2,4*%
X229235000Y-140970000D03*
%TO.P,J2,3*%
X226695000Y-140970000D03*
%TO.P,J2,2*%
%TO.N,+5V*%
X224155000Y-140970000D03*
D15*
%TO.P,J2,1*%
X221615000Y-140970000D03*
%TD*%
D14*
%TO.P,J1,13*%
%TO.N,GND*%
X135890000Y-140970000D03*
%TO.P,J1,12*%
%TO.N,Net-(J1-Pad12)*%
X133350000Y-140970000D03*
%TO.P,J1,11*%
%TO.N,Net-(J1-Pad11)*%
X130810000Y-140970000D03*
%TO.P,J1,10*%
%TO.N,Net-(J1-Pad10)*%
X128270000Y-140970000D03*
%TO.P,J1,9*%
%TO.N,Net-(J1-Pad9)*%
X125730000Y-140970000D03*
%TO.P,J1,8*%
%TO.N,Net-(J1-Pad8)*%
X123190000Y-140970000D03*
%TO.P,J1,7*%
%TO.N,Net-(J1-Pad7)*%
X120650000Y-140970000D03*
%TO.P,J1,6*%
%TO.N,Net-(J1-Pad6)*%
X118110000Y-140970000D03*
%TO.P,J1,5*%
%TO.N,Net-(J1-Pad5)*%
X115570000Y-140970000D03*
%TO.P,J1,4*%
%TO.N,Net-(J1-Pad4)*%
X113030000Y-140970000D03*
%TO.P,J1,3*%
%TO.N,Net-(J1-Pad3)*%
X110490000Y-140970000D03*
%TO.P,J1,2*%
%TO.N,Net-(J1-Pad2)*%
X107950000Y-140970000D03*
D15*
%TO.P,J1,1*%
%TO.N,Net-(J1-Pad1)*%
X105410000Y-140970000D03*
%TD*%
D16*
%TO.P,C5,2*%
%TO.N,GND*%
X251340000Y-136525000D03*
D17*
%TO.P,C5,1*%
%TO.N,+5V*%
X243840000Y-136525000D03*
%TD*%
D16*
%TO.P,C1,2*%
%TO.N,GND*%
X254515000Y-88900000D03*
D17*
%TO.P,C1,1*%
%TO.N,+5V*%
X247015000Y-88900000D03*
%TD*%
D18*
%TO.N,Net-(J1-Pad12)*%
X98515000Y-97790000D03*
X97170000Y-99606006D03*
X97170000Y-146035000D03*
X128270000Y-146035000D03*
%TO.N,Net-(J1-Pad11)*%
X102870000Y-114210000D03*
X104335153Y-122359847D03*
X105410000Y-127000000D03*
X104959999Y-138430000D03*
%TO.N,Net-(J1-Pad9)*%
X162560000Y-111670000D03*
X257913436Y-111125000D03*
X211455000Y-145415000D03*
X125730000Y-145310000D03*
%TO.N,Net-(J1-Pad8)*%
X120650000Y-99785000D03*
X163830000Y-107315000D03*
X167005000Y-107315000D03*
X125640000Y-99785000D03*
%TO.N,Net-(J1-Pad7)*%
X115570000Y-98000021D03*
X144780000Y-98000021D03*
X165100000Y-92075000D03*
X175260000Y-97790000D03*
X172720000Y-99695000D03*
X121495021Y-98000021D03*
%TO.N,Net-(J1-Pad6)*%
X160020000Y-99695000D03*
X137160000Y-103505000D03*
X110490000Y-97790000D03*
X107950000Y-97790000D03*
%TO.N,Net-(J1-Pad5)*%
X106045000Y-96520000D03*
X133350000Y-93980000D03*
%TO.N,Net-(J1-Pad4)*%
X106680000Y-119925000D03*
X160655000Y-118475000D03*
X136525000Y-118745000D03*
%TO.N,Net-(J1-Pad3)*%
X107950000Y-114935000D03*
X137160000Y-114935000D03*
X139065000Y-119925000D03*
X165100000Y-119200000D03*
X99060000Y-119380000D03*
X99060000Y-121375000D03*
X109855000Y-145310000D03*
%TO.N,Net-(J1-Pad2)*%
X115570000Y-111125000D03*
X152400000Y-111579999D03*
X154940000Y-119925000D03*
X175895000Y-119925000D03*
X145234999Y-111579999D03*
X107950000Y-145310000D03*
%TO.N,Net-(J1-Pad1)*%
X176530000Y-111125000D03*
X147229999Y-107405001D03*
X116840000Y-128270000D03*
X98425000Y-128270000D03*
X98425000Y-140970000D03*
%TO.N,Net-(J3-Pad16)*%
X158205000Y-136525000D03*
X182880000Y-136525000D03*
%TO.N,Net-(J3-Pad15)*%
X156210000Y-143240000D03*
X180340000Y-143510000D03*
%TO.N,Net-(J3-Pad14)*%
X153670000Y-143965000D03*
X177800000Y-144145000D03*
%TO.N,Net-(J3-Pad13)*%
X151765000Y-144690000D03*
X175260000Y-144690000D03*
%TO.N,Net-(J3-Pad12)*%
X140735000Y-127870000D03*
X172720000Y-127869999D03*
%TO.N,Net-(J3-Pad11)*%
X142875000Y-128270000D03*
X170180000Y-127869999D03*
%TO.N,Net-(J3-Pad10)*%
X144690000Y-127869999D03*
X167005000Y-128270000D03*
%TO.N,Net-(J3-Pad9)*%
X158115000Y-126365000D03*
X165735000Y-126365000D03*
%TO.N,Net-(J3-Pad8)*%
X120650000Y-138430000D03*
%TO.N,Net-(J3-Pad7)*%
X113665000Y-135435001D03*
%TO.N,Net-(J3-Pad6)*%
X110490000Y-132715000D03*
X157480000Y-133985000D03*
%TO.N,Net-(J3-Pad5)*%
X100965000Y-137160000D03*
%TO.N,Net-(J3-Pad4)*%
X126545001Y-116205000D03*
X131458460Y-142266921D03*
%TO.N,Net-(J3-Pad3)*%
X116840000Y-142875000D03*
X149860000Y-144690000D03*
%TO.N,Net-(J3-Pad2)*%
X119380000Y-144145000D03*
X146050000Y-144690000D03*
%TO.N,Net-(J3-Pad1)*%
X120650000Y-113030000D03*
X123190000Y-113030000D03*
X123825000Y-144780000D03*
X144780000Y-144690000D03*
%TO.N,Net-(U1-Pad11)*%
X252806564Y-96443436D03*
X243205000Y-134165000D03*
X100330000Y-134620000D03*
%TO.N,Net-(U1-Pad13)*%
X181610000Y-83275000D03*
X171540000Y-83275000D03*
X171522108Y-98497108D03*
X162560000Y-99060000D03*
X161290000Y-111670000D03*
X102870000Y-112395000D03*
X132080000Y-112305000D03*
X222885000Y-125820000D03*
X193529999Y-121774999D03*
X102870000Y-121920000D03*
X135400001Y-121774999D03*
X164954999Y-121774999D03*
%TO.N,Net-(U1-Pad8)*%
X170815000Y-82550000D03*
X170815000Y-97790000D03*
X161290000Y-97790000D03*
X222885000Y-123735000D03*
X215757685Y-123292380D03*
X210820000Y-122555000D03*
X105410000Y-122555000D03*
X133985000Y-122555000D03*
X163195000Y-122555000D03*
X194513157Y-122499999D03*
%TO.N,Net-(U1-Pad14)*%
X184150000Y-84000000D03*
X172265000Y-84000000D03*
X108094999Y-127144999D03*
X137650001Y-127144999D03*
X167149999Y-127144999D03*
X196359999Y-127144999D03*
X110490000Y-106045000D03*
X161290000Y-106045000D03*
X163285000Y-106045000D03*
X168910000Y-106045000D03*
X139700000Y-106045000D03*
%TO.N,Net-(U1-Pad7)*%
X184150000Y-60960000D03*
X184150000Y-58420000D03*
X119380000Y-81280000D03*
X110490000Y-104775000D03*
X161290000Y-104775000D03*
X163285000Y-104775000D03*
X168910000Y-104775000D03*
X139700000Y-104775000D03*
X108585000Y-99785000D03*
X98159857Y-99785000D03*
X97895000Y-120650000D03*
X225425000Y-125185000D03*
X196215000Y-120740000D03*
X167005000Y-120650000D03*
X137795000Y-120650000D03*
X107950000Y-120650000D03*
%TO.N,Net-(U1-Pad17)*%
X186690000Y-85090000D03*
X182790000Y-106045000D03*
X203835000Y-131264999D03*
X115750001Y-131264999D03*
X145234999Y-131264999D03*
X174805001Y-131264999D03*
%TO.N,Net-(U1-Pad4)*%
X185150003Y-60960000D03*
X185420000Y-55155000D03*
X250190000Y-56515000D03*
X243295000Y-56515000D03*
X222250000Y-56515000D03*
X203835000Y-113755000D03*
X115570000Y-113665000D03*
X145325000Y-113755000D03*
X174625000Y-113755000D03*
X170090000Y-113755000D03*
%TO.N,Net-(U1-Pad18)*%
X198755000Y-74295000D03*
X118110000Y-132715000D03*
X148045001Y-131989999D03*
X177165000Y-132080000D03*
X206284999Y-131989999D03*
%TO.N,Net-(U1-Pad3)*%
X189230000Y-57785000D03*
X179070000Y-105320000D03*
X179070000Y-106770000D03*
%TO.N,Net-(U18-Pad1)*%
X125095000Y-113030000D03*
%TO.N,Net-(U13-Pad20)*%
X232410000Y-54700000D03*
%TO.N,Net-(U11-Pad17)*%
X245110000Y-91440000D03*
%TO.N,Net-(U17-Pad2)*%
X110490000Y-90805000D03*
X197485000Y-90805000D03*
X200025000Y-90805000D03*
X215265000Y-90805000D03*
%TO.N,Net-(U17-Pad11)*%
X169545000Y-93345000D03*
X189865000Y-92075000D03*
X212725000Y-104775000D03*
X212580001Y-97934999D03*
%TO.N,Net-(U10-Pad27)*%
X204470000Y-76290000D03*
%TO.N,Net-(U14-Pad1)*%
X211455000Y-104140000D03*
X113665000Y-98335000D03*
X155575000Y-97550011D03*
%TO.N,Net-(U3-Pad13)*%
X113030000Y-92075000D03*
X137160000Y-92075000D03*
%TO.N,Net-(U10-Pad22)*%
X192405000Y-86360000D03*
X139065000Y-85090000D03*
%TO.N,Net-(U10-Pad23)*%
X190500000Y-78830000D03*
X194945000Y-78740000D03*
%TO.N,Net-(U10-Pad2)*%
X186055000Y-99060000D03*
X186690000Y-109855000D03*
X242570000Y-54700000D03*
%TO.N,Net-(U10-Pad21)*%
X198120000Y-75565000D03*
X223520000Y-76290000D03*
X172085000Y-78195000D03*
%TO.N,Net-(U10-Pad26)*%
X186055000Y-89535000D03*
X188595000Y-89535000D03*
X206375000Y-89535000D03*
X220980000Y-90170000D03*
X224790000Y-90170000D03*
X232690049Y-80999951D03*
%TO.N,Net-(U10-Pad24)*%
X237490000Y-83095000D03*
X239485000Y-83185000D03*
X195580000Y-81280000D03*
%TO.N,Net-(U10-Pad1)*%
X243840000Y-59145000D03*
X185420000Y-108585000D03*
X252730000Y-62230000D03*
%TO.N,Net-(U10-Pad25)*%
X237490000Y-82094997D03*
X243840000Y-82550000D03*
X201295000Y-76835000D03*
%TO.N,Net-(U10-Pad4)*%
X243840000Y-72480000D03*
%TO.N,Net-(U10-Pad5)*%
X241300000Y-73205000D03*
%TO.N,Net-(U10-Pad6)*%
X238760000Y-73930000D03*
%TO.N,Net-(U10-Pad7)*%
X236220000Y-74655000D03*
X253910000Y-76835000D03*
%TO.N,Net-(U10-Pad8)*%
X233680000Y-75565000D03*
%TO.N,Net-(U10-Pad9)*%
X231140000Y-57695000D03*
X245110000Y-57695000D03*
X255270000Y-82550000D03*
%TO.N,Net-(U10-Pad10)*%
X228600000Y-55245000D03*
%TO.N,Net-(U14-Pad8)*%
X224790000Y-107315000D03*
X257188436Y-107315000D03*
X240030000Y-135435001D03*
X130175000Y-135435001D03*
%TO.N,Net-(U18-Pad2)*%
X154940000Y-112305000D03*
%TO.N,Net-(U14-Pad6)*%
X244475000Y-133440000D03*
X159385000Y-133985000D03*
%TO.N,Net-(U18-Pad3)*%
X183515000Y-111670000D03*
%TO.N,Net-(U10-Pad20)*%
X189817725Y-85381969D03*
X199194847Y-85529847D03*
%TO.N,Net-(U11-Pad19)*%
X211455000Y-99060000D03*
X217170000Y-99060000D03*
%TO.N,Net-(U12-Pad11)*%
X245110000Y-132080000D03*
X188595000Y-132715000D03*
%TO.N,Net-(U15-Pad11)*%
X217805000Y-128270000D03*
%TO.N,Net-(U16-Pad19)*%
X188595000Y-92075000D03*
X206450154Y-93904846D03*
%TO.N,Net-(U17-Pad4)*%
X242570000Y-95250000D03*
%TD*%
D19*
%TO.N,Net-(J1-Pad12)*%
X99789999Y-86504999D02*
X98425000Y-87869998D01*
X108200003Y-86504999D02*
X99789999Y-86504999D01*
X115820003Y-78884999D02*
X108200003Y-86504999D01*
X132080000Y-80010000D02*
X130954999Y-78884999D01*
X130954999Y-78884999D02*
X115820003Y-78884999D01*
X98425000Y-87869998D02*
X98425000Y-97700000D01*
X98425000Y-97700000D02*
X98515000Y-97790000D01*
X97170000Y-99606006D02*
X97170000Y-146035000D01*
X128270000Y-146035000D02*
X133335000Y-146035000D01*
X133350000Y-146020000D02*
X133350000Y-140970000D01*
X133335000Y-146035000D02*
X133350000Y-146020000D01*
%TO.N,Net-(J1-Pad11)*%
X104284999Y-122309693D02*
X104335153Y-122359847D01*
X104284999Y-116589997D02*
X104284999Y-122309693D01*
X102870000Y-114210000D02*
X102870000Y-115174998D01*
X102870000Y-115174998D02*
X104284999Y-116589997D01*
X105410000Y-127000000D02*
X104775000Y-127635000D01*
X104775000Y-127635000D02*
X104775000Y-138245001D01*
X104775000Y-138245001D02*
X104959999Y-138430000D01*
%TO.N,Net-(J1-Pad10)*%
X128270000Y-110490000D02*
X128270000Y-140970000D01*
X129540000Y-109220000D02*
X128270000Y-110490000D01*
%TO.N,Net-(J1-Pad9)*%
X160793631Y-112395001D02*
X161924999Y-112395001D01*
X158750000Y-109220000D02*
X158750000Y-110351370D01*
X158750000Y-110351370D02*
X160793631Y-112395001D01*
X161924999Y-112395001D02*
X162560000Y-111760000D01*
X162560000Y-111760000D02*
X162560000Y-111670000D01*
X261879990Y-121470012D02*
X237935002Y-145415000D01*
X257913436Y-111125000D02*
X261879990Y-115091554D01*
X261879990Y-115091554D02*
X261879990Y-121470012D01*
X237935002Y-145415000D02*
X211455000Y-145415000D01*
X125730000Y-145310000D02*
X125730000Y-140970000D01*
%TO.N,Net-(J1-Pad8)*%
X118110000Y-101600000D02*
X119925000Y-99785000D01*
X119925000Y-99785000D02*
X120650000Y-99785000D01*
X154646997Y-100474999D02*
X161486998Y-107315000D01*
X147320000Y-101600000D02*
X148445001Y-100474999D01*
X148445001Y-100474999D02*
X154646997Y-100474999D01*
X161486998Y-107315000D02*
X163830000Y-107315000D01*
X175404999Y-100474999D02*
X176530000Y-101600000D01*
X167495001Y-101349997D02*
X168369999Y-100474999D01*
X167495001Y-106824999D02*
X167495001Y-101349997D01*
X168369999Y-100474999D02*
X175404999Y-100474999D01*
X167005000Y-107315000D02*
X167495001Y-106824999D01*
X125820001Y-99965001D02*
X125640000Y-99785000D01*
X125820001Y-138339999D02*
X125820001Y-99965001D01*
X123190000Y-140970000D02*
X125820001Y-138339999D01*
%TO.N,Net-(J1-Pad7)*%
X115570000Y-101600000D02*
X115570000Y-98000021D01*
X144780000Y-98000021D02*
X144780000Y-101600000D01*
X155719999Y-94709999D02*
X158354998Y-92075000D01*
X155719999Y-95500003D02*
X155719999Y-94709999D01*
X144780000Y-98000021D02*
X153219981Y-98000021D01*
X153219981Y-98000021D02*
X155719999Y-95500003D01*
X158354998Y-92075000D02*
X165100000Y-92075000D01*
X175260000Y-97790000D02*
X173355000Y-99695000D01*
X173355000Y-99695000D02*
X172720000Y-99695000D01*
X121775001Y-98280001D02*
X121495021Y-98000021D01*
X121775001Y-139844999D02*
X121775001Y-98280001D01*
X120650000Y-140970000D02*
X121775001Y-139844999D01*
%TO.N,Net-(J1-Pad6)*%
X164864999Y-100094999D02*
X166370000Y-101600000D01*
X160419999Y-100094999D02*
X164864999Y-100094999D01*
X160020000Y-99695000D02*
X160419999Y-100094999D01*
X137160000Y-101600000D02*
X137160000Y-103505000D01*
X111615001Y-134475001D02*
X111615001Y-98915001D01*
X118110000Y-140970000D02*
X111615001Y-134475001D01*
X111615001Y-98915001D02*
X110490000Y-97790000D01*
X107550001Y-101200001D02*
X107950000Y-101600000D01*
X107550001Y-98189999D02*
X107550001Y-101200001D01*
X107950000Y-97790000D02*
X107550001Y-98189999D01*
%TO.N,Net-(J1-Pad5)*%
X105410000Y-97155000D02*
X106045000Y-96520000D01*
X135015002Y-93980000D02*
X133350000Y-93980000D01*
X135745001Y-94709999D02*
X135015002Y-93980000D01*
X135745001Y-100474999D02*
X135745001Y-94709999D01*
X134620000Y-101600000D02*
X135745001Y-100474999D01*
X102474998Y-100330000D02*
X105410000Y-100330000D01*
X99204999Y-104680001D02*
X101744999Y-102140001D01*
X99204999Y-117380001D02*
X99204999Y-104680001D01*
X99789999Y-119913001D02*
X99789999Y-117965001D01*
X102521999Y-122645001D02*
X99789999Y-119913001D01*
X101744999Y-101059999D02*
X102474998Y-100330000D01*
X99789999Y-117965001D02*
X99204999Y-117380001D01*
X102958591Y-122645001D02*
X102521999Y-122645001D01*
X104234999Y-123921409D02*
X102958591Y-122645001D01*
X104234999Y-142668001D02*
X104234999Y-123921409D01*
X107601999Y-146035001D02*
X104234999Y-142668001D01*
X110504999Y-146035001D02*
X107601999Y-146035001D01*
X115570000Y-140970000D02*
X110504999Y-146035001D01*
X105410000Y-100330000D02*
X105410000Y-97155000D01*
X101744999Y-102140001D02*
X101744999Y-101059999D01*
X105410000Y-101600000D02*
X105410000Y-100330000D01*
%TO.N,Net-(J1-Pad4)*%
X105410000Y-109220000D02*
X106680000Y-110490000D01*
X106680000Y-110490000D02*
X106680000Y-119925000D01*
X163830000Y-113269998D02*
X163830000Y-109220000D01*
X160655000Y-116444998D02*
X163830000Y-113269998D01*
X160655000Y-118475000D02*
X160655000Y-116444998D01*
X136380001Y-118600001D02*
X136525000Y-118745000D01*
X136380001Y-110980001D02*
X136380001Y-118600001D01*
X134620000Y-109220000D02*
X136380001Y-110980001D01*
X111854999Y-139794999D02*
X113030000Y-140970000D01*
X106680000Y-140335000D02*
X107220001Y-139794999D01*
X107220001Y-139794999D02*
X111854999Y-139794999D01*
X106680000Y-119925000D02*
X106680000Y-140335000D01*
%TO.N,Net-(J1-Pad3)*%
X107950000Y-109220000D02*
X107950000Y-114935000D01*
X139065000Y-116274315D02*
X139065000Y-119925000D01*
X137160000Y-114935000D02*
X137725685Y-114935000D01*
X137725685Y-114935000D02*
X139065000Y-116274315D01*
X165590001Y-109999999D02*
X166370000Y-109220000D01*
X165590001Y-118709999D02*
X165590001Y-109999999D01*
X165100000Y-119200000D02*
X165590001Y-118709999D01*
X137160000Y-109220000D02*
X137160000Y-114935000D01*
X99060000Y-119380000D02*
X99060000Y-121285000D01*
X99060000Y-121285000D02*
X99060000Y-121375000D01*
X109855000Y-141605000D02*
X110490000Y-140970000D01*
X109855000Y-145310000D02*
X109855000Y-141605000D01*
%TO.N,Net-(J1-Pad2)*%
X115570000Y-109220000D02*
X115570000Y-111125000D01*
X152400000Y-111579999D02*
X154940000Y-114119999D01*
X154940000Y-114119999D02*
X154940000Y-119925000D01*
X173990000Y-109658002D02*
X173990000Y-109220000D01*
X175895000Y-111563002D02*
X173990000Y-109658002D01*
X175895000Y-119925000D02*
X175895000Y-111563002D01*
X144780000Y-111125000D02*
X145234999Y-111579999D01*
X144780000Y-109220000D02*
X144780000Y-111125000D01*
X107950000Y-145310000D02*
X107950000Y-140970000D01*
%TO.N,Net-(J1-Pad1)*%
X176530000Y-111125000D02*
X176530000Y-109220000D01*
X147320000Y-107495002D02*
X147229999Y-107405001D01*
X147320000Y-109220000D02*
X147320000Y-107495002D01*
X116984999Y-110345001D02*
X116984999Y-128125001D01*
X118110000Y-109220000D02*
X116984999Y-110345001D01*
X116984999Y-128125001D02*
X116840000Y-128270000D01*
X98425000Y-128270000D02*
X98425000Y-140970000D01*
%TO.N,Net-(J3-Pad18)*%
X186784999Y-142145001D02*
X187960000Y-140970000D01*
X184690001Y-142145001D02*
X186784999Y-142145001D01*
X184244999Y-141699999D02*
X184690001Y-142145001D01*
X183228001Y-135799999D02*
X184244999Y-136816997D01*
X178266999Y-135799999D02*
X183228001Y-135799999D01*
X170959999Y-125000001D02*
X174080000Y-128120002D01*
X184244999Y-136816997D02*
X184244999Y-141699999D01*
X170959999Y-117965001D02*
X170959999Y-125000001D01*
X174080000Y-131613000D02*
X178266999Y-135799999D01*
X174080000Y-128120002D02*
X174080000Y-131613000D01*
X172085000Y-116840000D02*
X170959999Y-117965001D01*
%TO.N,Net-(J3-Pad17)*%
X185420000Y-122555000D02*
X185420000Y-140970000D01*
X179705000Y-116840000D02*
X185420000Y-122555000D01*
%TO.N,Net-(J3-Pad16)*%
X158205001Y-132170001D02*
X158205001Y-136434999D01*
X150495000Y-124460000D02*
X158205001Y-132170001D01*
X158205001Y-136434999D02*
X158205000Y-136435000D01*
X158205000Y-136435000D02*
X158205000Y-136525000D01*
X182880000Y-136525000D02*
X182880000Y-140970000D01*
%TO.N,Net-(J3-Pad15)*%
X152603982Y-136894980D02*
X156210000Y-140500998D01*
X145784980Y-136894980D02*
X152603982Y-136894980D01*
X143674999Y-134784999D02*
X145784980Y-136894980D01*
X142875000Y-124460000D02*
X143674999Y-125259999D01*
X143674999Y-125259999D02*
X143674999Y-134784999D01*
X156210000Y-140500998D02*
X156210000Y-143240000D01*
X180340000Y-143510000D02*
X180340000Y-140970000D01*
%TO.N,Net-(J3-Pad14)*%
X140335000Y-126396998D02*
X141605000Y-127666998D01*
X140335000Y-124460000D02*
X140335000Y-126396998D01*
X141605000Y-127666998D02*
X141605000Y-135890000D01*
X150513992Y-137344990D02*
X153670000Y-140500998D01*
X141789990Y-137344990D02*
X150513992Y-137344990D01*
X141605000Y-135890000D02*
X141605000Y-137160000D01*
X141605000Y-137160000D02*
X141789990Y-137344990D01*
X153670000Y-140500998D02*
X153670000Y-141439002D01*
X153670000Y-141439002D02*
X153670000Y-143965000D01*
X177800000Y-144145000D02*
X177800000Y-140970000D01*
%TO.N,Net-(J3-Pad13)*%
X132715000Y-124460000D02*
X132715000Y-137795000D01*
X148424002Y-137795000D02*
X151130000Y-140500998D01*
X132715000Y-137795000D02*
X148424002Y-137795000D01*
X151765000Y-142074002D02*
X151765000Y-144690000D01*
X151130000Y-140500998D02*
X151130000Y-141439002D01*
X151130000Y-141439002D02*
X151765000Y-142074002D01*
X175260000Y-144690000D02*
X175260000Y-140970000D01*
%TO.N,Net-(J3-Pad12)*%
X136999998Y-127870000D02*
X140735000Y-127870000D01*
X134129999Y-125000001D02*
X136999998Y-127870000D01*
X134129999Y-123773001D02*
X134129999Y-125000001D01*
X132715000Y-116840000D02*
X132715000Y-122358002D01*
X132715000Y-122358002D02*
X134129999Y-123773001D01*
X172720000Y-127869999D02*
X172720000Y-140970000D01*
%TO.N,Net-(J3-Pad11)*%
X141749999Y-118254999D02*
X141749999Y-127144999D01*
X140335000Y-116840000D02*
X141749999Y-118254999D01*
X141749999Y-127144999D02*
X142875000Y-128270000D01*
X170180000Y-127869999D02*
X170180000Y-140970000D01*
%TO.N,Net-(J3-Pad10)*%
X144289999Y-124209997D02*
X144289999Y-127144999D01*
X142875000Y-116840000D02*
X142875000Y-122794998D01*
X142875000Y-122794998D02*
X144289999Y-124209997D01*
X144289999Y-127144999D02*
X144690000Y-127545000D01*
X144690000Y-127545000D02*
X144690000Y-127869999D01*
X167640000Y-128905000D02*
X167640000Y-140970000D01*
X167005000Y-128270000D02*
X167640000Y-128905000D01*
%TO.N,Net-(J3-Pad9)*%
X154305001Y-120650001D02*
X154305001Y-122555001D01*
X150495000Y-116840000D02*
X154305001Y-120650001D01*
X154305001Y-122555001D02*
X158115000Y-126365000D01*
X165735000Y-140335000D02*
X165100000Y-140970000D01*
X165735000Y-126365000D02*
X165735000Y-140335000D01*
%TO.N,Net-(J3-Pad8)*%
X120650000Y-124460000D02*
X120650000Y-138430000D01*
%TO.N,Net-(J3-Pad7)*%
X113030000Y-124460000D02*
X113030000Y-134800001D01*
X113030000Y-134800001D02*
X113665000Y-135435001D01*
%TO.N,Net-(J3-Pad6)*%
X110490000Y-124460000D02*
X110490000Y-132715000D01*
X157480000Y-133985000D02*
X157480000Y-140970000D01*
%TO.N,Net-(J3-Pad5)*%
X102870000Y-124460000D02*
X100965000Y-126365000D01*
X101055001Y-134271999D02*
X101055001Y-137069999D01*
X100965000Y-126365000D02*
X100965000Y-134181998D01*
X100965000Y-134181998D02*
X101055001Y-134271999D01*
X101055001Y-137069999D02*
X100965000Y-137160000D01*
%TO.N,Net-(J3-Pad4)*%
X127827919Y-142266921D02*
X131458460Y-142266921D01*
X126945000Y-141384002D02*
X127827919Y-142266921D01*
X126545001Y-116205000D02*
X126945000Y-116604999D01*
X126945000Y-116604999D02*
X126945000Y-141384002D01*
%TO.N,Net-(J3-Pad3)*%
X109364999Y-132861409D02*
X116840000Y-140336410D01*
X109364999Y-123919999D02*
X109364999Y-132861409D01*
X110490000Y-116840000D02*
X110490000Y-122794998D01*
X110490000Y-122794998D02*
X109364999Y-123919999D01*
X116840000Y-140336410D02*
X116840000Y-141439002D01*
X116840000Y-141439002D02*
X116840000Y-142875000D01*
X149860000Y-144690000D02*
X149860000Y-140970000D01*
%TO.N,Net-(J3-Pad2)*%
X114444999Y-135565997D02*
X119380000Y-140500998D01*
X114444999Y-124209997D02*
X114444999Y-135565997D01*
X113030000Y-116840000D02*
X113030000Y-122794998D01*
X113030000Y-122794998D02*
X114444999Y-124209997D01*
X119380000Y-140500998D02*
X119380000Y-144145000D01*
X147320000Y-143420000D02*
X147320000Y-140970000D01*
X146050000Y-144690000D02*
X147320000Y-143420000D01*
%TO.N,Net-(J3-Pad1)*%
X120650000Y-116840000D02*
X120650000Y-113030000D01*
X122014999Y-140405999D02*
X122014999Y-142334999D01*
X125369991Y-137051007D02*
X122014999Y-140405999D01*
X123190000Y-113030000D02*
X125369991Y-115209991D01*
X125369991Y-115209991D02*
X125369991Y-137051007D01*
X122014999Y-142334999D02*
X123825000Y-144145000D01*
X123825000Y-144145000D02*
X123825000Y-144780000D01*
X144780000Y-144690000D02*
X144780000Y-140970000D01*
%TO.N,Net-(J4-Pad5)*%
X191135000Y-124460000D02*
X203835000Y-137160000D01*
X203835000Y-139065000D02*
X201930000Y-140970000D01*
X203835000Y-137160000D02*
X203835000Y-139065000D01*
%TO.N,Net-(J4-Pad4)*%
X197629999Y-116349999D02*
X197629999Y-117619999D01*
X196994999Y-115714999D02*
X197629999Y-116349999D01*
X191135000Y-116840000D02*
X192260001Y-115714999D01*
X192260001Y-115714999D02*
X196994999Y-115714999D01*
X202709999Y-122699999D02*
X202709999Y-133494999D01*
X197629999Y-117619999D02*
X202709999Y-122699999D01*
X202709999Y-133494999D02*
X206889979Y-137674979D01*
X206889979Y-137674979D02*
X206889979Y-144145000D01*
X206889979Y-144145000D02*
X199390000Y-144145000D01*
X199390000Y-144145000D02*
X199390000Y-140970000D01*
%TO.N,Net-(J4-Pad3)*%
X205249999Y-134129999D02*
X207339989Y-136219989D01*
X198755000Y-116840000D02*
X205249999Y-123334999D01*
X205249999Y-123334999D02*
X205249999Y-134129999D01*
X207339989Y-136219989D02*
X207339989Y-144447191D01*
X207339989Y-144447191D02*
X207007180Y-144780000D01*
X207007180Y-144780000D02*
X196850000Y-144780000D01*
X196850000Y-144780000D02*
X196850000Y-140970000D01*
%TO.N,Net-(J4-Pad2)*%
X206638610Y-145415000D02*
X194310000Y-145415000D01*
X206823600Y-145599990D02*
X206638610Y-145415000D01*
X207789999Y-144633591D02*
X206823600Y-145599990D01*
X194310000Y-145415000D02*
X194310000Y-140970000D01*
X201295000Y-116840000D02*
X207789999Y-123334999D01*
X207789999Y-123334999D02*
X207789999Y-144633591D01*
%TO.N,Net-(J4-Pad1)*%
X210040001Y-138829997D02*
X208280000Y-140589998D01*
X208915000Y-116840000D02*
X210040001Y-117965001D01*
X210040001Y-117965001D02*
X210040001Y-138829997D01*
X208280000Y-140589998D02*
X208280000Y-144780000D01*
X208280000Y-144780000D02*
X207010000Y-146050000D01*
X207010000Y-146050000D02*
X191770000Y-146050000D01*
X191770000Y-146050000D02*
X191770000Y-140970000D01*
%TO.N,Net-(J5-Pad2)*%
X212725000Y-140970000D02*
X214630000Y-139065000D01*
X231630001Y-121775001D02*
X230505000Y-120650000D01*
X231630001Y-128810001D02*
X231630001Y-121775001D01*
X221375002Y-139065000D02*
X231630001Y-128810001D01*
X214630000Y-139065000D02*
X221375002Y-139065000D01*
%TO.N,Net-(J5-Pad1)*%
X234459999Y-124315001D02*
X238125000Y-120650000D01*
X234459999Y-128520003D02*
X234459999Y-124315001D01*
X223464993Y-139515009D02*
X234459999Y-128520003D01*
X215918993Y-139515009D02*
X223464993Y-139515009D01*
X213289001Y-142145001D02*
X215918993Y-139515009D01*
X211360001Y-142145001D02*
X213289001Y-142145001D01*
X210185000Y-140970000D02*
X211360001Y-142145001D01*
%TO.N,Net-(R1-Pad1)*%
X123825000Y-83185000D02*
X127000000Y-80010000D01*
X117475000Y-83185000D02*
X123825000Y-83185000D01*
%TO.N,Net-(R2-Pad2)*%
X106195000Y-79525000D02*
X106195000Y-78795000D01*
X109855000Y-83185000D02*
X106195000Y-79525000D01*
X120220000Y-64770000D02*
X124460000Y-64770000D01*
X106195000Y-78795000D02*
X120220000Y-64770000D01*
%TO.N,Net-(R3-Pad1)*%
X137160000Y-83820000D02*
X137160000Y-80010000D01*
%TO.N,Net-(R4-Pad1)*%
X134620000Y-61595000D02*
X134620000Y-64770000D01*
%TO.N,Net-(U1-Pad11)*%
X252806564Y-96443436D02*
X256463436Y-96443436D01*
X244823002Y-134165000D02*
X243205000Y-134165000D01*
X256463436Y-96443436D02*
X256463436Y-122524566D01*
X256463436Y-122524566D02*
X244823002Y-134165000D01*
X100330000Y-134620000D02*
X100330000Y-124460000D01*
%TO.N,Net-(U1-Pad13)*%
X220980000Y-80646410D02*
X220980000Y-80010000D01*
X218351410Y-83275000D02*
X220980000Y-80646410D01*
X181610000Y-83275000D02*
X218351410Y-83275000D01*
X181610000Y-83275000D02*
X171540000Y-83275000D01*
X171522108Y-98497108D02*
X170959216Y-99060000D01*
X170959216Y-99060000D02*
X162560000Y-99060000D01*
X161290000Y-109220000D02*
X161290000Y-111670000D01*
X102870000Y-112395000D02*
X102870000Y-109220000D01*
X132080000Y-109220000D02*
X132080000Y-112305000D01*
X101744999Y-113520001D02*
X101744999Y-120794999D01*
X102870000Y-112395000D02*
X101744999Y-113520001D01*
X222885000Y-125820000D02*
X222885000Y-128270000D01*
X193675000Y-121920000D02*
X193529999Y-121774999D01*
X193675000Y-124460000D02*
X193675000Y-121920000D01*
X101744999Y-120794999D02*
X102870000Y-121920000D01*
X102870000Y-121920000D02*
X105410000Y-124460000D01*
X135255000Y-121920000D02*
X135400001Y-121774999D01*
X135255000Y-124460000D02*
X135255000Y-121920000D01*
X164465000Y-122264998D02*
X164954999Y-121774999D01*
X164465000Y-124460000D02*
X164465000Y-122264998D01*
%TO.N,Net-(U1-Pad8)*%
X179070000Y-80010000D02*
X179070000Y-82550000D01*
X179070000Y-82550000D02*
X218440000Y-82550000D01*
X218440000Y-82550000D02*
X218440000Y-80010000D01*
X179070000Y-82550000D02*
X170815000Y-82550000D01*
X170815000Y-97790000D02*
X161290000Y-97790000D01*
X222885000Y-120650000D02*
X222885000Y-123735000D01*
X215757685Y-123292380D02*
X215020305Y-122555000D01*
X215020305Y-122555000D02*
X210820000Y-122555000D01*
X105410000Y-122555000D02*
X105410000Y-116840000D01*
X133985000Y-118110000D02*
X133985000Y-122555000D01*
X135255000Y-116840000D02*
X133985000Y-118110000D01*
X163195000Y-118110000D02*
X163195000Y-122555000D01*
X164465000Y-116840000D02*
X163195000Y-118110000D01*
X193675000Y-116840000D02*
X194513157Y-117678157D01*
X194513157Y-117678157D02*
X194513157Y-122499999D01*
X103995001Y-115425001D02*
X105410000Y-116840000D01*
X103995001Y-102725001D02*
X103995001Y-115425001D01*
X102870000Y-101600000D02*
X103995001Y-102725001D01*
X133494999Y-115079999D02*
X135255000Y-116840000D01*
X133494999Y-103014999D02*
X133494999Y-115079999D01*
X132080000Y-101600000D02*
X133494999Y-103014999D01*
X164955001Y-116349999D02*
X164465000Y-116840000D01*
X164955001Y-105265001D02*
X164955001Y-116349999D01*
X161290000Y-101600000D02*
X164955001Y-105265001D01*
%TO.N,Net-(U1-Pad14)*%
X219530000Y-84000000D02*
X223520000Y-80010000D01*
X184150000Y-84000000D02*
X219530000Y-84000000D01*
X184150000Y-84000000D02*
X172265000Y-84000000D01*
X108094999Y-124604999D02*
X107950000Y-124460000D01*
X108094999Y-127144999D02*
X108094999Y-124604999D01*
X137795000Y-127000000D02*
X137650001Y-127144999D01*
X137795000Y-124460000D02*
X137795000Y-127000000D01*
X167005000Y-127000000D02*
X167149999Y-127144999D01*
X167005000Y-124460000D02*
X167005000Y-127000000D01*
X196215000Y-127000000D02*
X196359999Y-127144999D01*
X196215000Y-124460000D02*
X196215000Y-127000000D01*
X109364999Y-123045001D02*
X107950000Y-124460000D01*
X109364999Y-110345001D02*
X109364999Y-123045001D01*
X110490000Y-109220000D02*
X109364999Y-110345001D01*
X110490000Y-109220000D02*
X110490000Y-106045000D01*
X161290000Y-106045000D02*
X163285000Y-106045000D01*
X168910000Y-106045000D02*
X168910000Y-109220000D01*
X139700000Y-109220000D02*
X139700000Y-106045000D01*
%TO.N,Net-(U1-Pad7)*%
X181610000Y-64770000D02*
X181610000Y-63500000D01*
X181610000Y-63500000D02*
X184150000Y-60960000D01*
X184150000Y-58420000D02*
X184150000Y-55880000D01*
X184150000Y-55880000D02*
X220980000Y-55880000D01*
X220980000Y-55880000D02*
X220980000Y-64770000D01*
X109364999Y-100474999D02*
X110490000Y-101600000D01*
X115174998Y-81280000D02*
X109364999Y-87089999D01*
X119380000Y-81280000D02*
X115174998Y-81280000D01*
X110490000Y-101600000D02*
X110490000Y-104775000D01*
X161290000Y-104775000D02*
X163285000Y-104775000D01*
X168910000Y-104775000D02*
X168910000Y-101600000D01*
X139700000Y-101600000D02*
X139700000Y-104775000D01*
X108639999Y-99839999D02*
X108585000Y-99785000D01*
X109364999Y-99839999D02*
X108639999Y-99839999D01*
X109364999Y-99839999D02*
X109364999Y-100474999D01*
X109364999Y-87089999D02*
X109364999Y-99839999D01*
X98159857Y-99785000D02*
X98159857Y-120385143D01*
X98159857Y-120385143D02*
X97895000Y-120650000D01*
X225425000Y-120650000D02*
X225425000Y-125185000D01*
X196215000Y-116840000D02*
X196215000Y-120740000D01*
X167005000Y-116840000D02*
X167005000Y-120650000D01*
X137795000Y-116840000D02*
X137795000Y-120650000D01*
X107950000Y-116840000D02*
X107950000Y-120650000D01*
%TO.N,Net-(U1-Pad17)*%
X221619991Y-84450009D02*
X226060000Y-80010000D01*
X187329991Y-84450009D02*
X221619991Y-84450009D01*
X186690000Y-85090000D02*
X187329991Y-84450009D01*
X174625000Y-106045000D02*
X171450000Y-109220000D01*
X182790000Y-106045000D02*
X174625000Y-106045000D01*
X203835000Y-131264999D02*
X203835000Y-124460000D01*
X115750001Y-124640001D02*
X115570000Y-124460000D01*
X115750001Y-131264999D02*
X115750001Y-124640001D01*
X145415000Y-131084998D02*
X145234999Y-131264999D01*
X145415000Y-124460000D02*
X145415000Y-131084998D01*
X174625000Y-131084998D02*
X174805001Y-131264999D01*
X174625000Y-124460000D02*
X174625000Y-131084998D01*
X113030000Y-111761410D02*
X113030000Y-109220000D01*
X114155001Y-112886411D02*
X113030000Y-111761410D01*
X114155001Y-123045001D02*
X114155001Y-112886411D01*
X115570000Y-124460000D02*
X114155001Y-123045001D01*
X144289999Y-123334999D02*
X145415000Y-124460000D01*
X144289999Y-111269999D02*
X144289999Y-123334999D01*
X142240000Y-109220000D02*
X144289999Y-111269999D01*
X173499999Y-111269999D02*
X173499999Y-117965001D01*
X171450000Y-109220000D02*
X173499999Y-111269999D01*
X174625000Y-119090002D02*
X174625000Y-124460000D01*
X173499999Y-117965001D02*
X174625000Y-119090002D01*
%TO.N,Net-(U1-Pad4)*%
X184150000Y-64770000D02*
X185150003Y-63769997D01*
X185150003Y-63769997D02*
X185150003Y-60960000D01*
X223520000Y-57783590D02*
X223520000Y-64770000D01*
X220891410Y-55155000D02*
X223520000Y-57783590D01*
X185420000Y-55155000D02*
X220891410Y-55155000D01*
X250190000Y-56515000D02*
X243295000Y-56515000D01*
X203835000Y-113755000D02*
X203835000Y-116840000D01*
X115570000Y-113665000D02*
X115570000Y-116840000D01*
X145415000Y-113845000D02*
X145325000Y-113755000D01*
X145415000Y-116840000D02*
X145415000Y-113845000D01*
X174625000Y-116840000D02*
X174625000Y-113755000D01*
X114444999Y-103014999D02*
X114444999Y-112539999D01*
X114444999Y-112539999D02*
X115570000Y-113665000D01*
X113030000Y-101600000D02*
X114444999Y-103014999D01*
X146194999Y-112885001D02*
X145325000Y-113755000D01*
X146194999Y-105554999D02*
X146194999Y-112885001D01*
X142240000Y-101600000D02*
X146194999Y-105554999D01*
X170090000Y-102960000D02*
X170090000Y-113755000D01*
X171450000Y-101600000D02*
X170090000Y-102960000D01*
%TO.N,Net-(U1-Pad18)*%
X222885000Y-74295000D02*
X228600000Y-80010000D01*
X198755000Y-74295000D02*
X222885000Y-74295000D01*
X230014999Y-114840001D02*
X231379998Y-116205000D01*
X230014999Y-113613001D02*
X230014999Y-114840001D01*
X222394999Y-105993001D02*
X230014999Y-113613001D01*
X228600000Y-80010000D02*
X222394999Y-86215001D01*
X222394999Y-86215001D02*
X222394999Y-105993001D01*
X238405002Y-116205000D02*
X239675002Y-117475000D01*
X231379998Y-116205000D02*
X238405002Y-116205000D01*
X239539999Y-124315001D02*
X235585000Y-128270000D01*
X239539999Y-117610003D02*
X239539999Y-124315001D01*
X239675002Y-117475000D02*
X239539999Y-117610003D01*
X118110000Y-132715000D02*
X118110000Y-124460000D01*
X147955000Y-131899998D02*
X148045001Y-131989999D01*
X147955000Y-124460000D02*
X147955000Y-131899998D01*
X177165000Y-124460000D02*
X177165000Y-132080000D01*
X206375000Y-131899998D02*
X206284999Y-131989999D01*
X206375000Y-124460000D02*
X206375000Y-131899998D01*
X178290001Y-123334999D02*
X177165000Y-124460000D01*
X178290001Y-109999999D02*
X178290001Y-123334999D01*
X179070000Y-109220000D02*
X178290001Y-109999999D01*
X149080001Y-123334999D02*
X147955000Y-124460000D01*
X149080001Y-116349999D02*
X149080001Y-123334999D01*
X149860000Y-115570000D02*
X149080001Y-116349999D01*
X149860000Y-109220000D02*
X149860000Y-115570000D01*
X119524999Y-123045001D02*
X118110000Y-124460000D01*
X119524999Y-110345001D02*
X119524999Y-123045001D01*
X120650000Y-109220000D02*
X119524999Y-110345001D01*
%TO.N,Net-(U1-Pad3)*%
X224934999Y-65895001D02*
X226060000Y-64770000D01*
X217027821Y-65895001D02*
X224934999Y-65895001D01*
X208917820Y-57785000D02*
X217027821Y-65895001D01*
X189230000Y-57785000D02*
X208917820Y-57785000D01*
X118110000Y-111123590D02*
X118110000Y-116840000D01*
X119235001Y-109998589D02*
X118110000Y-111123590D01*
X119235001Y-103014999D02*
X119235001Y-109998589D01*
X120650000Y-101600000D02*
X119235001Y-103014999D01*
X148629992Y-116165008D02*
X147955000Y-116840000D01*
X148629992Y-102830008D02*
X148629992Y-116165008D01*
X149860000Y-101600000D02*
X148629992Y-102830008D01*
X179070000Y-101600000D02*
X179070000Y-105320000D01*
X177839991Y-108000009D02*
X177839991Y-116165009D01*
X177839991Y-116165009D02*
X177165000Y-116840000D01*
X179070000Y-106770000D02*
X177839991Y-108000009D01*
%TO.N,Net-(U18-Pad1)*%
X125095000Y-103505000D02*
X123190000Y-101600000D01*
X125095000Y-113030000D02*
X125095000Y-103505000D01*
%TO.N,Net-(U13-Pad20)*%
X231140000Y-80010000D02*
X232410000Y-78740000D01*
X232410000Y-78740000D02*
X232410000Y-54700000D01*
%TO.N,Net-(U11-Pad17)*%
X97790000Y-59929998D02*
X97790000Y-99060000D01*
X103744998Y-53975000D02*
X97790000Y-59929998D01*
X99060000Y-99060000D02*
X102870000Y-95250000D01*
X162560000Y-64770000D02*
X162560000Y-53975000D01*
X97790000Y-99060000D02*
X99060000Y-99060000D01*
X162560000Y-53975000D02*
X103744998Y-53975000D01*
X162560000Y-53975000D02*
X258445000Y-53975000D01*
X258445000Y-53975000D02*
X258445000Y-81915000D01*
X258445000Y-87227002D02*
X254232002Y-91440000D01*
X258445000Y-81915000D02*
X258445000Y-87227002D01*
X254232002Y-91440000D02*
X245110000Y-91440000D01*
X188595000Y-94615000D02*
X188595000Y-95250000D01*
X215265000Y-85090000D02*
X200660000Y-85090000D01*
X191135000Y-92075000D02*
X188595000Y-94615000D01*
X217805000Y-87630000D02*
X215265000Y-85090000D01*
X198755000Y-86995000D02*
X198755000Y-92075000D01*
X198755000Y-92075000D02*
X191135000Y-92075000D01*
X200660000Y-85090000D02*
X198755000Y-86995000D01*
%TO.N,Net-(U17-Pad2)*%
X110490000Y-90805000D02*
X197485000Y-90805000D01*
X200025000Y-90805000D02*
X215265000Y-90805000D01*
%TO.N,Net-(U17-Pad11)*%
X169545000Y-93345000D02*
X188595000Y-93345000D01*
X188595000Y-93345000D02*
X189865000Y-92075000D01*
X212725000Y-104775000D02*
X212725000Y-98079998D01*
X212725000Y-98079998D02*
X212580001Y-97934999D01*
%TO.N,Net-(U10-Pad27)*%
X209550000Y-80010000D02*
X205830000Y-76290000D01*
X205830000Y-76290000D02*
X204470000Y-76290000D01*
%TO.N,Net-(U14-Pad1)*%
X231775000Y-92710000D02*
X234315000Y-95250000D01*
X231775000Y-87630000D02*
X231775000Y-92710000D01*
X110490000Y-95250000D02*
X113665000Y-98425000D01*
X160941999Y-97064999D02*
X181519999Y-97064999D01*
X160564999Y-97441999D02*
X160941999Y-97064999D01*
X160564999Y-98138001D02*
X160564999Y-97441999D01*
X160941999Y-98515001D02*
X160564999Y-98138001D01*
X155665001Y-98515001D02*
X160941999Y-98515001D01*
X184929999Y-95790001D02*
X193279998Y-104140000D01*
X182389999Y-96194999D02*
X182389999Y-94709999D01*
X181519999Y-97064999D02*
X182389999Y-96194999D01*
X182389999Y-94709999D02*
X182974999Y-94124999D01*
X182974999Y-94124999D02*
X184055001Y-94124999D01*
X184055001Y-94124999D02*
X184929999Y-94999997D01*
X184929999Y-94999997D02*
X184929999Y-95790001D01*
X193279998Y-104140000D02*
X211455000Y-104140000D01*
X113665000Y-98425000D02*
X113665000Y-98335000D01*
X155575000Y-98425000D02*
X155665001Y-98515001D01*
X155575000Y-97550011D02*
X155575000Y-98425000D01*
%TO.N,Net-(U3-Pad3)*%
X130954999Y-86504999D02*
X132080000Y-87630000D01*
X111615001Y-86504999D02*
X130954999Y-86504999D01*
X110490000Y-87630000D02*
X111615001Y-86504999D01*
%TO.N,Net-(U3-Pad13)*%
X138285001Y-86504999D02*
X137160000Y-87630000D01*
X138285001Y-76055001D02*
X138285001Y-86504999D01*
X127000000Y-64770000D02*
X138285001Y-76055001D01*
X113030000Y-92075000D02*
X137160000Y-92075000D01*
%TO.N,Net-(U10-Pad22)*%
X186886998Y-86360000D02*
X185420000Y-84893002D01*
X192405000Y-86360000D02*
X186886998Y-86360000D01*
X185420000Y-84893002D02*
X185223002Y-85090000D01*
X185223002Y-85090000D02*
X139065000Y-85090000D01*
X113030000Y-87630000D02*
X113030000Y-89535000D01*
X113030000Y-89535000D02*
X134620000Y-89535000D01*
X134620000Y-89535000D02*
X134620000Y-87630000D01*
%TO.N,Net-(U10-Pad23)*%
X172720000Y-80010000D02*
X172720000Y-78740000D01*
X172720000Y-78740000D02*
X190410000Y-78740000D01*
X190410000Y-78740000D02*
X190500000Y-78830000D01*
X198120000Y-78740000D02*
X199390000Y-80010000D01*
X194945000Y-78740000D02*
X198120000Y-78740000D01*
%TO.N,Net-(U10-Pad2)*%
X170180000Y-64770000D02*
X170180000Y-59690000D01*
X170180000Y-59690000D02*
X209550000Y-59690000D01*
X209550000Y-59690000D02*
X209550000Y-64770000D01*
X186055000Y-99060000D02*
X186690000Y-99695000D01*
X186690000Y-99695000D02*
X186690000Y-109855000D01*
X248391998Y-64770000D02*
X248920000Y-64770000D01*
X242570000Y-58948002D02*
X248391998Y-64770000D01*
X242570000Y-54700000D02*
X242570000Y-58948002D01*
%TO.N,Net-(U10-Pad21)*%
X170180000Y-80010000D02*
X170180000Y-78105000D01*
X192405000Y-78105000D02*
X194310000Y-80010000D01*
X170180000Y-78105000D02*
X192405000Y-78105000D01*
X198120000Y-75565000D02*
X222795000Y-75565000D01*
X222795000Y-75565000D02*
X223520000Y-76290000D01*
%TO.N,Net-(U10-Pad26)*%
X186055000Y-89535000D02*
X188595000Y-89535000D01*
X206375000Y-89535000D02*
X220345000Y-89535000D01*
X220345000Y-89535000D02*
X220980000Y-90170000D01*
X231524997Y-81135001D02*
X232554999Y-81135001D01*
X225569999Y-87089999D02*
X231524997Y-81135001D01*
X224790000Y-90170000D02*
X225569999Y-89390001D01*
X225569999Y-89390001D02*
X225569999Y-87089999D01*
%TO.N,Net-(U10-Pad24)*%
X167640000Y-80010000D02*
X167640000Y-77470000D01*
X199390000Y-77470000D02*
X201930000Y-80010000D01*
X167640000Y-77470000D02*
X199390000Y-77470000D01*
X237490000Y-83095000D02*
X239395000Y-83095000D01*
X239395000Y-83095000D02*
X239485000Y-83185000D01*
X201055002Y-80010000D02*
X201930000Y-80010000D01*
X199785002Y-81280000D02*
X201055002Y-80010000D01*
X195580000Y-81280000D02*
X199785002Y-81280000D01*
%TO.N,Net-(U10-Pad1)*%
X209736400Y-59239990D02*
X212090000Y-61593590D01*
X212090000Y-61593590D02*
X212090000Y-64770000D01*
X169498640Y-59239990D02*
X209736400Y-59239990D01*
X165100000Y-63638630D02*
X169498640Y-59239990D01*
X165100000Y-64770000D02*
X165100000Y-63638630D01*
X243840000Y-59145000D02*
X251370000Y-59145000D01*
X251370000Y-59145000D02*
X251460000Y-59235000D01*
X251460000Y-59235000D02*
X251460000Y-64770000D01*
X183515000Y-95250000D02*
X183515000Y-98425000D01*
X183515000Y-98425000D02*
X185420000Y-100330000D01*
X185420000Y-100330000D02*
X185420000Y-108585000D01*
X251460000Y-63500000D02*
X251460000Y-64770000D01*
X252730000Y-62230000D02*
X251460000Y-63500000D01*
%TO.N,Net-(U10-Pad25)*%
X165100000Y-80010000D02*
X165100000Y-76835000D01*
X201295000Y-76835000D02*
X204470000Y-80010000D01*
X165100000Y-76835000D02*
X201295000Y-76835000D01*
X237490000Y-82094997D02*
X243384997Y-82094997D01*
X243384997Y-82094997D02*
X243840000Y-82550000D01*
%TO.N,Net-(U10-Pad3)*%
X162560000Y-80010000D02*
X162560000Y-76200000D01*
X195580000Y-76200000D02*
X207010000Y-64770000D01*
X162560000Y-76200000D02*
X195580000Y-76200000D01*
%TO.N,Net-(U10-Pad4)*%
X160020000Y-80010000D02*
X160020000Y-75565000D01*
X193675000Y-75565000D02*
X204470000Y-64770000D01*
X160020000Y-75565000D02*
X193675000Y-75565000D01*
X243840000Y-72480000D02*
X243840000Y-64770000D01*
%TO.N,Net-(U10-Pad5)*%
X191770000Y-74930000D02*
X201930000Y-64770000D01*
X157480000Y-80010000D02*
X157480000Y-74930000D01*
X157480000Y-74930000D02*
X191770000Y-74930000D01*
X241300000Y-73205000D02*
X241300000Y-64770000D01*
%TO.N,Net-(U10-Pad6)*%
X154940000Y-80010000D02*
X154940000Y-74295000D01*
X189865000Y-74295000D02*
X199390000Y-64770000D01*
X154940000Y-74295000D02*
X189865000Y-74295000D01*
X238760000Y-73930000D02*
X238760000Y-64770000D01*
%TO.N,Net-(U10-Pad7)*%
X152400000Y-80010000D02*
X152400000Y-74299230D01*
X187879970Y-73740030D02*
X196850000Y-64770000D01*
X152959200Y-73740030D02*
X187879970Y-73740030D01*
X152400000Y-74299230D02*
X152959200Y-73740030D01*
X236220000Y-74655000D02*
X236220000Y-64770000D01*
X236220000Y-74655000D02*
X253725000Y-74655000D01*
X253725000Y-74655000D02*
X253910000Y-74840000D01*
X253910000Y-74840000D02*
X253910000Y-76835000D01*
%TO.N,Net-(U10-Pad8)*%
X152772800Y-73290020D02*
X185789980Y-73290020D01*
X185789980Y-73290020D02*
X194310000Y-64770000D01*
X149860000Y-80010000D02*
X149860000Y-76202820D01*
X149860000Y-76202820D02*
X152772800Y-73290020D01*
X233680000Y-75565000D02*
X233680000Y-64770000D01*
%TO.N,Net-(U10-Pad9)*%
X147320000Y-80010000D02*
X147320000Y-78106410D01*
X183699990Y-72840010D02*
X191770000Y-64770000D01*
X152586400Y-72840010D02*
X183699990Y-72840010D01*
X147320000Y-78106410D02*
X152586400Y-72840010D01*
X231140000Y-57695000D02*
X231140000Y-64770000D01*
X255270000Y-62408590D02*
X255270000Y-82550000D01*
X245110000Y-57695000D02*
X250556410Y-57695000D01*
X250556410Y-57695000D02*
X255270000Y-62408590D01*
%TO.N,Net-(U10-Pad10)*%
X144780000Y-80010000D02*
X152400000Y-72390000D01*
X181610000Y-72390000D02*
X189230000Y-64770000D01*
X152400000Y-72390000D02*
X181610000Y-72390000D01*
X228600000Y-55245000D02*
X228600000Y-64770000D01*
%TO.N,Net-(U4-Pad37)*%
X125095000Y-57785000D02*
X132080000Y-64770000D01*
X116840000Y-57785000D02*
X125095000Y-57785000D01*
%TO.N,Net-(U14-Pad8)*%
X224155000Y-95250000D02*
X224790000Y-95885000D01*
X224790000Y-95885000D02*
X224790000Y-107315000D01*
X240575000Y-134890001D02*
X240030000Y-135435001D01*
X244734411Y-134890001D02*
X240575000Y-134890001D01*
X257188436Y-107315000D02*
X257188436Y-122435976D01*
X257188436Y-122435976D02*
X244734411Y-134890001D01*
X130175000Y-135435001D02*
X130175000Y-124460000D01*
%TO.N,Net-(U18-Pad2)*%
X154940000Y-112305000D02*
X154940000Y-104140000D01*
X152400000Y-101600000D02*
X154940000Y-104140000D01*
%TO.N,Net-(U14-Pad6)*%
X248376402Y-93038580D02*
X253485021Y-98147199D01*
X228270010Y-86054990D02*
X240004992Y-86054990D01*
X240004992Y-86054990D02*
X244384999Y-90434997D01*
X226695000Y-87630000D02*
X228270010Y-86054990D01*
X244384999Y-90434997D02*
X244384999Y-91788001D01*
X244384999Y-91788001D02*
X245635577Y-93038579D01*
X245635577Y-93038579D02*
X248376402Y-93038580D01*
X253485021Y-124777981D02*
X244913002Y-133350000D01*
X253485021Y-98147199D02*
X253485021Y-124777981D01*
X244913002Y-133350000D02*
X244565000Y-133350000D01*
X244565000Y-133350000D02*
X244475000Y-133440000D01*
X159385000Y-133985000D02*
X159385000Y-124460000D01*
%TO.N,Net-(U18-Pad3)*%
X183515000Y-103505000D02*
X181610000Y-101600000D01*
X183515000Y-111670000D02*
X183515000Y-103505000D01*
%TO.N,Net-(U10-Pad20)*%
X189817725Y-85381969D02*
X199046969Y-85381969D01*
X199046969Y-85381969D02*
X199194847Y-85529847D01*
%TO.N,Net-(U11-Pad19)*%
X193675000Y-95250000D02*
X197485000Y-99060000D01*
X197485000Y-99060000D02*
X211455000Y-99060000D01*
X216535000Y-99060000D02*
X212725000Y-95250000D01*
X217170000Y-99060000D02*
X216535000Y-99060000D01*
%TO.N,Net-(U12-Pad11)*%
X253035011Y-124154989D02*
X245110000Y-132080000D01*
X253035011Y-98333599D02*
X253035011Y-124154989D01*
X234315000Y-87630000D02*
X235440001Y-86504999D01*
X237980001Y-87089999D02*
X237980001Y-93488589D01*
X237395001Y-86504999D02*
X237980001Y-87089999D01*
X237980001Y-93488589D02*
X248190001Y-93488589D01*
X235440001Y-86504999D02*
X237395001Y-86504999D01*
X248190001Y-93488589D02*
X253035011Y-98333599D01*
X188595000Y-132715000D02*
X188595000Y-124460000D01*
%TO.N,Net-(U14-Pad10)*%
X232554999Y-113174999D02*
X232554999Y-97934999D01*
X233680000Y-114300000D02*
X232554999Y-113174999D01*
X229870000Y-95250000D02*
X229235000Y-95250000D01*
X232554999Y-97934999D02*
X229870000Y-95250000D01*
%TO.N,Net-(U14-Pad5)*%
X229235000Y-90806410D02*
X229235000Y-87630000D01*
X233189999Y-94761409D02*
X229235000Y-90806410D01*
X233189999Y-95790001D02*
X233189999Y-94761409D01*
X235094999Y-97695001D02*
X233189999Y-95790001D01*
X235094999Y-113174999D02*
X235094999Y-97695001D01*
X236220000Y-114300000D02*
X235094999Y-113174999D01*
%TO.N,Net-(U14-Pad13)*%
X248190001Y-94124999D02*
X237980001Y-94124999D01*
X252585001Y-98519999D02*
X248190001Y-94124999D01*
X237980001Y-94124999D02*
X236855000Y-95250000D01*
X252000001Y-115425001D02*
X252585001Y-114840001D01*
X232265001Y-115425001D02*
X252000001Y-115425001D01*
X252585001Y-114840001D02*
X252585001Y-98519999D01*
X231140000Y-114300000D02*
X232265001Y-115425001D01*
%TO.N,Net-(U14-Pad2)*%
X235729999Y-88755001D02*
X236855000Y-87630000D01*
X235729999Y-95790001D02*
X235729999Y-88755001D01*
X237634999Y-97695001D02*
X235729999Y-95790001D01*
X237634999Y-113174999D02*
X237634999Y-97695001D01*
X238760000Y-114300000D02*
X237634999Y-113174999D01*
%TO.N,Net-(U15-Pad11)*%
X216679999Y-127144999D02*
X217805000Y-128270000D01*
X216679999Y-100961995D02*
X216679999Y-127144999D01*
X212928002Y-97209998D02*
X216679999Y-100961995D01*
X207939996Y-97209998D02*
X212928002Y-97209998D01*
X206519999Y-95790001D02*
X207939996Y-97209998D01*
X205645001Y-94124999D02*
X206519999Y-94999997D01*
X202271997Y-94124999D02*
X205645001Y-94124999D01*
X206519999Y-94999997D02*
X206519999Y-95790001D01*
X199299999Y-91153001D02*
X202271997Y-94124999D01*
X199299999Y-90456999D02*
X199299999Y-91153001D01*
X199676999Y-90079999D02*
X199299999Y-90456999D01*
X202655001Y-90079999D02*
X199676999Y-90079999D01*
X205105000Y-87630000D02*
X202655001Y-90079999D01*
%TO.N,Net-(U16-Pad19)*%
X164465000Y-95250000D02*
X167640000Y-92075000D01*
X167640000Y-92075000D02*
X188595000Y-92075000D01*
X213919846Y-93904846D02*
X215265000Y-95250000D01*
X206450154Y-93904846D02*
X213919846Y-93904846D01*
%TO.N,Net-(U17-Pad4)*%
X241300000Y-114300000D02*
X242570000Y-113030000D01*
X242570000Y-113030000D02*
X242570000Y-95250000D01*
%TD*%
M02*
