M48
; DRILL file {KiCad 5.1.12-84ad8e8a86~92~ubuntu18.04.1} date Sat 22 Jan 2022 04:22:29 PM EST
; FORMAT={-:-/ absolute / metric / decimal}
; #@! TF.CreationDate,2022-01-22T16:22:29-05:00
; #@! TF.GenerationSoftware,Kicad,Pcbnew,5.1.12-84ad8e8a86~92~ubuntu18.04.1
; #@! TF.FileFunction,Plated,1,4,PTH
FMAT,2
METRIC
T1C0.400
T2C0.800
T3C1.000
T4C1.200
%
G90
G05
T1
X97.17Y-99.606
X97.17Y-146.035
X97.895Y-120.65
X98.16Y-99.785
X98.425Y-128.27
X98.425Y-140.97
X98.515Y-97.79
X99.06Y-119.38
X99.06Y-121.375
X100.33Y-134.62
X100.965Y-137.16
X102.87Y-112.395
X102.87Y-114.21
X102.87Y-121.92
X104.335Y-122.36
X104.96Y-138.43
X105.41Y-122.555
X105.41Y-127.0
X106.045Y-96.52
X106.68Y-119.925
X107.95Y-97.79
X107.95Y-114.935
X107.95Y-120.65
X107.95Y-145.31
X108.095Y-127.145
X108.585Y-99.785
X109.855Y-145.31
X110.49Y-90.805
X110.49Y-97.79
X110.49Y-104.775
X110.49Y-106.045
X110.49Y-132.715
X113.03Y-92.075
X113.665Y-98.335
X113.665Y-135.435
X115.57Y-98.0
X115.57Y-111.125
X115.57Y-113.665
X115.75Y-131.265
X116.84Y-128.27
X116.84Y-142.875
X118.11Y-132.715
X119.38Y-81.28
X119.38Y-144.145
X120.65Y-99.785
X120.65Y-113.03
X120.65Y-138.43
X121.495Y-98.0
X123.19Y-113.03
X123.825Y-144.78
X125.095Y-113.03
X125.64Y-99.785
X125.73Y-145.31
X126.545Y-116.205
X128.27Y-146.035
X130.175Y-135.435
X131.458Y-142.267
X132.08Y-112.305
X133.35Y-93.98
X133.985Y-122.555
X135.4Y-121.775
X136.525Y-118.745
X137.16Y-92.075
X137.16Y-103.505
X137.16Y-114.935
X137.65Y-127.145
X137.795Y-120.65
X139.065Y-85.09
X139.065Y-119.925
X139.7Y-104.775
X139.7Y-106.045
X140.735Y-127.87
X142.875Y-128.27
X144.69Y-127.87
X144.78Y-98.0
X144.78Y-144.69
X145.235Y-111.58
X145.235Y-131.265
X145.325Y-113.755
X146.05Y-144.69
X147.23Y-107.405
X148.045Y-131.99
X149.86Y-144.69
X151.765Y-144.69
X152.4Y-111.58
X153.67Y-143.965
X154.94Y-112.305
X154.94Y-119.925
X155.575Y-97.55
X156.21Y-143.24
X157.48Y-133.985
X158.115Y-126.365
X158.205Y-136.525
X159.385Y-133.985
X160.02Y-99.695
X160.655Y-118.475
X161.29Y-97.79
X161.29Y-104.775
X161.29Y-106.045
X161.29Y-111.67
X162.56Y-99.06
X162.56Y-111.67
X163.195Y-122.555
X163.285Y-104.775
X163.285Y-106.045
X163.83Y-107.315
X164.955Y-121.775
X165.1Y-92.075
X165.1Y-119.2
X165.735Y-126.365
X167.005Y-107.315
X167.005Y-120.65
X167.005Y-128.27
X167.15Y-127.145
X168.91Y-104.775
X168.91Y-106.045
X169.545Y-93.345
X170.09Y-113.755
X170.18Y-127.87
X170.815Y-82.55
X170.815Y-97.79
X171.522Y-98.497
X171.54Y-83.275
X172.085Y-78.195
X172.265Y-84.0
X172.72Y-99.695
X172.72Y-127.87
X174.625Y-113.755
X174.805Y-131.265
X175.26Y-97.79
X175.26Y-144.69
X175.895Y-119.925
X176.53Y-111.125
X177.165Y-132.08
X177.8Y-144.145
X179.07Y-105.32
X179.07Y-106.77
X180.34Y-143.51
X181.61Y-83.275
X182.79Y-106.045
X182.88Y-136.525
X183.515Y-111.67
X184.15Y-58.42
X184.15Y-60.96
X184.15Y-84.0
X185.15Y-60.96
X185.42Y-55.155
X185.42Y-108.585
X186.055Y-89.535
X186.055Y-99.06
X186.69Y-85.09
X186.69Y-109.855
X188.595Y-89.535
X188.595Y-92.075
X188.595Y-132.715
X189.23Y-57.785
X189.818Y-85.382
X189.865Y-92.075
X190.5Y-78.83
X192.405Y-86.36
X193.53Y-121.775
X194.513Y-122.5
X194.945Y-78.74
X195.58Y-81.28
X196.215Y-120.74
X196.36Y-127.145
X197.485Y-90.805
X198.12Y-75.565
X198.755Y-74.295
X199.195Y-85.53
X200.025Y-90.805
X201.295Y-76.835
X203.835Y-113.755
X203.835Y-131.265
X204.47Y-76.29
X206.285Y-131.99
X206.375Y-89.535
X206.45Y-93.905
X210.82Y-122.555
X211.455Y-99.06
X211.455Y-104.14
X211.455Y-145.415
X212.58Y-97.935
X212.725Y-104.775
X215.265Y-90.805
X215.758Y-123.292
X217.17Y-99.06
X217.805Y-128.27
X220.98Y-90.17
X222.25Y-56.515
X222.885Y-123.735
X222.885Y-125.82
X223.52Y-76.29
X224.79Y-90.17
X224.79Y-107.315
X225.425Y-125.185
X228.6Y-55.245
X231.14Y-57.695
X232.41Y-54.7
X232.69Y-81.0
X233.68Y-75.565
X236.22Y-74.655
X237.49Y-82.095
X237.49Y-83.095
X238.76Y-73.93
X239.485Y-83.185
X240.03Y-135.435
X241.3Y-73.205
X242.57Y-54.7
X242.57Y-95.25
X243.205Y-134.165
X243.295Y-56.515
X243.84Y-59.145
X243.84Y-72.48
X243.84Y-82.55
X244.475Y-133.44
X245.11Y-57.695
X245.11Y-91.44
X245.11Y-132.08
X250.19Y-56.515
X252.73Y-62.23
X252.807Y-96.443
X253.91Y-76.835
X255.27Y-82.55
X257.188Y-107.315
X257.913Y-111.125
T2
X100.33Y-87.63
X100.33Y-95.25
X100.33Y-101.6
X100.33Y-109.22
X100.33Y-116.84
X100.33Y-124.46
X101.6Y-57.785
X101.6Y-65.405
X102.87Y-87.63
X102.87Y-95.25
X102.87Y-101.6
X102.87Y-109.22
X102.87Y-116.84
X102.87Y-124.46
X105.41Y-87.63
X105.41Y-95.25
X105.41Y-101.6
X105.41Y-109.22
X105.41Y-116.84
X105.41Y-124.46
X107.95Y-87.63
X107.95Y-95.25
X107.95Y-101.6
X107.95Y-109.22
X107.95Y-116.84
X107.95Y-124.46
X109.855Y-73.025
X109.855Y-83.185
X110.49Y-87.63
X110.49Y-95.25
X110.49Y-101.6
X110.49Y-109.22
X110.49Y-116.84
X110.49Y-124.46
X113.03Y-87.63
X113.03Y-95.25
X113.03Y-101.6
X113.03Y-109.22
X113.03Y-116.84
X113.03Y-124.46
X115.57Y-87.63
X115.57Y-95.25
X115.57Y-101.6
X115.57Y-109.22
X115.57Y-116.84
X115.57Y-124.46
X116.84Y-57.785
X116.84Y-65.405
X117.475Y-73.025
X117.475Y-83.185
X118.11Y-101.6
X118.11Y-109.22
X118.11Y-116.84
X118.11Y-124.46
X120.65Y-101.6
X120.65Y-109.22
X120.65Y-116.84
X120.65Y-124.46
X121.92Y-87.63
X121.92Y-95.25
X123.19Y-101.6
X123.19Y-109.22
X123.19Y-116.84
X123.19Y-124.46
X124.46Y-64.77
X124.46Y-80.01
X124.46Y-87.63
X124.46Y-95.25
X127.0Y-64.77
X127.0Y-80.01
X127.0Y-87.63
X127.0Y-95.25
X129.54Y-64.77
X129.54Y-80.01
X129.54Y-87.63
X129.54Y-95.25
X129.54Y-101.6
X129.54Y-109.22
X130.175Y-116.84
X130.175Y-124.46
X132.08Y-64.77
X132.08Y-80.01
X132.08Y-87.63
X132.08Y-95.25
X132.08Y-101.6
X132.08Y-109.22
X132.715Y-116.84
X132.715Y-124.46
X134.62Y-61.595
X134.62Y-64.77
X134.62Y-80.01
X134.62Y-87.63
X134.62Y-95.25
X134.62Y-101.6
X134.62Y-109.22
X135.255Y-116.84
X135.255Y-124.46
X137.16Y-64.77
X137.16Y-80.01
X137.16Y-83.82
X137.16Y-87.63
X137.16Y-95.25
X137.16Y-101.6
X137.16Y-109.22
X137.795Y-116.84
X137.795Y-124.46
X139.7Y-64.77
X139.7Y-80.01
X139.7Y-101.6
X139.7Y-109.22
X140.335Y-116.84
X140.335Y-124.46
X142.24Y-64.77
X142.24Y-80.01
X142.24Y-101.6
X142.24Y-109.22
X142.875Y-116.84
X142.875Y-124.46
X144.145Y-87.63
X144.145Y-95.25
X144.78Y-61.595
X144.78Y-64.77
X144.78Y-80.01
X144.78Y-101.6
X144.78Y-109.22
X145.415Y-116.84
X145.415Y-124.46
X146.685Y-87.63
X146.685Y-95.25
X147.32Y-64.77
X147.32Y-80.01
X147.32Y-83.82
X147.32Y-101.6
X147.32Y-109.22
X147.955Y-116.84
X147.955Y-124.46
X149.225Y-87.63
X149.225Y-95.25
X149.86Y-64.77
X149.86Y-80.01
X149.86Y-101.6
X149.86Y-109.22
X150.495Y-116.84
X150.495Y-124.46
X151.765Y-87.63
X151.765Y-95.25
X152.4Y-64.77
X152.4Y-80.01
X152.4Y-101.6
X152.4Y-109.22
X153.035Y-116.84
X153.035Y-124.46
X154.305Y-87.63
X154.305Y-95.25
X154.94Y-64.77
X154.94Y-80.01
X156.845Y-87.63
X156.845Y-95.25
X157.48Y-64.77
X157.48Y-80.01
X158.75Y-101.6
X158.75Y-109.22
X159.385Y-87.63
X159.385Y-95.25
X159.385Y-116.84
X159.385Y-124.46
X160.02Y-64.77
X160.02Y-80.01
X161.29Y-101.6
X161.29Y-109.22
X161.925Y-87.63
X161.925Y-95.25
X161.925Y-116.84
X161.925Y-124.46
X162.56Y-64.77
X162.56Y-80.01
X163.83Y-101.6
X163.83Y-109.22
X164.465Y-87.63
X164.465Y-95.25
X164.465Y-116.84
X164.465Y-124.46
X165.1Y-64.77
X165.1Y-80.01
X166.37Y-101.6
X166.37Y-109.22
X167.005Y-87.63
X167.005Y-95.25
X167.005Y-116.84
X167.005Y-124.46
X167.64Y-64.77
X167.64Y-80.01
X168.91Y-101.6
X168.91Y-109.22
X169.545Y-116.84
X169.545Y-124.46
X170.18Y-64.77
X170.18Y-80.01
X171.45Y-101.6
X171.45Y-109.22
X172.085Y-116.84
X172.085Y-124.46
X172.72Y-64.77
X172.72Y-80.01
X173.355Y-87.63
X173.355Y-95.25
X173.99Y-101.6
X173.99Y-109.22
X174.625Y-116.84
X174.625Y-124.46
X175.895Y-87.63
X175.895Y-95.25
X176.53Y-101.6
X176.53Y-109.22
X177.165Y-116.84
X177.165Y-124.46
X178.435Y-87.63
X178.435Y-95.25
X179.07Y-64.77
X179.07Y-80.01
X179.07Y-101.6
X179.07Y-109.22
X179.705Y-116.84
X179.705Y-124.46
X180.975Y-87.63
X180.975Y-95.25
X181.61Y-64.77
X181.61Y-80.01
X181.61Y-101.6
X181.61Y-109.22
X182.245Y-116.84
X182.245Y-124.46
X183.515Y-87.63
X183.515Y-95.25
X184.15Y-64.77
X184.15Y-80.01
X186.055Y-87.63
X186.055Y-95.25
X186.69Y-64.77
X186.69Y-80.01
X188.595Y-87.63
X188.595Y-95.25
X188.595Y-116.84
X188.595Y-124.46
X189.23Y-64.77
X189.23Y-80.01
X191.135Y-87.63
X191.135Y-95.25
X191.135Y-116.84
X191.135Y-124.46
X191.77Y-64.77
X191.77Y-80.01
X193.675Y-87.63
X193.675Y-95.25
X193.675Y-116.84
X193.675Y-124.46
X194.31Y-64.77
X194.31Y-80.01
X196.215Y-87.63
X196.215Y-95.25
X196.215Y-116.84
X196.215Y-124.46
X196.85Y-64.77
X196.85Y-80.01
X198.755Y-116.84
X198.755Y-124.46
X199.39Y-64.77
X199.39Y-80.01
X201.295Y-116.84
X201.295Y-124.46
X201.93Y-64.77
X201.93Y-80.01
X202.565Y-87.63
X202.565Y-95.25
X203.835Y-116.84
X203.835Y-124.46
X204.47Y-64.77
X204.47Y-80.01
X205.105Y-87.63
X205.105Y-95.25
X206.375Y-116.84
X206.375Y-124.46
X207.01Y-64.77
X207.01Y-80.01
X207.645Y-87.63
X207.645Y-95.25
X208.915Y-116.84
X208.915Y-124.46
X209.55Y-64.77
X209.55Y-80.01
X210.185Y-87.63
X210.185Y-95.25
X211.455Y-116.84
X211.455Y-124.46
X212.09Y-64.77
X212.09Y-80.01
X212.725Y-87.63
X212.725Y-95.25
X215.265Y-87.63
X215.265Y-95.25
X217.805Y-87.63
X217.805Y-95.25
X217.805Y-120.65
X217.805Y-128.27
X218.44Y-64.77
X218.44Y-80.01
X220.345Y-120.65
X220.345Y-128.27
X220.98Y-64.77
X220.98Y-80.01
X222.885Y-120.65
X222.885Y-128.27
X223.52Y-64.77
X223.52Y-80.01
X223.52Y-99.06
X223.52Y-114.3
X224.155Y-87.63
X224.155Y-95.25
X225.425Y-120.65
X225.425Y-128.27
X226.06Y-64.77
X226.06Y-80.01
X226.06Y-99.06
X226.06Y-114.3
X226.695Y-87.63
X226.695Y-95.25
X227.965Y-120.65
X227.965Y-128.27
X228.6Y-64.77
X228.6Y-80.01
X228.6Y-99.06
X228.6Y-114.3
X229.235Y-87.63
X229.235Y-95.25
X230.505Y-120.65
X230.505Y-128.27
X231.14Y-64.77
X231.14Y-80.01
X231.14Y-99.06
X231.14Y-114.3
X231.775Y-87.63
X231.775Y-95.25
X233.045Y-120.65
X233.045Y-128.27
X233.68Y-64.77
X233.68Y-80.01
X233.68Y-99.06
X233.68Y-114.3
X234.315Y-87.63
X234.315Y-95.25
X235.585Y-120.65
X235.585Y-128.27
X236.22Y-64.77
X236.22Y-80.01
X236.22Y-99.06
X236.22Y-114.3
X236.855Y-87.63
X236.855Y-95.25
X238.125Y-120.65
X238.125Y-128.27
X238.76Y-64.77
X238.76Y-80.01
X238.76Y-99.06
X238.76Y-114.3
X239.395Y-87.63
X239.395Y-95.25
X240.665Y-120.65
X240.665Y-128.27
X241.3Y-64.77
X241.3Y-80.01
X241.3Y-99.06
X241.3Y-114.3
X243.84Y-64.77
X243.84Y-80.01
X243.84Y-99.06
X243.84Y-114.3
X246.38Y-64.77
X246.38Y-80.01
X246.38Y-99.06
X246.38Y-114.3
X248.92Y-64.77
X248.92Y-80.01
X248.92Y-99.06
X248.92Y-114.3
X251.46Y-64.77
X251.46Y-80.01
X251.46Y-99.06
X251.46Y-114.3
T3
X99.695Y-74.295
X99.695Y-78.795
X105.41Y-140.97
X106.195Y-74.295
X106.195Y-78.795
X107.95Y-140.97
X110.49Y-140.97
X113.03Y-140.97
X115.57Y-140.97
X118.11Y-140.97
X120.65Y-140.97
X123.19Y-140.97
X125.73Y-140.97
X128.27Y-140.97
X130.81Y-140.97
X133.35Y-140.97
X135.89Y-140.97
X144.78Y-140.97
X147.32Y-140.97
X149.86Y-140.97
X152.4Y-140.97
X154.94Y-140.97
X157.48Y-140.97
X160.02Y-140.97
X162.56Y-140.97
X165.1Y-140.97
X167.64Y-140.97
X170.18Y-140.97
X172.72Y-140.97
X175.26Y-140.97
X177.8Y-140.97
X180.34Y-140.97
X182.88Y-140.97
X185.42Y-140.97
X187.96Y-140.97
X191.77Y-140.97
X194.31Y-140.97
X196.85Y-140.97
X199.39Y-140.97
X201.93Y-140.97
X210.185Y-140.97
X212.725Y-140.97
X221.615Y-140.97
X224.155Y-140.97
X226.695Y-140.97
X229.235Y-140.97
X231.775Y-140.97
T4
X243.84Y-136.525
X247.015Y-88.9
X251.34Y-136.525
X254.515Y-88.9
T0
M30
