%TF.GenerationSoftware,KiCad,Pcbnew,5.1.12-84ad8e8a86~92~ubuntu18.04.1*%
%TF.CreationDate,2022-01-22T16:21:03-05:00*%
%TF.ProjectId,kicad,6b696361-642e-46b6-9963-61645f706362,rev?*%
%TF.SameCoordinates,Original*%
%TF.FileFunction,Soldermask,Top*%
%TF.FilePolarity,Negative*%
%FSLAX46Y46*%
G04 Gerber Fmt 4.6, Leading zero omitted, Abs format (unit mm)*
G04 Created by KiCad (PCBNEW 5.1.12-84ad8e8a86~92~ubuntu18.04.1) date 2022-01-22 16:21:03*
%MOMM*%
%LPD*%
G01*
G04 APERTURE LIST*
%ADD10O,1.600000X1.600000*%
%ADD11R,1.600000X1.600000*%
%ADD12C,1.600000*%
%ADD13C,1.700000*%
%ADD14O,1.700000X1.700000*%
%ADD15R,1.700000X1.700000*%
%ADD16C,2.400000*%
%ADD17R,2.400000X2.400000*%
G04 APERTURE END LIST*
D10*
%TO.C,U18*%
X223520000Y-99060000D03*
X251460000Y-114300000D03*
X226060000Y-99060000D03*
X248920000Y-114300000D03*
X228600000Y-99060000D03*
X246380000Y-114300000D03*
X231140000Y-99060000D03*
X243840000Y-114300000D03*
X233680000Y-99060000D03*
X241300000Y-114300000D03*
X236220000Y-99060000D03*
X238760000Y-114300000D03*
X238760000Y-99060000D03*
X236220000Y-114300000D03*
X241300000Y-99060000D03*
X233680000Y-114300000D03*
X243840000Y-99060000D03*
X231140000Y-114300000D03*
X246380000Y-99060000D03*
X228600000Y-114300000D03*
X248920000Y-99060000D03*
X226060000Y-114300000D03*
X251460000Y-99060000D03*
D11*
X223520000Y-114300000D03*
%TD*%
D10*
%TO.C,U17*%
X217805000Y-95250000D03*
X202565000Y-87630000D03*
X215265000Y-95250000D03*
X205105000Y-87630000D03*
X212725000Y-95250000D03*
X207645000Y-87630000D03*
X210185000Y-95250000D03*
X210185000Y-87630000D03*
X207645000Y-95250000D03*
X212725000Y-87630000D03*
X205105000Y-95250000D03*
X215265000Y-87630000D03*
X202565000Y-95250000D03*
D11*
X217805000Y-87630000D03*
%TD*%
D10*
%TO.C,U16*%
X167005000Y-95250000D03*
X144145000Y-87630000D03*
X164465000Y-95250000D03*
X146685000Y-87630000D03*
X161925000Y-95250000D03*
X149225000Y-87630000D03*
X159385000Y-95250000D03*
X151765000Y-87630000D03*
X156845000Y-95250000D03*
X154305000Y-87630000D03*
X154305000Y-95250000D03*
X156845000Y-87630000D03*
X151765000Y-95250000D03*
X159385000Y-87630000D03*
X149225000Y-95250000D03*
X161925000Y-87630000D03*
X146685000Y-95250000D03*
X164465000Y-87630000D03*
X144145000Y-95250000D03*
D11*
X167005000Y-87630000D03*
%TD*%
D10*
%TO.C,U15*%
X240665000Y-128270000D03*
X217805000Y-120650000D03*
X238125000Y-128270000D03*
X220345000Y-120650000D03*
X235585000Y-128270000D03*
X222885000Y-120650000D03*
X233045000Y-128270000D03*
X225425000Y-120650000D03*
X230505000Y-128270000D03*
X227965000Y-120650000D03*
X227965000Y-128270000D03*
X230505000Y-120650000D03*
X225425000Y-128270000D03*
X233045000Y-120650000D03*
X222885000Y-128270000D03*
X235585000Y-120650000D03*
X220345000Y-128270000D03*
X238125000Y-120650000D03*
X217805000Y-128270000D03*
D11*
X240665000Y-120650000D03*
%TD*%
D10*
%TO.C,U14*%
X239395000Y-95250000D03*
X224155000Y-87630000D03*
X236855000Y-95250000D03*
X226695000Y-87630000D03*
X234315000Y-95250000D03*
X229235000Y-87630000D03*
X231775000Y-95250000D03*
X231775000Y-87630000D03*
X229235000Y-95250000D03*
X234315000Y-87630000D03*
X226695000Y-95250000D03*
X236855000Y-87630000D03*
X224155000Y-95250000D03*
D11*
X239395000Y-87630000D03*
%TD*%
D10*
%TO.C,U13*%
X251460000Y-80010000D03*
X218440000Y-64770000D03*
X248920000Y-80010000D03*
X220980000Y-64770000D03*
X246380000Y-80010000D03*
X223520000Y-64770000D03*
X243840000Y-80010000D03*
X226060000Y-64770000D03*
X241300000Y-80010000D03*
X228600000Y-64770000D03*
X238760000Y-80010000D03*
X231140000Y-64770000D03*
X236220000Y-80010000D03*
X233680000Y-64770000D03*
X233680000Y-80010000D03*
X236220000Y-64770000D03*
X231140000Y-80010000D03*
X238760000Y-64770000D03*
X228600000Y-80010000D03*
X241300000Y-64770000D03*
X226060000Y-80010000D03*
X243840000Y-64770000D03*
X223520000Y-80010000D03*
X246380000Y-64770000D03*
X220980000Y-80010000D03*
X248920000Y-64770000D03*
X218440000Y-80010000D03*
D11*
X251460000Y-64770000D03*
%TD*%
D10*
%TO.C,U12*%
X211455000Y-124460000D03*
X188595000Y-116840000D03*
X208915000Y-124460000D03*
X191135000Y-116840000D03*
X206375000Y-124460000D03*
X193675000Y-116840000D03*
X203835000Y-124460000D03*
X196215000Y-116840000D03*
X201295000Y-124460000D03*
X198755000Y-116840000D03*
X198755000Y-124460000D03*
X201295000Y-116840000D03*
X196215000Y-124460000D03*
X203835000Y-116840000D03*
X193675000Y-124460000D03*
X206375000Y-116840000D03*
X191135000Y-124460000D03*
X208915000Y-116840000D03*
X188595000Y-124460000D03*
D11*
X211455000Y-116840000D03*
%TD*%
D10*
%TO.C,U11*%
X196215000Y-95250000D03*
X173355000Y-87630000D03*
X193675000Y-95250000D03*
X175895000Y-87630000D03*
X191135000Y-95250000D03*
X178435000Y-87630000D03*
X188595000Y-95250000D03*
X180975000Y-87630000D03*
X186055000Y-95250000D03*
X183515000Y-87630000D03*
X183515000Y-95250000D03*
X186055000Y-87630000D03*
X180975000Y-95250000D03*
X188595000Y-87630000D03*
X178435000Y-95250000D03*
X191135000Y-87630000D03*
X175895000Y-95250000D03*
X193675000Y-87630000D03*
X173355000Y-95250000D03*
D11*
X196215000Y-87630000D03*
%TD*%
D10*
%TO.C,U10*%
X212090000Y-80010000D03*
X179070000Y-64770000D03*
X209550000Y-80010000D03*
X181610000Y-64770000D03*
X207010000Y-80010000D03*
X184150000Y-64770000D03*
X204470000Y-80010000D03*
X186690000Y-64770000D03*
X201930000Y-80010000D03*
X189230000Y-64770000D03*
X199390000Y-80010000D03*
X191770000Y-64770000D03*
X196850000Y-80010000D03*
X194310000Y-64770000D03*
X194310000Y-80010000D03*
X196850000Y-64770000D03*
X191770000Y-80010000D03*
X199390000Y-64770000D03*
X189230000Y-80010000D03*
X201930000Y-64770000D03*
X186690000Y-80010000D03*
X204470000Y-64770000D03*
X184150000Y-80010000D03*
X207010000Y-64770000D03*
X181610000Y-80010000D03*
X209550000Y-64770000D03*
X179070000Y-80010000D03*
D11*
X212090000Y-64770000D03*
%TD*%
D10*
%TO.C,U9*%
X181610000Y-109220000D03*
X158750000Y-101600000D03*
X179070000Y-109220000D03*
X161290000Y-101600000D03*
X176530000Y-109220000D03*
X163830000Y-101600000D03*
X173990000Y-109220000D03*
X166370000Y-101600000D03*
X171450000Y-109220000D03*
X168910000Y-101600000D03*
X168910000Y-109220000D03*
X171450000Y-101600000D03*
X166370000Y-109220000D03*
X173990000Y-101600000D03*
X163830000Y-109220000D03*
X176530000Y-101600000D03*
X161290000Y-109220000D03*
X179070000Y-101600000D03*
X158750000Y-109220000D03*
D11*
X181610000Y-101600000D03*
%TD*%
D10*
%TO.C,U8*%
X182245000Y-124460000D03*
X159385000Y-116840000D03*
X179705000Y-124460000D03*
X161925000Y-116840000D03*
X177165000Y-124460000D03*
X164465000Y-116840000D03*
X174625000Y-124460000D03*
X167005000Y-116840000D03*
X172085000Y-124460000D03*
X169545000Y-116840000D03*
X169545000Y-124460000D03*
X172085000Y-116840000D03*
X167005000Y-124460000D03*
X174625000Y-116840000D03*
X164465000Y-124460000D03*
X177165000Y-116840000D03*
X161925000Y-124460000D03*
X179705000Y-116840000D03*
X159385000Y-124460000D03*
D11*
X182245000Y-116840000D03*
%TD*%
D10*
%TO.C,U7*%
X137160000Y-95250000D03*
X121920000Y-87630000D03*
X134620000Y-95250000D03*
X124460000Y-87630000D03*
X132080000Y-95250000D03*
X127000000Y-87630000D03*
X129540000Y-95250000D03*
X129540000Y-87630000D03*
X127000000Y-95250000D03*
X132080000Y-87630000D03*
X124460000Y-95250000D03*
X134620000Y-87630000D03*
X121920000Y-95250000D03*
D11*
X137160000Y-87630000D03*
%TD*%
D10*
%TO.C,U6*%
X152400000Y-109220000D03*
X129540000Y-101600000D03*
X149860000Y-109220000D03*
X132080000Y-101600000D03*
X147320000Y-109220000D03*
X134620000Y-101600000D03*
X144780000Y-109220000D03*
X137160000Y-101600000D03*
X142240000Y-109220000D03*
X139700000Y-101600000D03*
X139700000Y-109220000D03*
X142240000Y-101600000D03*
X137160000Y-109220000D03*
X144780000Y-101600000D03*
X134620000Y-109220000D03*
X147320000Y-101600000D03*
X132080000Y-109220000D03*
X149860000Y-101600000D03*
X129540000Y-109220000D03*
D11*
X152400000Y-101600000D03*
%TD*%
D10*
%TO.C,U5*%
X153035000Y-124460000D03*
X130175000Y-116840000D03*
X150495000Y-124460000D03*
X132715000Y-116840000D03*
X147955000Y-124460000D03*
X135255000Y-116840000D03*
X145415000Y-124460000D03*
X137795000Y-116840000D03*
X142875000Y-124460000D03*
X140335000Y-116840000D03*
X140335000Y-124460000D03*
X142875000Y-116840000D03*
X137795000Y-124460000D03*
X145415000Y-116840000D03*
X135255000Y-124460000D03*
X147955000Y-116840000D03*
X132715000Y-124460000D03*
X150495000Y-116840000D03*
X130175000Y-124460000D03*
D11*
X153035000Y-116840000D03*
%TD*%
D10*
%TO.C,U4*%
X124460000Y-64770000D03*
X172720000Y-80010000D03*
X127000000Y-64770000D03*
X170180000Y-80010000D03*
X129540000Y-64770000D03*
X167640000Y-80010000D03*
X132080000Y-64770000D03*
X165100000Y-80010000D03*
X134620000Y-64770000D03*
X162560000Y-80010000D03*
X137160000Y-64770000D03*
X160020000Y-80010000D03*
X139700000Y-64770000D03*
X157480000Y-80010000D03*
X142240000Y-64770000D03*
X154940000Y-80010000D03*
X144780000Y-64770000D03*
X152400000Y-80010000D03*
X147320000Y-64770000D03*
X149860000Y-80010000D03*
X149860000Y-64770000D03*
X147320000Y-80010000D03*
X152400000Y-64770000D03*
X144780000Y-80010000D03*
X154940000Y-64770000D03*
X142240000Y-80010000D03*
X157480000Y-64770000D03*
X139700000Y-80010000D03*
X160020000Y-64770000D03*
X137160000Y-80010000D03*
X162560000Y-64770000D03*
X134620000Y-80010000D03*
X165100000Y-64770000D03*
X132080000Y-80010000D03*
X167640000Y-64770000D03*
X129540000Y-80010000D03*
X170180000Y-64770000D03*
X127000000Y-80010000D03*
X172720000Y-64770000D03*
D11*
X124460000Y-80010000D03*
%TD*%
D10*
%TO.C,U3*%
X115570000Y-95250000D03*
X100330000Y-87630000D03*
X113030000Y-95250000D03*
X102870000Y-87630000D03*
X110490000Y-95250000D03*
X105410000Y-87630000D03*
X107950000Y-95250000D03*
X107950000Y-87630000D03*
X105410000Y-95250000D03*
X110490000Y-87630000D03*
X102870000Y-95250000D03*
X113030000Y-87630000D03*
X100330000Y-95250000D03*
D11*
X115570000Y-87630000D03*
%TD*%
D10*
%TO.C,U2*%
X123190000Y-109220000D03*
X100330000Y-101600000D03*
X120650000Y-109220000D03*
X102870000Y-101600000D03*
X118110000Y-109220000D03*
X105410000Y-101600000D03*
X115570000Y-109220000D03*
X107950000Y-101600000D03*
X113030000Y-109220000D03*
X110490000Y-101600000D03*
X110490000Y-109220000D03*
X113030000Y-101600000D03*
X107950000Y-109220000D03*
X115570000Y-101600000D03*
X105410000Y-109220000D03*
X118110000Y-101600000D03*
X102870000Y-109220000D03*
X120650000Y-101600000D03*
X100330000Y-109220000D03*
D11*
X123190000Y-101600000D03*
%TD*%
D10*
%TO.C,U1*%
X123190000Y-124460000D03*
X100330000Y-116840000D03*
X120650000Y-124460000D03*
X102870000Y-116840000D03*
X118110000Y-124460000D03*
X105410000Y-116840000D03*
X115570000Y-124460000D03*
X107950000Y-116840000D03*
X113030000Y-124460000D03*
X110490000Y-116840000D03*
X110490000Y-124460000D03*
X113030000Y-116840000D03*
X107950000Y-124460000D03*
X115570000Y-116840000D03*
X105410000Y-124460000D03*
X118110000Y-116840000D03*
X102870000Y-124460000D03*
X120650000Y-116840000D03*
X100330000Y-124460000D03*
D11*
X123190000Y-116840000D03*
%TD*%
D12*
%TO.C,X1*%
X116840000Y-65405000D03*
X116840000Y-57785000D03*
X101600000Y-57785000D03*
D11*
X101600000Y-65405000D03*
%TD*%
D13*
%TO.C,SW1*%
X99695000Y-74295000D03*
X106195000Y-74295000D03*
X99695000Y-78795000D03*
X106195000Y-78795000D03*
%TD*%
D10*
%TO.C,R4*%
X144780000Y-61595000D03*
D12*
X134620000Y-61595000D03*
%TD*%
D10*
%TO.C,R3*%
X147320000Y-83820000D03*
D12*
X137160000Y-83820000D03*
%TD*%
D10*
%TO.C,R2*%
X109855000Y-83185000D03*
D12*
X109855000Y-73025000D03*
%TD*%
D10*
%TO.C,R1*%
X117475000Y-73025000D03*
D12*
X117475000Y-83185000D03*
%TD*%
D14*
%TO.C,J5*%
X212725000Y-140970000D03*
D15*
X210185000Y-140970000D03*
%TD*%
D14*
%TO.C,J4*%
X201930000Y-140970000D03*
X199390000Y-140970000D03*
X196850000Y-140970000D03*
X194310000Y-140970000D03*
D15*
X191770000Y-140970000D03*
%TD*%
D14*
%TO.C,J3*%
X187960000Y-140970000D03*
X185420000Y-140970000D03*
X182880000Y-140970000D03*
X180340000Y-140970000D03*
X177800000Y-140970000D03*
X175260000Y-140970000D03*
X172720000Y-140970000D03*
X170180000Y-140970000D03*
X167640000Y-140970000D03*
X165100000Y-140970000D03*
X162560000Y-140970000D03*
X160020000Y-140970000D03*
X157480000Y-140970000D03*
X154940000Y-140970000D03*
X152400000Y-140970000D03*
X149860000Y-140970000D03*
X147320000Y-140970000D03*
D15*
X144780000Y-140970000D03*
%TD*%
D14*
%TO.C,J2*%
X231775000Y-140970000D03*
X229235000Y-140970000D03*
X226695000Y-140970000D03*
X224155000Y-140970000D03*
D15*
X221615000Y-140970000D03*
%TD*%
D14*
%TO.C,J1*%
X135890000Y-140970000D03*
X133350000Y-140970000D03*
X130810000Y-140970000D03*
X128270000Y-140970000D03*
X125730000Y-140970000D03*
X123190000Y-140970000D03*
X120650000Y-140970000D03*
X118110000Y-140970000D03*
X115570000Y-140970000D03*
X113030000Y-140970000D03*
X110490000Y-140970000D03*
X107950000Y-140970000D03*
D15*
X105410000Y-140970000D03*
%TD*%
D16*
%TO.C,C5*%
X251340000Y-136525000D03*
D17*
X243840000Y-136525000D03*
%TD*%
D16*
%TO.C,C1*%
X254515000Y-88900000D03*
D17*
X247015000Y-88900000D03*
%TD*%
M02*
