%FSLAX45Y45*%
G04 Gerber Fmt 4.5, Leading zero omitted, Abs format (unit mm)*
G04 Created by KiCad (PCBNEW 5.1.12-84ad8e8a86~92~ubuntu18.04.1) date 2022-01-22 16:22:56*
%MOMM*%
%LPD*%
G01*
G04 APERTURE LIST*
%TA.AperFunction,Profile*%
%ADD10C,0.100000*%
%TD*%
%ADD11C,0.200000*%
%ADD12C,0.300000*%
G04 APERTURE END LIST*
D10*
X26225500Y-5334000D02*
X26225500Y-14668500D01*
X9652000Y-5334000D02*
X26225500Y-5334000D01*
X9652000Y-14668500D02*
X9652000Y-5334000D01*
X26225500Y-14668500D02*
X9652000Y-14668500D01*
D11*
X9697000Y-9940601D02*
X9737000Y-9980601D01*
X9737000Y-9940601D02*
X9697000Y-9980601D01*
X9697000Y-14583500D02*
X9737000Y-14623500D01*
X9737000Y-14583500D02*
X9697000Y-14623500D01*
X9769500Y-12045000D02*
X9809500Y-12085000D01*
X9809500Y-12045000D02*
X9769500Y-12085000D01*
X9795986Y-9958500D02*
X9835986Y-9998500D01*
X9835986Y-9958500D02*
X9795986Y-9998500D01*
X9822500Y-12807000D02*
X9862500Y-12847000D01*
X9862500Y-12807000D02*
X9822500Y-12847000D01*
X9822500Y-14077000D02*
X9862500Y-14117000D01*
X9862500Y-14077000D02*
X9822500Y-14117000D01*
X9831500Y-9759000D02*
X9871500Y-9799000D01*
X9871500Y-9759000D02*
X9831500Y-9799000D01*
X9886000Y-11918000D02*
X9926000Y-11958000D01*
X9926000Y-11918000D02*
X9886000Y-11958000D01*
X9886000Y-12117500D02*
X9926000Y-12157500D01*
X9926000Y-12117500D02*
X9886000Y-12157500D01*
X10013000Y-13442000D02*
X10053000Y-13482000D01*
X10053000Y-13442000D02*
X10013000Y-13482000D01*
X10076500Y-13696000D02*
X10116500Y-13736000D01*
X10116500Y-13696000D02*
X10076500Y-13736000D01*
X10267000Y-11219500D02*
X10307000Y-11259500D01*
X10307000Y-11219500D02*
X10267000Y-11259500D01*
X10267000Y-11401000D02*
X10307000Y-11441000D01*
X10307000Y-11401000D02*
X10267000Y-11441000D01*
X10267000Y-12172000D02*
X10307000Y-12212000D01*
X10307000Y-12172000D02*
X10267000Y-12212000D01*
X10413515Y-12215985D02*
X10453515Y-12255985D01*
X10453515Y-12215985D02*
X10413515Y-12255985D01*
X10476000Y-13823000D02*
X10516000Y-13863000D01*
X10516000Y-13823000D02*
X10476000Y-13863000D01*
X10521000Y-12235500D02*
X10561000Y-12275500D01*
X10561000Y-12235500D02*
X10521000Y-12275500D01*
X10521000Y-12680000D02*
X10561000Y-12720000D01*
X10561000Y-12680000D02*
X10521000Y-12720000D01*
X10584500Y-9632000D02*
X10624500Y-9672000D01*
X10624500Y-9632000D02*
X10584500Y-9672000D01*
X10648000Y-11972500D02*
X10688000Y-12012500D01*
X10688000Y-11972500D02*
X10648000Y-12012500D01*
X10775000Y-9759000D02*
X10815000Y-9799000D01*
X10815000Y-9759000D02*
X10775000Y-9799000D01*
X10775000Y-11473500D02*
X10815000Y-11513500D01*
X10815000Y-11473500D02*
X10775000Y-11513500D01*
X10775000Y-12045000D02*
X10815000Y-12085000D01*
X10815000Y-12045000D02*
X10775000Y-12085000D01*
X10775000Y-14511000D02*
X10815000Y-14551000D01*
X10815000Y-14511000D02*
X10775000Y-14551000D01*
X10789500Y-12694500D02*
X10829500Y-12734500D01*
X10829500Y-12694500D02*
X10789500Y-12734500D01*
X10838500Y-9958500D02*
X10878500Y-9998500D01*
X10878500Y-9958500D02*
X10838500Y-9998500D01*
X10965500Y-14511000D02*
X11005500Y-14551000D01*
X11005500Y-14511000D02*
X10965500Y-14551000D01*
X11029000Y-9060500D02*
X11069000Y-9100500D01*
X11069000Y-9060500D02*
X11029000Y-9100500D01*
X11029000Y-9759000D02*
X11069000Y-9799000D01*
X11069000Y-9759000D02*
X11029000Y-9799000D01*
X11029000Y-10457500D02*
X11069000Y-10497500D01*
X11069000Y-10457500D02*
X11029000Y-10497500D01*
X11029000Y-10584500D02*
X11069000Y-10624500D01*
X11069000Y-10584500D02*
X11029000Y-10624500D01*
X11029000Y-13251500D02*
X11069000Y-13291500D01*
X11069000Y-13251500D02*
X11029000Y-13291500D01*
X11283000Y-9187500D02*
X11323000Y-9227500D01*
X11323000Y-9187500D02*
X11283000Y-9227500D01*
X11346500Y-9813500D02*
X11386500Y-9853500D01*
X11386500Y-9813500D02*
X11346500Y-9853500D01*
X11346500Y-13523500D02*
X11386500Y-13563500D01*
X11386500Y-13523500D02*
X11346500Y-13563500D01*
X11537000Y-9780002D02*
X11577000Y-9820002D01*
X11577000Y-9780002D02*
X11537000Y-9820002D01*
X11537000Y-11092500D02*
X11577000Y-11132500D01*
X11577000Y-11092500D02*
X11537000Y-11132500D01*
X11537000Y-11346500D02*
X11577000Y-11386500D01*
X11577000Y-11346500D02*
X11537000Y-11386500D01*
X11555000Y-13106500D02*
X11595000Y-13146500D01*
X11595000Y-13106500D02*
X11555000Y-13146500D01*
X11664000Y-12807000D02*
X11704000Y-12847000D01*
X11704000Y-12807000D02*
X11664000Y-12847000D01*
X11664000Y-14267500D02*
X11704000Y-14307500D01*
X11704000Y-14267500D02*
X11664000Y-14307500D01*
X11791000Y-13251500D02*
X11831000Y-13291500D01*
X11831000Y-13251500D02*
X11791000Y-13291500D01*
X11918000Y-8108000D02*
X11958000Y-8148000D01*
X11958000Y-8108000D02*
X11918000Y-8148000D01*
X11918000Y-14394500D02*
X11958000Y-14434500D01*
X11958000Y-14394500D02*
X11918000Y-14434500D01*
X12045000Y-9958500D02*
X12085000Y-9998500D01*
X12085000Y-9958500D02*
X12045000Y-9998500D01*
X12045000Y-11283000D02*
X12085000Y-11323000D01*
X12085000Y-11283000D02*
X12045000Y-11323000D01*
X12045000Y-13823000D02*
X12085000Y-13863000D01*
X12085000Y-13823000D02*
X12045000Y-13863000D01*
X12129502Y-9780002D02*
X12169502Y-9820002D01*
X12169502Y-9780002D02*
X12129502Y-9820002D01*
X12299000Y-11283000D02*
X12339000Y-11323000D01*
X12339000Y-11283000D02*
X12299000Y-11323000D01*
X12362500Y-14458000D02*
X12402500Y-14498000D01*
X12402500Y-14458000D02*
X12362500Y-14498000D01*
X12489500Y-11283000D02*
X12529500Y-11323000D01*
X12529500Y-11283000D02*
X12489500Y-11323000D01*
X12544000Y-9958500D02*
X12584000Y-9998500D01*
X12584000Y-9958500D02*
X12544000Y-9998500D01*
X12553000Y-14511000D02*
X12593000Y-14551000D01*
X12593000Y-14511000D02*
X12553000Y-14551000D01*
X12634500Y-11600500D02*
X12674500Y-11640500D01*
X12674500Y-11600500D02*
X12634500Y-11640500D01*
X12807000Y-14583500D02*
X12847000Y-14623500D01*
X12847000Y-14583500D02*
X12807000Y-14623500D01*
X12997500Y-13523500D02*
X13037500Y-13563500D01*
X13037500Y-13523500D02*
X12997500Y-13563500D01*
X13125846Y-14206692D02*
X13165846Y-14246692D01*
X13165846Y-14206692D02*
X13125846Y-14246692D01*
X13188000Y-11210500D02*
X13228000Y-11250500D01*
X13228000Y-11210500D02*
X13188000Y-11250500D01*
X13315000Y-9378000D02*
X13355000Y-9418000D01*
X13355000Y-9378000D02*
X13315000Y-9418000D01*
X13378500Y-12235500D02*
X13418500Y-12275500D01*
X13418500Y-12235500D02*
X13378500Y-12275500D01*
X13520000Y-12157500D02*
X13560000Y-12197500D01*
X13560000Y-12157500D02*
X13520000Y-12197500D01*
X13632500Y-11854500D02*
X13672500Y-11894500D01*
X13672500Y-11854500D02*
X13632500Y-11894500D01*
X13696000Y-9187500D02*
X13736000Y-9227500D01*
X13736000Y-9187500D02*
X13696000Y-9227500D01*
X13696000Y-10330500D02*
X13736000Y-10370500D01*
X13736000Y-10330500D02*
X13696000Y-10370500D01*
X13696000Y-11473500D02*
X13736000Y-11513500D01*
X13736000Y-11473500D02*
X13696000Y-11513500D01*
X13745000Y-12694500D02*
X13785000Y-12734500D01*
X13785000Y-12694500D02*
X13745000Y-12734500D01*
X13759500Y-12045000D02*
X13799500Y-12085000D01*
X13799500Y-12045000D02*
X13759500Y-12085000D01*
X13886500Y-8489000D02*
X13926500Y-8529000D01*
X13926500Y-8489000D02*
X13886500Y-8529000D01*
X13886500Y-11972500D02*
X13926500Y-12012500D01*
X13926500Y-11972500D02*
X13886500Y-12012500D01*
X13950000Y-10457500D02*
X13990000Y-10497500D01*
X13990000Y-10457500D02*
X13950000Y-10497500D01*
X13950000Y-10584500D02*
X13990000Y-10624500D01*
X13990000Y-10584500D02*
X13950000Y-10624500D01*
X14053500Y-12767000D02*
X14093500Y-12807000D01*
X14093500Y-12767000D02*
X14053500Y-12807000D01*
X14267500Y-12807000D02*
X14307500Y-12847000D01*
X14307500Y-12807000D02*
X14267500Y-12847000D01*
X14449000Y-12767000D02*
X14489000Y-12807000D01*
X14489000Y-12767000D02*
X14449000Y-12807000D01*
X14458000Y-9780002D02*
X14498000Y-9820002D01*
X14498000Y-9780002D02*
X14458000Y-9820002D01*
X14458000Y-14449000D02*
X14498000Y-14489000D01*
X14498000Y-14449000D02*
X14458000Y-14489000D01*
X14503500Y-11138000D02*
X14543500Y-11178000D01*
X14543500Y-11138000D02*
X14503500Y-11178000D01*
X14503500Y-13106500D02*
X14543500Y-13146500D01*
X14543500Y-13106500D02*
X14503500Y-13146500D01*
X14512500Y-11355500D02*
X14552500Y-11395500D01*
X14552500Y-11355500D02*
X14512500Y-11395500D01*
X14585000Y-14449000D02*
X14625000Y-14489000D01*
X14625000Y-14449000D02*
X14585000Y-14489000D01*
X14703000Y-10720500D02*
X14743000Y-10760500D01*
X14743000Y-10720500D02*
X14703000Y-10760500D01*
X14784500Y-13179000D02*
X14824500Y-13219000D01*
X14824500Y-13179000D02*
X14784500Y-13219000D01*
X14966000Y-14449000D02*
X15006000Y-14489000D01*
X15006000Y-14449000D02*
X14966000Y-14489000D01*
X15156500Y-14449000D02*
X15196500Y-14489000D01*
X15196500Y-14449000D02*
X15156500Y-14489000D01*
X15220000Y-11138000D02*
X15260000Y-11178000D01*
X15260000Y-11138000D02*
X15220000Y-11178000D01*
X15347000Y-14376500D02*
X15387000Y-14416500D01*
X15387000Y-14376500D02*
X15347000Y-14416500D01*
X15474000Y-11210500D02*
X15514000Y-11250500D01*
X15514000Y-11210500D02*
X15474000Y-11250500D01*
X15474000Y-11972500D02*
X15514000Y-12012500D01*
X15514000Y-11972500D02*
X15474000Y-12012500D01*
X15537500Y-9735001D02*
X15577500Y-9775001D01*
X15577500Y-9735001D02*
X15537500Y-9775001D01*
X15601000Y-14304000D02*
X15641000Y-14344000D01*
X15641000Y-14304000D02*
X15601000Y-14344000D01*
X15728000Y-13378500D02*
X15768000Y-13418500D01*
X15768000Y-13378500D02*
X15728000Y-13418500D01*
X15791500Y-12616500D02*
X15831500Y-12656500D01*
X15831500Y-12616500D02*
X15791500Y-12656500D01*
X15800500Y-13632500D02*
X15840500Y-13672500D01*
X15840500Y-13632500D02*
X15800500Y-13672500D01*
X15918500Y-13378500D02*
X15958500Y-13418500D01*
X15958500Y-13378500D02*
X15918500Y-13418500D01*
X15982000Y-9949500D02*
X16022000Y-9989500D01*
X16022000Y-9949500D02*
X15982000Y-9989500D01*
X16045500Y-11827500D02*
X16085500Y-11867500D01*
X16085500Y-11827500D02*
X16045500Y-11867500D01*
X16109000Y-9759000D02*
X16149000Y-9799000D01*
X16149000Y-9759000D02*
X16109000Y-9799000D01*
X16109000Y-10457500D02*
X16149000Y-10497500D01*
X16149000Y-10457500D02*
X16109000Y-10497500D01*
X16109000Y-10584500D02*
X16149000Y-10624500D01*
X16149000Y-10584500D02*
X16109000Y-10624500D01*
X16109000Y-11147000D02*
X16149000Y-11187000D01*
X16149000Y-11147000D02*
X16109000Y-11187000D01*
X16236000Y-9886000D02*
X16276000Y-9926000D01*
X16276000Y-9886000D02*
X16236000Y-9926000D01*
X16236000Y-11147000D02*
X16276000Y-11187000D01*
X16276000Y-11147000D02*
X16236000Y-11187000D01*
X16299500Y-12235500D02*
X16339500Y-12275500D01*
X16339500Y-12235500D02*
X16299500Y-12275500D01*
X16308500Y-10457500D02*
X16348500Y-10497500D01*
X16348500Y-10457500D02*
X16308500Y-10497500D01*
X16308500Y-10584500D02*
X16348500Y-10624500D01*
X16348500Y-10584500D02*
X16308500Y-10624500D01*
X16363000Y-10711500D02*
X16403000Y-10751500D01*
X16403000Y-10711500D02*
X16363000Y-10751500D01*
X16475500Y-12157500D02*
X16515500Y-12197500D01*
X16515500Y-12157500D02*
X16475500Y-12197500D01*
X16490000Y-9187500D02*
X16530000Y-9227500D01*
X16530000Y-9187500D02*
X16490000Y-9227500D01*
X16490000Y-11900000D02*
X16530000Y-11940000D01*
X16530000Y-11900000D02*
X16490000Y-11940000D01*
X16553500Y-12616500D02*
X16593500Y-12656500D01*
X16593500Y-12616500D02*
X16553500Y-12656500D01*
X16680500Y-10711500D02*
X16720500Y-10751500D01*
X16720500Y-10711500D02*
X16680500Y-10751500D01*
X16680500Y-12045000D02*
X16720500Y-12085000D01*
X16720500Y-12045000D02*
X16680500Y-12085000D01*
X16680500Y-12807000D02*
X16720500Y-12847000D01*
X16720500Y-12807000D02*
X16680500Y-12847000D01*
X16695000Y-12694500D02*
X16735000Y-12734500D01*
X16735000Y-12694500D02*
X16695000Y-12734500D01*
X16871000Y-10457500D02*
X16911000Y-10497500D01*
X16911000Y-10457500D02*
X16871000Y-10497500D01*
X16871000Y-10584500D02*
X16911000Y-10624500D01*
X16911000Y-10584500D02*
X16871000Y-10624500D01*
X16934500Y-9314500D02*
X16974500Y-9354500D01*
X16974500Y-9314500D02*
X16934500Y-9354500D01*
X16989000Y-11355500D02*
X17029000Y-11395500D01*
X17029000Y-11355500D02*
X16989000Y-11395500D01*
X16998000Y-12767000D02*
X17038000Y-12807000D01*
X17038000Y-12767000D02*
X16998000Y-12807000D01*
X17061500Y-8235000D02*
X17101500Y-8275000D01*
X17101500Y-8235000D02*
X17061500Y-8275000D01*
X17061500Y-9759000D02*
X17101500Y-9799000D01*
X17101500Y-9759000D02*
X17061500Y-9799000D01*
X17132211Y-9829711D02*
X17172211Y-9869711D01*
X17172211Y-9829711D02*
X17132211Y-9869711D01*
X17134000Y-8307500D02*
X17174000Y-8347500D01*
X17174000Y-8307500D02*
X17134000Y-8347500D01*
X17188500Y-7799500D02*
X17228500Y-7839500D01*
X17228500Y-7799500D02*
X17188500Y-7839500D01*
X17206500Y-8380000D02*
X17246500Y-8420000D01*
X17246500Y-8380000D02*
X17206500Y-8420000D01*
X17252000Y-9949500D02*
X17292000Y-9989500D01*
X17292000Y-9949500D02*
X17252000Y-9989500D01*
X17252000Y-12767000D02*
X17292000Y-12807000D01*
X17292000Y-12767000D02*
X17252000Y-12807000D01*
X17442500Y-11355500D02*
X17482500Y-11395500D01*
X17482500Y-11355500D02*
X17442500Y-11395500D01*
X17460500Y-13106500D02*
X17500500Y-13146500D01*
X17500500Y-13106500D02*
X17460500Y-13146500D01*
X17506000Y-9759000D02*
X17546000Y-9799000D01*
X17546000Y-9759000D02*
X17506000Y-9799000D01*
X17506000Y-14449000D02*
X17546000Y-14489000D01*
X17546000Y-14449000D02*
X17506000Y-14489000D01*
X17569500Y-11972500D02*
X17609500Y-12012500D01*
X17609500Y-11972500D02*
X17569500Y-12012500D01*
X17633000Y-11092500D02*
X17673000Y-11132500D01*
X17673000Y-11092500D02*
X17633000Y-11132500D01*
X17696500Y-13188000D02*
X17736500Y-13228000D01*
X17736500Y-13188000D02*
X17696500Y-13228000D01*
X17760000Y-14394500D02*
X17800000Y-14434500D01*
X17800000Y-14394500D02*
X17760000Y-14434500D01*
X17887000Y-10512000D02*
X17927000Y-10552000D01*
X17927000Y-10512000D02*
X17887000Y-10552000D01*
X17887000Y-10657000D02*
X17927000Y-10697000D01*
X17927000Y-10657000D02*
X17887000Y-10697000D01*
X18014000Y-14331000D02*
X18054000Y-14371000D01*
X18054000Y-14331000D02*
X18014000Y-14371000D01*
X18141000Y-8307500D02*
X18181000Y-8347500D01*
X18181000Y-8307500D02*
X18141000Y-8347500D01*
X18259000Y-10584500D02*
X18299000Y-10624500D01*
X18299000Y-10584500D02*
X18259000Y-10624500D01*
X18268000Y-13632500D02*
X18308000Y-13672500D01*
X18308000Y-13632500D02*
X18268000Y-13672500D01*
X18331500Y-11147000D02*
X18371500Y-11187000D01*
X18371500Y-11147000D02*
X18331500Y-11187000D01*
X18395000Y-5822000D02*
X18435000Y-5862000D01*
X18435000Y-5822000D02*
X18395000Y-5862000D01*
X18395000Y-6076000D02*
X18435000Y-6116000D01*
X18435000Y-6076000D02*
X18395000Y-6116000D01*
X18395000Y-8380000D02*
X18435000Y-8420000D01*
X18435000Y-8380000D02*
X18395000Y-8420000D01*
X18495000Y-6076000D02*
X18535000Y-6116000D01*
X18535000Y-6076000D02*
X18495000Y-6116000D01*
X18522000Y-5495500D02*
X18562000Y-5535500D01*
X18562000Y-5495500D02*
X18522000Y-5535500D01*
X18522000Y-10838500D02*
X18562000Y-10878500D01*
X18562000Y-10838500D02*
X18522000Y-10878500D01*
X18585500Y-8933500D02*
X18625500Y-8973500D01*
X18625500Y-8933500D02*
X18585500Y-8973500D01*
X18585500Y-9886000D02*
X18625500Y-9926000D01*
X18625500Y-9886000D02*
X18585500Y-9926000D01*
X18649000Y-8489000D02*
X18689000Y-8529000D01*
X18689000Y-8489000D02*
X18649000Y-8529000D01*
X18649000Y-10965500D02*
X18689000Y-11005500D01*
X18689000Y-10965500D02*
X18649000Y-11005500D01*
X18839500Y-8933500D02*
X18879500Y-8973500D01*
X18879500Y-8933500D02*
X18839500Y-8973500D01*
X18839500Y-9187500D02*
X18879500Y-9227500D01*
X18879500Y-9187500D02*
X18839500Y-9227500D01*
X18839500Y-13251500D02*
X18879500Y-13291500D01*
X18879500Y-13251500D02*
X18839500Y-13291500D01*
X18903000Y-5758500D02*
X18943000Y-5798500D01*
X18943000Y-5758500D02*
X18903000Y-5798500D01*
X18961773Y-8518197D02*
X19001773Y-8558197D01*
X19001773Y-8518197D02*
X18961773Y-8558197D01*
X18966500Y-9187500D02*
X19006500Y-9227500D01*
X19006500Y-9187500D02*
X18966500Y-9227500D01*
X19030000Y-7863000D02*
X19070000Y-7903000D01*
X19070000Y-7863000D02*
X19030000Y-7903000D01*
X19220500Y-8616000D02*
X19260500Y-8656000D01*
X19260500Y-8616000D02*
X19220500Y-8656000D01*
X19333000Y-12157500D02*
X19373000Y-12197500D01*
X19373000Y-12157500D02*
X19333000Y-12197500D01*
X19431316Y-12230000D02*
X19471316Y-12270000D01*
X19471316Y-12230000D02*
X19431316Y-12270000D01*
X19474500Y-7854000D02*
X19514500Y-7894000D01*
X19514500Y-7854000D02*
X19474500Y-7894000D01*
X19538000Y-8108000D02*
X19578000Y-8148000D01*
X19578000Y-8108000D02*
X19538000Y-8148000D01*
X19601500Y-12054000D02*
X19641500Y-12094000D01*
X19641500Y-12054000D02*
X19601500Y-12094000D01*
X19616000Y-12694500D02*
X19656000Y-12734500D01*
X19656000Y-12694500D02*
X19616000Y-12734500D01*
X19728500Y-9060500D02*
X19768500Y-9100500D01*
X19768500Y-9060500D02*
X19728500Y-9100500D01*
X19792000Y-7536500D02*
X19832000Y-7576500D01*
X19832000Y-7536500D02*
X19792000Y-7576500D01*
X19855500Y-7409500D02*
X19895500Y-7449500D01*
X19895500Y-7409500D02*
X19855500Y-7449500D01*
X19899485Y-8532985D02*
X19939485Y-8572985D01*
X19939485Y-8532985D02*
X19899485Y-8572985D01*
X19982500Y-9060500D02*
X20022500Y-9100500D01*
X20022500Y-9060500D02*
X19982500Y-9100500D01*
X20109500Y-7663500D02*
X20149500Y-7703500D01*
X20149500Y-7663500D02*
X20109500Y-7703500D01*
X20363500Y-11355500D02*
X20403500Y-11395500D01*
X20403500Y-11355500D02*
X20363500Y-11395500D01*
X20363500Y-13106500D02*
X20403500Y-13146500D01*
X20403500Y-13106500D02*
X20363500Y-13146500D01*
X20427000Y-7609000D02*
X20467000Y-7649000D01*
X20467000Y-7609000D02*
X20427000Y-7649000D01*
X20608500Y-13179000D02*
X20648500Y-13219000D01*
X20648500Y-13179000D02*
X20608500Y-13219000D01*
X20617500Y-8933500D02*
X20657500Y-8973500D01*
X20657500Y-8933500D02*
X20617500Y-8973500D01*
X20625015Y-9370485D02*
X20665015Y-9410485D01*
X20665015Y-9370485D02*
X20625015Y-9410485D01*
X21062000Y-12235500D02*
X21102000Y-12275500D01*
X21102000Y-12235500D02*
X21062000Y-12275500D01*
X21125500Y-9886000D02*
X21165500Y-9926000D01*
X21165500Y-9886000D02*
X21125500Y-9926000D01*
X21125500Y-10394000D02*
X21165500Y-10434000D01*
X21165500Y-10394000D02*
X21125500Y-10434000D01*
X21125500Y-14521500D02*
X21165500Y-14561500D01*
X21165500Y-14521500D02*
X21125500Y-14561500D01*
X21238000Y-9773500D02*
X21278000Y-9813500D01*
X21278000Y-9773500D02*
X21238000Y-9813500D01*
X21252500Y-10457500D02*
X21292500Y-10497500D01*
X21292500Y-10457500D02*
X21252500Y-10497500D01*
X21506500Y-9060500D02*
X21546500Y-9100500D01*
X21546500Y-9060500D02*
X21506500Y-9100500D01*
X21555769Y-12309238D02*
X21595769Y-12349238D01*
X21595769Y-12309238D02*
X21555769Y-12349238D01*
X21697000Y-9886000D02*
X21737000Y-9926000D01*
X21737000Y-9886000D02*
X21697000Y-9926000D01*
X21760500Y-12807000D02*
X21800500Y-12847000D01*
X21800500Y-12807000D02*
X21760500Y-12847000D01*
X22078000Y-8997000D02*
X22118000Y-9037000D01*
X22118000Y-8997000D02*
X22078000Y-9037000D01*
X22205000Y-5631500D02*
X22245000Y-5671500D01*
X22245000Y-5631500D02*
X22205000Y-5671500D01*
X22268500Y-12353500D02*
X22308500Y-12393500D01*
X22308500Y-12353500D02*
X22268500Y-12393500D01*
X22268500Y-12562000D02*
X22308500Y-12602000D01*
X22308500Y-12562000D02*
X22268500Y-12602000D01*
X22332000Y-7609000D02*
X22372000Y-7649000D01*
X22372000Y-7609000D02*
X22332000Y-7649000D01*
X22459000Y-8997000D02*
X22499000Y-9037000D01*
X22499000Y-8997000D02*
X22459000Y-9037000D01*
X22459000Y-10711500D02*
X22499000Y-10751500D01*
X22499000Y-10711500D02*
X22459000Y-10751500D01*
X22522500Y-12498500D02*
X22562500Y-12538500D01*
X22562500Y-12498500D02*
X22522500Y-12538500D01*
X22840000Y-5504500D02*
X22880000Y-5544500D01*
X22880000Y-5504500D02*
X22840000Y-5544500D01*
X23094000Y-5749500D02*
X23134000Y-5789500D01*
X23134000Y-5749500D02*
X23094000Y-5789500D01*
X23221000Y-5450000D02*
X23261000Y-5490000D01*
X23261000Y-5450000D02*
X23221000Y-5490000D01*
X23249005Y-8079995D02*
X23289005Y-8119995D01*
X23289005Y-8079995D02*
X23249005Y-8119995D01*
X23348000Y-7536500D02*
X23388000Y-7576500D01*
X23388000Y-7536500D02*
X23348000Y-7576500D01*
X23602000Y-7445500D02*
X23642000Y-7485500D01*
X23642000Y-7445500D02*
X23602000Y-7485500D01*
X23729000Y-8189500D02*
X23769000Y-8229500D01*
X23769000Y-8189500D02*
X23729000Y-8229500D01*
X23729000Y-8289500D02*
X23769000Y-8329500D01*
X23769000Y-8289500D02*
X23729000Y-8329500D01*
X23856000Y-7373000D02*
X23896000Y-7413000D01*
X23896000Y-7373000D02*
X23856000Y-7413000D01*
X23928500Y-8298500D02*
X23968500Y-8338500D01*
X23968500Y-8298500D02*
X23928500Y-8338500D01*
X23983000Y-13523500D02*
X24023000Y-13563500D01*
X24023000Y-13523500D02*
X23983000Y-13563500D01*
X24110000Y-7300500D02*
X24150000Y-7340500D01*
X24150000Y-7300500D02*
X24110000Y-7340500D01*
X24237000Y-5450000D02*
X24277000Y-5490000D01*
X24277000Y-5450000D02*
X24237000Y-5490000D01*
X24237000Y-9505000D02*
X24277000Y-9545000D01*
X24277000Y-9505000D02*
X24237000Y-9545000D01*
X24300500Y-13396500D02*
X24340500Y-13436500D01*
X24340500Y-13396500D02*
X24300500Y-13436500D01*
X24309500Y-5631500D02*
X24349500Y-5671500D01*
X24349500Y-5631500D02*
X24309500Y-5671500D01*
X24364000Y-5894500D02*
X24404000Y-5934500D01*
X24404000Y-5894500D02*
X24364000Y-5934500D01*
X24364000Y-7228000D02*
X24404000Y-7268000D01*
X24404000Y-7228000D02*
X24364000Y-7268000D01*
X24364000Y-8235000D02*
X24404000Y-8275000D01*
X24404000Y-8235000D02*
X24364000Y-8275000D01*
X24427500Y-13324000D02*
X24467500Y-13364000D01*
X24467500Y-13324000D02*
X24427500Y-13364000D01*
X24491000Y-5749500D02*
X24531000Y-5789500D01*
X24531000Y-5749500D02*
X24491000Y-5789500D01*
X24491000Y-9124000D02*
X24531000Y-9164000D01*
X24531000Y-9124000D02*
X24491000Y-9164000D01*
X24491000Y-13188000D02*
X24531000Y-13228000D01*
X24531000Y-13188000D02*
X24491000Y-13228000D01*
X24999000Y-5631500D02*
X25039000Y-5671500D01*
X25039000Y-5631500D02*
X24999000Y-5671500D01*
X25253000Y-6203000D02*
X25293000Y-6243000D01*
X25293000Y-6203000D02*
X25253000Y-6243000D01*
X25260656Y-9624344D02*
X25300656Y-9664344D01*
X25300656Y-9624344D02*
X25260656Y-9664344D01*
X25371000Y-7663500D02*
X25411000Y-7703500D01*
X25411000Y-7663500D02*
X25371000Y-7703500D01*
X25507000Y-8235000D02*
X25547000Y-8275000D01*
X25547000Y-8235000D02*
X25507000Y-8275000D01*
X25698844Y-10711500D02*
X25738844Y-10751500D01*
X25738844Y-10711500D02*
X25698844Y-10751500D01*
X25771344Y-11092500D02*
X25811344Y-11132500D01*
X25811344Y-11092500D02*
X25771344Y-11132500D01*
X10073000Y-8763000D02*
G75*
G03*
X10073000Y-8763000I-40000J0D01*
G01*
X10073000Y-9525000D02*
G75*
G03*
X10073000Y-9525000I-40000J0D01*
G01*
X10073000Y-10160000D02*
G75*
G03*
X10073000Y-10160000I-40000J0D01*
G01*
X10073000Y-10922000D02*
G75*
G03*
X10073000Y-10922000I-40000J0D01*
G01*
X10073000Y-11684000D02*
G75*
G03*
X10073000Y-11684000I-40000J0D01*
G01*
X10073000Y-12446000D02*
G75*
G03*
X10073000Y-12446000I-40000J0D01*
G01*
X10200000Y-5778500D02*
G75*
G03*
X10200000Y-5778500I-40000J0D01*
G01*
X10200000Y-6540500D02*
G75*
G03*
X10200000Y-6540500I-40000J0D01*
G01*
X10327000Y-8763000D02*
G75*
G03*
X10327000Y-8763000I-40000J0D01*
G01*
X10327000Y-9525000D02*
G75*
G03*
X10327000Y-9525000I-40000J0D01*
G01*
X10327000Y-10160000D02*
G75*
G03*
X10327000Y-10160000I-40000J0D01*
G01*
X10327000Y-10922000D02*
G75*
G03*
X10327000Y-10922000I-40000J0D01*
G01*
X10327000Y-11684000D02*
G75*
G03*
X10327000Y-11684000I-40000J0D01*
G01*
X10327000Y-12446000D02*
G75*
G03*
X10327000Y-12446000I-40000J0D01*
G01*
X10581000Y-8763000D02*
G75*
G03*
X10581000Y-8763000I-40000J0D01*
G01*
X10581000Y-9525000D02*
G75*
G03*
X10581000Y-9525000I-40000J0D01*
G01*
X10581000Y-10160000D02*
G75*
G03*
X10581000Y-10160000I-40000J0D01*
G01*
X10581000Y-10922000D02*
G75*
G03*
X10581000Y-10922000I-40000J0D01*
G01*
X10581000Y-11684000D02*
G75*
G03*
X10581000Y-11684000I-40000J0D01*
G01*
X10581000Y-12446000D02*
G75*
G03*
X10581000Y-12446000I-40000J0D01*
G01*
X10835000Y-8763000D02*
G75*
G03*
X10835000Y-8763000I-40000J0D01*
G01*
X10835000Y-9525000D02*
G75*
G03*
X10835000Y-9525000I-40000J0D01*
G01*
X10835000Y-10160000D02*
G75*
G03*
X10835000Y-10160000I-40000J0D01*
G01*
X10835000Y-10922000D02*
G75*
G03*
X10835000Y-10922000I-40000J0D01*
G01*
X10835000Y-11684000D02*
G75*
G03*
X10835000Y-11684000I-40000J0D01*
G01*
X10835000Y-12446000D02*
G75*
G03*
X10835000Y-12446000I-40000J0D01*
G01*
X11025500Y-7302500D02*
G75*
G03*
X11025500Y-7302500I-40000J0D01*
G01*
X11025500Y-8318500D02*
G75*
G03*
X11025500Y-8318500I-40000J0D01*
G01*
X11089000Y-8763000D02*
G75*
G03*
X11089000Y-8763000I-40000J0D01*
G01*
X11089000Y-9525000D02*
G75*
G03*
X11089000Y-9525000I-40000J0D01*
G01*
X11089000Y-10160000D02*
G75*
G03*
X11089000Y-10160000I-40000J0D01*
G01*
X11089000Y-10922000D02*
G75*
G03*
X11089000Y-10922000I-40000J0D01*
G01*
X11089000Y-11684000D02*
G75*
G03*
X11089000Y-11684000I-40000J0D01*
G01*
X11089000Y-12446000D02*
G75*
G03*
X11089000Y-12446000I-40000J0D01*
G01*
X11343000Y-8763000D02*
G75*
G03*
X11343000Y-8763000I-40000J0D01*
G01*
X11343000Y-9525000D02*
G75*
G03*
X11343000Y-9525000I-40000J0D01*
G01*
X11343000Y-10160000D02*
G75*
G03*
X11343000Y-10160000I-40000J0D01*
G01*
X11343000Y-10922000D02*
G75*
G03*
X11343000Y-10922000I-40000J0D01*
G01*
X11343000Y-11684000D02*
G75*
G03*
X11343000Y-11684000I-40000J0D01*
G01*
X11343000Y-12446000D02*
G75*
G03*
X11343000Y-12446000I-40000J0D01*
G01*
X11597000Y-8763000D02*
G75*
G03*
X11597000Y-8763000I-40000J0D01*
G01*
X11597000Y-9525000D02*
G75*
G03*
X11597000Y-9525000I-40000J0D01*
G01*
X11597000Y-10160000D02*
G75*
G03*
X11597000Y-10160000I-40000J0D01*
G01*
X11597000Y-10922000D02*
G75*
G03*
X11597000Y-10922000I-40000J0D01*
G01*
X11597000Y-11684000D02*
G75*
G03*
X11597000Y-11684000I-40000J0D01*
G01*
X11597000Y-12446000D02*
G75*
G03*
X11597000Y-12446000I-40000J0D01*
G01*
X11724000Y-5778500D02*
G75*
G03*
X11724000Y-5778500I-40000J0D01*
G01*
X11724000Y-6540500D02*
G75*
G03*
X11724000Y-6540500I-40000J0D01*
G01*
X11787500Y-7302500D02*
G75*
G03*
X11787500Y-7302500I-40000J0D01*
G01*
X11787500Y-8318500D02*
G75*
G03*
X11787500Y-8318500I-40000J0D01*
G01*
X11851000Y-10160000D02*
G75*
G03*
X11851000Y-10160000I-40000J0D01*
G01*
X11851000Y-10922000D02*
G75*
G03*
X11851000Y-10922000I-40000J0D01*
G01*
X11851000Y-11684000D02*
G75*
G03*
X11851000Y-11684000I-40000J0D01*
G01*
X11851000Y-12446000D02*
G75*
G03*
X11851000Y-12446000I-40000J0D01*
G01*
X12105000Y-10160000D02*
G75*
G03*
X12105000Y-10160000I-40000J0D01*
G01*
X12105000Y-10922000D02*
G75*
G03*
X12105000Y-10922000I-40000J0D01*
G01*
X12105000Y-11684000D02*
G75*
G03*
X12105000Y-11684000I-40000J0D01*
G01*
X12105000Y-12446000D02*
G75*
G03*
X12105000Y-12446000I-40000J0D01*
G01*
X12232000Y-8763000D02*
G75*
G03*
X12232000Y-8763000I-40000J0D01*
G01*
X12232000Y-9525000D02*
G75*
G03*
X12232000Y-9525000I-40000J0D01*
G01*
X12359000Y-10160000D02*
G75*
G03*
X12359000Y-10160000I-40000J0D01*
G01*
X12359000Y-10922000D02*
G75*
G03*
X12359000Y-10922000I-40000J0D01*
G01*
X12359000Y-11684000D02*
G75*
G03*
X12359000Y-11684000I-40000J0D01*
G01*
X12359000Y-12446000D02*
G75*
G03*
X12359000Y-12446000I-40000J0D01*
G01*
X12486000Y-6477000D02*
G75*
G03*
X12486000Y-6477000I-40000J0D01*
G01*
X12486000Y-8001000D02*
G75*
G03*
X12486000Y-8001000I-40000J0D01*
G01*
X12486000Y-8763000D02*
G75*
G03*
X12486000Y-8763000I-40000J0D01*
G01*
X12486000Y-9525000D02*
G75*
G03*
X12486000Y-9525000I-40000J0D01*
G01*
X12740000Y-6477000D02*
G75*
G03*
X12740000Y-6477000I-40000J0D01*
G01*
X12740000Y-8001000D02*
G75*
G03*
X12740000Y-8001000I-40000J0D01*
G01*
X12740000Y-8763000D02*
G75*
G03*
X12740000Y-8763000I-40000J0D01*
G01*
X12740000Y-9525000D02*
G75*
G03*
X12740000Y-9525000I-40000J0D01*
G01*
X12994000Y-6477000D02*
G75*
G03*
X12994000Y-6477000I-40000J0D01*
G01*
X12994000Y-8001000D02*
G75*
G03*
X12994000Y-8001000I-40000J0D01*
G01*
X12994000Y-8763000D02*
G75*
G03*
X12994000Y-8763000I-40000J0D01*
G01*
X12994000Y-9525000D02*
G75*
G03*
X12994000Y-9525000I-40000J0D01*
G01*
X12994000Y-10160000D02*
G75*
G03*
X12994000Y-10160000I-40000J0D01*
G01*
X12994000Y-10922000D02*
G75*
G03*
X12994000Y-10922000I-40000J0D01*
G01*
X13057500Y-11684000D02*
G75*
G03*
X13057500Y-11684000I-40000J0D01*
G01*
X13057500Y-12446000D02*
G75*
G03*
X13057500Y-12446000I-40000J0D01*
G01*
X13248000Y-6477000D02*
G75*
G03*
X13248000Y-6477000I-40000J0D01*
G01*
X13248000Y-8001000D02*
G75*
G03*
X13248000Y-8001000I-40000J0D01*
G01*
X13248000Y-8763000D02*
G75*
G03*
X13248000Y-8763000I-40000J0D01*
G01*
X13248000Y-9525000D02*
G75*
G03*
X13248000Y-9525000I-40000J0D01*
G01*
X13248000Y-10160000D02*
G75*
G03*
X13248000Y-10160000I-40000J0D01*
G01*
X13248000Y-10922000D02*
G75*
G03*
X13248000Y-10922000I-40000J0D01*
G01*
X13311500Y-11684000D02*
G75*
G03*
X13311500Y-11684000I-40000J0D01*
G01*
X13311500Y-12446000D02*
G75*
G03*
X13311500Y-12446000I-40000J0D01*
G01*
X13502000Y-6159500D02*
G75*
G03*
X13502000Y-6159500I-40000J0D01*
G01*
X13502000Y-6477000D02*
G75*
G03*
X13502000Y-6477000I-40000J0D01*
G01*
X13502000Y-8001000D02*
G75*
G03*
X13502000Y-8001000I-40000J0D01*
G01*
X13502000Y-8763000D02*
G75*
G03*
X13502000Y-8763000I-40000J0D01*
G01*
X13502000Y-9525000D02*
G75*
G03*
X13502000Y-9525000I-40000J0D01*
G01*
X13502000Y-10160000D02*
G75*
G03*
X13502000Y-10160000I-40000J0D01*
G01*
X13502000Y-10922000D02*
G75*
G03*
X13502000Y-10922000I-40000J0D01*
G01*
X13565500Y-11684000D02*
G75*
G03*
X13565500Y-11684000I-40000J0D01*
G01*
X13565500Y-12446000D02*
G75*
G03*
X13565500Y-12446000I-40000J0D01*
G01*
X13756000Y-6477000D02*
G75*
G03*
X13756000Y-6477000I-40000J0D01*
G01*
X13756000Y-8001000D02*
G75*
G03*
X13756000Y-8001000I-40000J0D01*
G01*
X13756000Y-8382000D02*
G75*
G03*
X13756000Y-8382000I-40000J0D01*
G01*
X13756000Y-8763000D02*
G75*
G03*
X13756000Y-8763000I-40000J0D01*
G01*
X13756000Y-9525000D02*
G75*
G03*
X13756000Y-9525000I-40000J0D01*
G01*
X13756000Y-10160000D02*
G75*
G03*
X13756000Y-10160000I-40000J0D01*
G01*
X13756000Y-10922000D02*
G75*
G03*
X13756000Y-10922000I-40000J0D01*
G01*
X13819500Y-11684000D02*
G75*
G03*
X13819500Y-11684000I-40000J0D01*
G01*
X13819500Y-12446000D02*
G75*
G03*
X13819500Y-12446000I-40000J0D01*
G01*
X14010000Y-6477000D02*
G75*
G03*
X14010000Y-6477000I-40000J0D01*
G01*
X14010000Y-8001000D02*
G75*
G03*
X14010000Y-8001000I-40000J0D01*
G01*
X14010000Y-10160000D02*
G75*
G03*
X14010000Y-10160000I-40000J0D01*
G01*
X14010000Y-10922000D02*
G75*
G03*
X14010000Y-10922000I-40000J0D01*
G01*
X14073500Y-11684000D02*
G75*
G03*
X14073500Y-11684000I-40000J0D01*
G01*
X14073500Y-12446000D02*
G75*
G03*
X14073500Y-12446000I-40000J0D01*
G01*
X14264000Y-6477000D02*
G75*
G03*
X14264000Y-6477000I-40000J0D01*
G01*
X14264000Y-8001000D02*
G75*
G03*
X14264000Y-8001000I-40000J0D01*
G01*
X14264000Y-10160000D02*
G75*
G03*
X14264000Y-10160000I-40000J0D01*
G01*
X14264000Y-10922000D02*
G75*
G03*
X14264000Y-10922000I-40000J0D01*
G01*
X14327500Y-11684000D02*
G75*
G03*
X14327500Y-11684000I-40000J0D01*
G01*
X14327500Y-12446000D02*
G75*
G03*
X14327500Y-12446000I-40000J0D01*
G01*
X14454500Y-8763000D02*
G75*
G03*
X14454500Y-8763000I-40000J0D01*
G01*
X14454500Y-9525000D02*
G75*
G03*
X14454500Y-9525000I-40000J0D01*
G01*
X14518000Y-6159500D02*
G75*
G03*
X14518000Y-6159500I-40000J0D01*
G01*
X14518000Y-6477000D02*
G75*
G03*
X14518000Y-6477000I-40000J0D01*
G01*
X14518000Y-8001000D02*
G75*
G03*
X14518000Y-8001000I-40000J0D01*
G01*
X14518000Y-10160000D02*
G75*
G03*
X14518000Y-10160000I-40000J0D01*
G01*
X14518000Y-10922000D02*
G75*
G03*
X14518000Y-10922000I-40000J0D01*
G01*
X14581500Y-11684000D02*
G75*
G03*
X14581500Y-11684000I-40000J0D01*
G01*
X14581500Y-12446000D02*
G75*
G03*
X14581500Y-12446000I-40000J0D01*
G01*
X14708500Y-8763000D02*
G75*
G03*
X14708500Y-8763000I-40000J0D01*
G01*
X14708500Y-9525000D02*
G75*
G03*
X14708500Y-9525000I-40000J0D01*
G01*
X14772000Y-6477000D02*
G75*
G03*
X14772000Y-6477000I-40000J0D01*
G01*
X14772000Y-8001000D02*
G75*
G03*
X14772000Y-8001000I-40000J0D01*
G01*
X14772000Y-8382000D02*
G75*
G03*
X14772000Y-8382000I-40000J0D01*
G01*
X14772000Y-10160000D02*
G75*
G03*
X14772000Y-10160000I-40000J0D01*
G01*
X14772000Y-10922000D02*
G75*
G03*
X14772000Y-10922000I-40000J0D01*
G01*
X14835500Y-11684000D02*
G75*
G03*
X14835500Y-11684000I-40000J0D01*
G01*
X14835500Y-12446000D02*
G75*
G03*
X14835500Y-12446000I-40000J0D01*
G01*
X14962500Y-8763000D02*
G75*
G03*
X14962500Y-8763000I-40000J0D01*
G01*
X14962500Y-9525000D02*
G75*
G03*
X14962500Y-9525000I-40000J0D01*
G01*
X15026000Y-6477000D02*
G75*
G03*
X15026000Y-6477000I-40000J0D01*
G01*
X15026000Y-8001000D02*
G75*
G03*
X15026000Y-8001000I-40000J0D01*
G01*
X15026000Y-10160000D02*
G75*
G03*
X15026000Y-10160000I-40000J0D01*
G01*
X15026000Y-10922000D02*
G75*
G03*
X15026000Y-10922000I-40000J0D01*
G01*
X15089500Y-11684000D02*
G75*
G03*
X15089500Y-11684000I-40000J0D01*
G01*
X15089500Y-12446000D02*
G75*
G03*
X15089500Y-12446000I-40000J0D01*
G01*
X15216500Y-8763000D02*
G75*
G03*
X15216500Y-8763000I-40000J0D01*
G01*
X15216500Y-9525000D02*
G75*
G03*
X15216500Y-9525000I-40000J0D01*
G01*
X15280000Y-6477000D02*
G75*
G03*
X15280000Y-6477000I-40000J0D01*
G01*
X15280000Y-8001000D02*
G75*
G03*
X15280000Y-8001000I-40000J0D01*
G01*
X15280000Y-10160000D02*
G75*
G03*
X15280000Y-10160000I-40000J0D01*
G01*
X15280000Y-10922000D02*
G75*
G03*
X15280000Y-10922000I-40000J0D01*
G01*
X15343500Y-11684000D02*
G75*
G03*
X15343500Y-11684000I-40000J0D01*
G01*
X15343500Y-12446000D02*
G75*
G03*
X15343500Y-12446000I-40000J0D01*
G01*
X15470500Y-8763000D02*
G75*
G03*
X15470500Y-8763000I-40000J0D01*
G01*
X15470500Y-9525000D02*
G75*
G03*
X15470500Y-9525000I-40000J0D01*
G01*
X15534000Y-6477000D02*
G75*
G03*
X15534000Y-6477000I-40000J0D01*
G01*
X15534000Y-8001000D02*
G75*
G03*
X15534000Y-8001000I-40000J0D01*
G01*
X15724500Y-8763000D02*
G75*
G03*
X15724500Y-8763000I-40000J0D01*
G01*
X15724500Y-9525000D02*
G75*
G03*
X15724500Y-9525000I-40000J0D01*
G01*
X15788000Y-6477000D02*
G75*
G03*
X15788000Y-6477000I-40000J0D01*
G01*
X15788000Y-8001000D02*
G75*
G03*
X15788000Y-8001000I-40000J0D01*
G01*
X15915000Y-10160000D02*
G75*
G03*
X15915000Y-10160000I-40000J0D01*
G01*
X15915000Y-10922000D02*
G75*
G03*
X15915000Y-10922000I-40000J0D01*
G01*
X15978500Y-8763000D02*
G75*
G03*
X15978500Y-8763000I-40000J0D01*
G01*
X15978500Y-9525000D02*
G75*
G03*
X15978500Y-9525000I-40000J0D01*
G01*
X15978500Y-11684000D02*
G75*
G03*
X15978500Y-11684000I-40000J0D01*
G01*
X15978500Y-12446000D02*
G75*
G03*
X15978500Y-12446000I-40000J0D01*
G01*
X16042000Y-6477000D02*
G75*
G03*
X16042000Y-6477000I-40000J0D01*
G01*
X16042000Y-8001000D02*
G75*
G03*
X16042000Y-8001000I-40000J0D01*
G01*
X16169000Y-10160000D02*
G75*
G03*
X16169000Y-10160000I-40000J0D01*
G01*
X16169000Y-10922000D02*
G75*
G03*
X16169000Y-10922000I-40000J0D01*
G01*
X16232500Y-8763000D02*
G75*
G03*
X16232500Y-8763000I-40000J0D01*
G01*
X16232500Y-9525000D02*
G75*
G03*
X16232500Y-9525000I-40000J0D01*
G01*
X16232500Y-11684000D02*
G75*
G03*
X16232500Y-11684000I-40000J0D01*
G01*
X16232500Y-12446000D02*
G75*
G03*
X16232500Y-12446000I-40000J0D01*
G01*
X16296000Y-6477000D02*
G75*
G03*
X16296000Y-6477000I-40000J0D01*
G01*
X16296000Y-8001000D02*
G75*
G03*
X16296000Y-8001000I-40000J0D01*
G01*
X16423000Y-10160000D02*
G75*
G03*
X16423000Y-10160000I-40000J0D01*
G01*
X16423000Y-10922000D02*
G75*
G03*
X16423000Y-10922000I-40000J0D01*
G01*
X16486500Y-8763000D02*
G75*
G03*
X16486500Y-8763000I-40000J0D01*
G01*
X16486500Y-9525000D02*
G75*
G03*
X16486500Y-9525000I-40000J0D01*
G01*
X16486500Y-11684000D02*
G75*
G03*
X16486500Y-11684000I-40000J0D01*
G01*
X16486500Y-12446000D02*
G75*
G03*
X16486500Y-12446000I-40000J0D01*
G01*
X16550000Y-6477000D02*
G75*
G03*
X16550000Y-6477000I-40000J0D01*
G01*
X16550000Y-8001000D02*
G75*
G03*
X16550000Y-8001000I-40000J0D01*
G01*
X16677000Y-10160000D02*
G75*
G03*
X16677000Y-10160000I-40000J0D01*
G01*
X16677000Y-10922000D02*
G75*
G03*
X16677000Y-10922000I-40000J0D01*
G01*
X16740500Y-8763000D02*
G75*
G03*
X16740500Y-8763000I-40000J0D01*
G01*
X16740500Y-9525000D02*
G75*
G03*
X16740500Y-9525000I-40000J0D01*
G01*
X16740500Y-11684000D02*
G75*
G03*
X16740500Y-11684000I-40000J0D01*
G01*
X16740500Y-12446000D02*
G75*
G03*
X16740500Y-12446000I-40000J0D01*
G01*
X16804000Y-6477000D02*
G75*
G03*
X16804000Y-6477000I-40000J0D01*
G01*
X16804000Y-8001000D02*
G75*
G03*
X16804000Y-8001000I-40000J0D01*
G01*
X16931000Y-10160000D02*
G75*
G03*
X16931000Y-10160000I-40000J0D01*
G01*
X16931000Y-10922000D02*
G75*
G03*
X16931000Y-10922000I-40000J0D01*
G01*
X16994500Y-11684000D02*
G75*
G03*
X16994500Y-11684000I-40000J0D01*
G01*
X16994500Y-12446000D02*
G75*
G03*
X16994500Y-12446000I-40000J0D01*
G01*
X17058000Y-6477000D02*
G75*
G03*
X17058000Y-6477000I-40000J0D01*
G01*
X17058000Y-8001000D02*
G75*
G03*
X17058000Y-8001000I-40000J0D01*
G01*
X17185000Y-10160000D02*
G75*
G03*
X17185000Y-10160000I-40000J0D01*
G01*
X17185000Y-10922000D02*
G75*
G03*
X17185000Y-10922000I-40000J0D01*
G01*
X17248500Y-11684000D02*
G75*
G03*
X17248500Y-11684000I-40000J0D01*
G01*
X17248500Y-12446000D02*
G75*
G03*
X17248500Y-12446000I-40000J0D01*
G01*
X17312000Y-6477000D02*
G75*
G03*
X17312000Y-6477000I-40000J0D01*
G01*
X17312000Y-8001000D02*
G75*
G03*
X17312000Y-8001000I-40000J0D01*
G01*
X17375500Y-8763000D02*
G75*
G03*
X17375500Y-8763000I-40000J0D01*
G01*
X17375500Y-9525000D02*
G75*
G03*
X17375500Y-9525000I-40000J0D01*
G01*
X17439000Y-10160000D02*
G75*
G03*
X17439000Y-10160000I-40000J0D01*
G01*
X17439000Y-10922000D02*
G75*
G03*
X17439000Y-10922000I-40000J0D01*
G01*
X17502500Y-11684000D02*
G75*
G03*
X17502500Y-11684000I-40000J0D01*
G01*
X17502500Y-12446000D02*
G75*
G03*
X17502500Y-12446000I-40000J0D01*
G01*
X17629500Y-8763000D02*
G75*
G03*
X17629500Y-8763000I-40000J0D01*
G01*
X17629500Y-9525000D02*
G75*
G03*
X17629500Y-9525000I-40000J0D01*
G01*
X17693000Y-10160000D02*
G75*
G03*
X17693000Y-10160000I-40000J0D01*
G01*
X17693000Y-10922000D02*
G75*
G03*
X17693000Y-10922000I-40000J0D01*
G01*
X17756500Y-11684000D02*
G75*
G03*
X17756500Y-11684000I-40000J0D01*
G01*
X17756500Y-12446000D02*
G75*
G03*
X17756500Y-12446000I-40000J0D01*
G01*
X17883500Y-8763000D02*
G75*
G03*
X17883500Y-8763000I-40000J0D01*
G01*
X17883500Y-9525000D02*
G75*
G03*
X17883500Y-9525000I-40000J0D01*
G01*
X17947000Y-6477000D02*
G75*
G03*
X17947000Y-6477000I-40000J0D01*
G01*
X17947000Y-8001000D02*
G75*
G03*
X17947000Y-8001000I-40000J0D01*
G01*
X17947000Y-10160000D02*
G75*
G03*
X17947000Y-10160000I-40000J0D01*
G01*
X17947000Y-10922000D02*
G75*
G03*
X17947000Y-10922000I-40000J0D01*
G01*
X18010500Y-11684000D02*
G75*
G03*
X18010500Y-11684000I-40000J0D01*
G01*
X18010500Y-12446000D02*
G75*
G03*
X18010500Y-12446000I-40000J0D01*
G01*
X18137500Y-8763000D02*
G75*
G03*
X18137500Y-8763000I-40000J0D01*
G01*
X18137500Y-9525000D02*
G75*
G03*
X18137500Y-9525000I-40000J0D01*
G01*
X18201000Y-6477000D02*
G75*
G03*
X18201000Y-6477000I-40000J0D01*
G01*
X18201000Y-8001000D02*
G75*
G03*
X18201000Y-8001000I-40000J0D01*
G01*
X18201000Y-10160000D02*
G75*
G03*
X18201000Y-10160000I-40000J0D01*
G01*
X18201000Y-10922000D02*
G75*
G03*
X18201000Y-10922000I-40000J0D01*
G01*
X18264500Y-11684000D02*
G75*
G03*
X18264500Y-11684000I-40000J0D01*
G01*
X18264500Y-12446000D02*
G75*
G03*
X18264500Y-12446000I-40000J0D01*
G01*
X18391500Y-8763000D02*
G75*
G03*
X18391500Y-8763000I-40000J0D01*
G01*
X18391500Y-9525000D02*
G75*
G03*
X18391500Y-9525000I-40000J0D01*
G01*
X18455000Y-6477000D02*
G75*
G03*
X18455000Y-6477000I-40000J0D01*
G01*
X18455000Y-8001000D02*
G75*
G03*
X18455000Y-8001000I-40000J0D01*
G01*
X18645500Y-8763000D02*
G75*
G03*
X18645500Y-8763000I-40000J0D01*
G01*
X18645500Y-9525000D02*
G75*
G03*
X18645500Y-9525000I-40000J0D01*
G01*
X18709000Y-6477000D02*
G75*
G03*
X18709000Y-6477000I-40000J0D01*
G01*
X18709000Y-8001000D02*
G75*
G03*
X18709000Y-8001000I-40000J0D01*
G01*
X18899500Y-8763000D02*
G75*
G03*
X18899500Y-8763000I-40000J0D01*
G01*
X18899500Y-9525000D02*
G75*
G03*
X18899500Y-9525000I-40000J0D01*
G01*
X18899500Y-11684000D02*
G75*
G03*
X18899500Y-11684000I-40000J0D01*
G01*
X18899500Y-12446000D02*
G75*
G03*
X18899500Y-12446000I-40000J0D01*
G01*
X18963000Y-6477000D02*
G75*
G03*
X18963000Y-6477000I-40000J0D01*
G01*
X18963000Y-8001000D02*
G75*
G03*
X18963000Y-8001000I-40000J0D01*
G01*
X19153500Y-8763000D02*
G75*
G03*
X19153500Y-8763000I-40000J0D01*
G01*
X19153500Y-9525000D02*
G75*
G03*
X19153500Y-9525000I-40000J0D01*
G01*
X19153500Y-11684000D02*
G75*
G03*
X19153500Y-11684000I-40000J0D01*
G01*
X19153500Y-12446000D02*
G75*
G03*
X19153500Y-12446000I-40000J0D01*
G01*
X19217000Y-6477000D02*
G75*
G03*
X19217000Y-6477000I-40000J0D01*
G01*
X19217000Y-8001000D02*
G75*
G03*
X19217000Y-8001000I-40000J0D01*
G01*
X19407500Y-8763000D02*
G75*
G03*
X19407500Y-8763000I-40000J0D01*
G01*
X19407500Y-9525000D02*
G75*
G03*
X19407500Y-9525000I-40000J0D01*
G01*
X19407500Y-11684000D02*
G75*
G03*
X19407500Y-11684000I-40000J0D01*
G01*
X19407500Y-12446000D02*
G75*
G03*
X19407500Y-12446000I-40000J0D01*
G01*
X19471000Y-6477000D02*
G75*
G03*
X19471000Y-6477000I-40000J0D01*
G01*
X19471000Y-8001000D02*
G75*
G03*
X19471000Y-8001000I-40000J0D01*
G01*
X19661500Y-8763000D02*
G75*
G03*
X19661500Y-8763000I-40000J0D01*
G01*
X19661500Y-9525000D02*
G75*
G03*
X19661500Y-9525000I-40000J0D01*
G01*
X19661500Y-11684000D02*
G75*
G03*
X19661500Y-11684000I-40000J0D01*
G01*
X19661500Y-12446000D02*
G75*
G03*
X19661500Y-12446000I-40000J0D01*
G01*
X19725000Y-6477000D02*
G75*
G03*
X19725000Y-6477000I-40000J0D01*
G01*
X19725000Y-8001000D02*
G75*
G03*
X19725000Y-8001000I-40000J0D01*
G01*
X19915500Y-11684000D02*
G75*
G03*
X19915500Y-11684000I-40000J0D01*
G01*
X19915500Y-12446000D02*
G75*
G03*
X19915500Y-12446000I-40000J0D01*
G01*
X19979000Y-6477000D02*
G75*
G03*
X19979000Y-6477000I-40000J0D01*
G01*
X19979000Y-8001000D02*
G75*
G03*
X19979000Y-8001000I-40000J0D01*
G01*
X20169500Y-11684000D02*
G75*
G03*
X20169500Y-11684000I-40000J0D01*
G01*
X20169500Y-12446000D02*
G75*
G03*
X20169500Y-12446000I-40000J0D01*
G01*
X20233000Y-6477000D02*
G75*
G03*
X20233000Y-6477000I-40000J0D01*
G01*
X20233000Y-8001000D02*
G75*
G03*
X20233000Y-8001000I-40000J0D01*
G01*
X20296500Y-8763000D02*
G75*
G03*
X20296500Y-8763000I-40000J0D01*
G01*
X20296500Y-9525000D02*
G75*
G03*
X20296500Y-9525000I-40000J0D01*
G01*
X20423500Y-11684000D02*
G75*
G03*
X20423500Y-11684000I-40000J0D01*
G01*
X20423500Y-12446000D02*
G75*
G03*
X20423500Y-12446000I-40000J0D01*
G01*
X20487000Y-6477000D02*
G75*
G03*
X20487000Y-6477000I-40000J0D01*
G01*
X20487000Y-8001000D02*
G75*
G03*
X20487000Y-8001000I-40000J0D01*
G01*
X20550500Y-8763000D02*
G75*
G03*
X20550500Y-8763000I-40000J0D01*
G01*
X20550500Y-9525000D02*
G75*
G03*
X20550500Y-9525000I-40000J0D01*
G01*
X20677500Y-11684000D02*
G75*
G03*
X20677500Y-11684000I-40000J0D01*
G01*
X20677500Y-12446000D02*
G75*
G03*
X20677500Y-12446000I-40000J0D01*
G01*
X20741000Y-6477000D02*
G75*
G03*
X20741000Y-6477000I-40000J0D01*
G01*
X20741000Y-8001000D02*
G75*
G03*
X20741000Y-8001000I-40000J0D01*
G01*
X20804500Y-8763000D02*
G75*
G03*
X20804500Y-8763000I-40000J0D01*
G01*
X20804500Y-9525000D02*
G75*
G03*
X20804500Y-9525000I-40000J0D01*
G01*
X20931500Y-11684000D02*
G75*
G03*
X20931500Y-11684000I-40000J0D01*
G01*
X20931500Y-12446000D02*
G75*
G03*
X20931500Y-12446000I-40000J0D01*
G01*
X20995000Y-6477000D02*
G75*
G03*
X20995000Y-6477000I-40000J0D01*
G01*
X20995000Y-8001000D02*
G75*
G03*
X20995000Y-8001000I-40000J0D01*
G01*
X21058500Y-8763000D02*
G75*
G03*
X21058500Y-8763000I-40000J0D01*
G01*
X21058500Y-9525000D02*
G75*
G03*
X21058500Y-9525000I-40000J0D01*
G01*
X21185500Y-11684000D02*
G75*
G03*
X21185500Y-11684000I-40000J0D01*
G01*
X21185500Y-12446000D02*
G75*
G03*
X21185500Y-12446000I-40000J0D01*
G01*
X21249000Y-6477000D02*
G75*
G03*
X21249000Y-6477000I-40000J0D01*
G01*
X21249000Y-8001000D02*
G75*
G03*
X21249000Y-8001000I-40000J0D01*
G01*
X21312500Y-8763000D02*
G75*
G03*
X21312500Y-8763000I-40000J0D01*
G01*
X21312500Y-9525000D02*
G75*
G03*
X21312500Y-9525000I-40000J0D01*
G01*
X21566500Y-8763000D02*
G75*
G03*
X21566500Y-8763000I-40000J0D01*
G01*
X21566500Y-9525000D02*
G75*
G03*
X21566500Y-9525000I-40000J0D01*
G01*
X21820500Y-8763000D02*
G75*
G03*
X21820500Y-8763000I-40000J0D01*
G01*
X21820500Y-9525000D02*
G75*
G03*
X21820500Y-9525000I-40000J0D01*
G01*
X21820500Y-12065000D02*
G75*
G03*
X21820500Y-12065000I-40000J0D01*
G01*
X21820500Y-12827000D02*
G75*
G03*
X21820500Y-12827000I-40000J0D01*
G01*
X21884000Y-6477000D02*
G75*
G03*
X21884000Y-6477000I-40000J0D01*
G01*
X21884000Y-8001000D02*
G75*
G03*
X21884000Y-8001000I-40000J0D01*
G01*
X22074500Y-12065000D02*
G75*
G03*
X22074500Y-12065000I-40000J0D01*
G01*
X22074500Y-12827000D02*
G75*
G03*
X22074500Y-12827000I-40000J0D01*
G01*
X22138000Y-6477000D02*
G75*
G03*
X22138000Y-6477000I-40000J0D01*
G01*
X22138000Y-8001000D02*
G75*
G03*
X22138000Y-8001000I-40000J0D01*
G01*
X22328500Y-12065000D02*
G75*
G03*
X22328500Y-12065000I-40000J0D01*
G01*
X22328500Y-12827000D02*
G75*
G03*
X22328500Y-12827000I-40000J0D01*
G01*
X22392000Y-6477000D02*
G75*
G03*
X22392000Y-6477000I-40000J0D01*
G01*
X22392000Y-8001000D02*
G75*
G03*
X22392000Y-8001000I-40000J0D01*
G01*
X22392000Y-9906000D02*
G75*
G03*
X22392000Y-9906000I-40000J0D01*
G01*
X22392000Y-11430000D02*
G75*
G03*
X22392000Y-11430000I-40000J0D01*
G01*
X22455500Y-8763000D02*
G75*
G03*
X22455500Y-8763000I-40000J0D01*
G01*
X22455500Y-9525000D02*
G75*
G03*
X22455500Y-9525000I-40000J0D01*
G01*
X22582500Y-12065000D02*
G75*
G03*
X22582500Y-12065000I-40000J0D01*
G01*
X22582500Y-12827000D02*
G75*
G03*
X22582500Y-12827000I-40000J0D01*
G01*
X22646000Y-6477000D02*
G75*
G03*
X22646000Y-6477000I-40000J0D01*
G01*
X22646000Y-8001000D02*
G75*
G03*
X22646000Y-8001000I-40000J0D01*
G01*
X22646000Y-9906000D02*
G75*
G03*
X22646000Y-9906000I-40000J0D01*
G01*
X22646000Y-11430000D02*
G75*
G03*
X22646000Y-11430000I-40000J0D01*
G01*
X22709500Y-8763000D02*
G75*
G03*
X22709500Y-8763000I-40000J0D01*
G01*
X22709500Y-9525000D02*
G75*
G03*
X22709500Y-9525000I-40000J0D01*
G01*
X22836500Y-12065000D02*
G75*
G03*
X22836500Y-12065000I-40000J0D01*
G01*
X22836500Y-12827000D02*
G75*
G03*
X22836500Y-12827000I-40000J0D01*
G01*
X22900000Y-6477000D02*
G75*
G03*
X22900000Y-6477000I-40000J0D01*
G01*
X22900000Y-8001000D02*
G75*
G03*
X22900000Y-8001000I-40000J0D01*
G01*
X22900000Y-9906000D02*
G75*
G03*
X22900000Y-9906000I-40000J0D01*
G01*
X22900000Y-11430000D02*
G75*
G03*
X22900000Y-11430000I-40000J0D01*
G01*
X22963500Y-8763000D02*
G75*
G03*
X22963500Y-8763000I-40000J0D01*
G01*
X22963500Y-9525000D02*
G75*
G03*
X22963500Y-9525000I-40000J0D01*
G01*
X23090500Y-12065000D02*
G75*
G03*
X23090500Y-12065000I-40000J0D01*
G01*
X23090500Y-12827000D02*
G75*
G03*
X23090500Y-12827000I-40000J0D01*
G01*
X23154000Y-6477000D02*
G75*
G03*
X23154000Y-6477000I-40000J0D01*
G01*
X23154000Y-8001000D02*
G75*
G03*
X23154000Y-8001000I-40000J0D01*
G01*
X23154000Y-9906000D02*
G75*
G03*
X23154000Y-9906000I-40000J0D01*
G01*
X23154000Y-11430000D02*
G75*
G03*
X23154000Y-11430000I-40000J0D01*
G01*
X23217500Y-8763000D02*
G75*
G03*
X23217500Y-8763000I-40000J0D01*
G01*
X23217500Y-9525000D02*
G75*
G03*
X23217500Y-9525000I-40000J0D01*
G01*
X23344500Y-12065000D02*
G75*
G03*
X23344500Y-12065000I-40000J0D01*
G01*
X23344500Y-12827000D02*
G75*
G03*
X23344500Y-12827000I-40000J0D01*
G01*
X23408000Y-6477000D02*
G75*
G03*
X23408000Y-6477000I-40000J0D01*
G01*
X23408000Y-8001000D02*
G75*
G03*
X23408000Y-8001000I-40000J0D01*
G01*
X23408000Y-9906000D02*
G75*
G03*
X23408000Y-9906000I-40000J0D01*
G01*
X23408000Y-11430000D02*
G75*
G03*
X23408000Y-11430000I-40000J0D01*
G01*
X23471500Y-8763000D02*
G75*
G03*
X23471500Y-8763000I-40000J0D01*
G01*
X23471500Y-9525000D02*
G75*
G03*
X23471500Y-9525000I-40000J0D01*
G01*
X23598500Y-12065000D02*
G75*
G03*
X23598500Y-12065000I-40000J0D01*
G01*
X23598500Y-12827000D02*
G75*
G03*
X23598500Y-12827000I-40000J0D01*
G01*
X23662000Y-6477000D02*
G75*
G03*
X23662000Y-6477000I-40000J0D01*
G01*
X23662000Y-8001000D02*
G75*
G03*
X23662000Y-8001000I-40000J0D01*
G01*
X23662000Y-9906000D02*
G75*
G03*
X23662000Y-9906000I-40000J0D01*
G01*
X23662000Y-11430000D02*
G75*
G03*
X23662000Y-11430000I-40000J0D01*
G01*
X23725500Y-8763000D02*
G75*
G03*
X23725500Y-8763000I-40000J0D01*
G01*
X23725500Y-9525000D02*
G75*
G03*
X23725500Y-9525000I-40000J0D01*
G01*
X23852500Y-12065000D02*
G75*
G03*
X23852500Y-12065000I-40000J0D01*
G01*
X23852500Y-12827000D02*
G75*
G03*
X23852500Y-12827000I-40000J0D01*
G01*
X23916000Y-6477000D02*
G75*
G03*
X23916000Y-6477000I-40000J0D01*
G01*
X23916000Y-8001000D02*
G75*
G03*
X23916000Y-8001000I-40000J0D01*
G01*
X23916000Y-9906000D02*
G75*
G03*
X23916000Y-9906000I-40000J0D01*
G01*
X23916000Y-11430000D02*
G75*
G03*
X23916000Y-11430000I-40000J0D01*
G01*
X23979500Y-8763000D02*
G75*
G03*
X23979500Y-8763000I-40000J0D01*
G01*
X23979500Y-9525000D02*
G75*
G03*
X23979500Y-9525000I-40000J0D01*
G01*
X24106500Y-12065000D02*
G75*
G03*
X24106500Y-12065000I-40000J0D01*
G01*
X24106500Y-12827000D02*
G75*
G03*
X24106500Y-12827000I-40000J0D01*
G01*
X24170000Y-6477000D02*
G75*
G03*
X24170000Y-6477000I-40000J0D01*
G01*
X24170000Y-8001000D02*
G75*
G03*
X24170000Y-8001000I-40000J0D01*
G01*
X24170000Y-9906000D02*
G75*
G03*
X24170000Y-9906000I-40000J0D01*
G01*
X24170000Y-11430000D02*
G75*
G03*
X24170000Y-11430000I-40000J0D01*
G01*
X24424000Y-6477000D02*
G75*
G03*
X24424000Y-6477000I-40000J0D01*
G01*
X24424000Y-8001000D02*
G75*
G03*
X24424000Y-8001000I-40000J0D01*
G01*
X24424000Y-9906000D02*
G75*
G03*
X24424000Y-9906000I-40000J0D01*
G01*
X24424000Y-11430000D02*
G75*
G03*
X24424000Y-11430000I-40000J0D01*
G01*
X24678000Y-6477000D02*
G75*
G03*
X24678000Y-6477000I-40000J0D01*
G01*
X24678000Y-8001000D02*
G75*
G03*
X24678000Y-8001000I-40000J0D01*
G01*
X24678000Y-9906000D02*
G75*
G03*
X24678000Y-9906000I-40000J0D01*
G01*
X24678000Y-11430000D02*
G75*
G03*
X24678000Y-11430000I-40000J0D01*
G01*
X24932000Y-6477000D02*
G75*
G03*
X24932000Y-6477000I-40000J0D01*
G01*
X24932000Y-8001000D02*
G75*
G03*
X24932000Y-8001000I-40000J0D01*
G01*
X24932000Y-9906000D02*
G75*
G03*
X24932000Y-9906000I-40000J0D01*
G01*
X24932000Y-11430000D02*
G75*
G03*
X24932000Y-11430000I-40000J0D01*
G01*
X25186000Y-6477000D02*
G75*
G03*
X25186000Y-6477000I-40000J0D01*
G01*
X25186000Y-8001000D02*
G75*
G03*
X25186000Y-8001000I-40000J0D01*
G01*
X25186000Y-9906000D02*
G75*
G03*
X25186000Y-9906000I-40000J0D01*
G01*
X25186000Y-11430000D02*
G75*
G03*
X25186000Y-11430000I-40000J0D01*
G01*
X9969500Y-7379500D02*
X9969500Y-7479500D01*
X9919500Y-7429500D02*
X10019500Y-7429500D01*
X9969500Y-7829500D02*
X9969500Y-7929500D01*
X9919500Y-7879500D02*
X10019500Y-7879500D01*
X10541000Y-14047000D02*
X10541000Y-14147000D01*
X10491000Y-14097000D02*
X10591000Y-14097000D01*
X10619500Y-7379500D02*
X10619500Y-7479500D01*
X10569500Y-7429500D02*
X10669500Y-7429500D01*
X10619500Y-7829500D02*
X10619500Y-7929500D01*
X10569500Y-7879500D02*
X10669500Y-7879500D01*
X10795000Y-14047000D02*
X10795000Y-14147000D01*
X10745000Y-14097000D02*
X10845000Y-14097000D01*
X11049000Y-14047000D02*
X11049000Y-14147000D01*
X10999000Y-14097000D02*
X11099000Y-14097000D01*
X11303000Y-14047000D02*
X11303000Y-14147000D01*
X11253000Y-14097000D02*
X11353000Y-14097000D01*
X11557000Y-14047000D02*
X11557000Y-14147000D01*
X11507000Y-14097000D02*
X11607000Y-14097000D01*
X11811000Y-14047000D02*
X11811000Y-14147000D01*
X11761000Y-14097000D02*
X11861000Y-14097000D01*
X12065000Y-14047000D02*
X12065000Y-14147000D01*
X12015000Y-14097000D02*
X12115000Y-14097000D01*
X12319000Y-14047000D02*
X12319000Y-14147000D01*
X12269000Y-14097000D02*
X12369000Y-14097000D01*
X12573000Y-14047000D02*
X12573000Y-14147000D01*
X12523000Y-14097000D02*
X12623000Y-14097000D01*
X12827000Y-14047000D02*
X12827000Y-14147000D01*
X12777000Y-14097000D02*
X12877000Y-14097000D01*
X13081000Y-14047000D02*
X13081000Y-14147000D01*
X13031000Y-14097000D02*
X13131000Y-14097000D01*
X13335000Y-14047000D02*
X13335000Y-14147000D01*
X13285000Y-14097000D02*
X13385000Y-14097000D01*
X13589000Y-14047000D02*
X13589000Y-14147000D01*
X13539000Y-14097000D02*
X13639000Y-14097000D01*
X14478000Y-14047000D02*
X14478000Y-14147000D01*
X14428000Y-14097000D02*
X14528000Y-14097000D01*
X14732000Y-14047000D02*
X14732000Y-14147000D01*
X14682000Y-14097000D02*
X14782000Y-14097000D01*
X14986000Y-14047000D02*
X14986000Y-14147000D01*
X14936000Y-14097000D02*
X15036000Y-14097000D01*
X15240000Y-14047000D02*
X15240000Y-14147000D01*
X15190000Y-14097000D02*
X15290000Y-14097000D01*
X15494000Y-14047000D02*
X15494000Y-14147000D01*
X15444000Y-14097000D02*
X15544000Y-14097000D01*
X15748000Y-14047000D02*
X15748000Y-14147000D01*
X15698000Y-14097000D02*
X15798000Y-14097000D01*
X16002000Y-14047000D02*
X16002000Y-14147000D01*
X15952000Y-14097000D02*
X16052000Y-14097000D01*
X16256000Y-14047000D02*
X16256000Y-14147000D01*
X16206000Y-14097000D02*
X16306000Y-14097000D01*
X16510000Y-14047000D02*
X16510000Y-14147000D01*
X16460000Y-14097000D02*
X16560000Y-14097000D01*
X16764000Y-14047000D02*
X16764000Y-14147000D01*
X16714000Y-14097000D02*
X16814000Y-14097000D01*
X17018000Y-14047000D02*
X17018000Y-14147000D01*
X16968000Y-14097000D02*
X17068000Y-14097000D01*
X17272000Y-14047000D02*
X17272000Y-14147000D01*
X17222000Y-14097000D02*
X17322000Y-14097000D01*
X17526000Y-14047000D02*
X17526000Y-14147000D01*
X17476000Y-14097000D02*
X17576000Y-14097000D01*
X17780000Y-14047000D02*
X17780000Y-14147000D01*
X17730000Y-14097000D02*
X17830000Y-14097000D01*
X18034000Y-14047000D02*
X18034000Y-14147000D01*
X17984000Y-14097000D02*
X18084000Y-14097000D01*
X18288000Y-14047000D02*
X18288000Y-14147000D01*
X18238000Y-14097000D02*
X18338000Y-14097000D01*
X18542000Y-14047000D02*
X18542000Y-14147000D01*
X18492000Y-14097000D02*
X18592000Y-14097000D01*
X18796000Y-14047000D02*
X18796000Y-14147000D01*
X18746000Y-14097000D02*
X18846000Y-14097000D01*
X19177000Y-14047000D02*
X19177000Y-14147000D01*
X19127000Y-14097000D02*
X19227000Y-14097000D01*
X19431000Y-14047000D02*
X19431000Y-14147000D01*
X19381000Y-14097000D02*
X19481000Y-14097000D01*
X19685000Y-14047000D02*
X19685000Y-14147000D01*
X19635000Y-14097000D02*
X19735000Y-14097000D01*
X19939000Y-14047000D02*
X19939000Y-14147000D01*
X19889000Y-14097000D02*
X19989000Y-14097000D01*
X20193000Y-14047000D02*
X20193000Y-14147000D01*
X20143000Y-14097000D02*
X20243000Y-14097000D01*
X21018500Y-14047000D02*
X21018500Y-14147000D01*
X20968500Y-14097000D02*
X21068500Y-14097000D01*
X21272500Y-14047000D02*
X21272500Y-14147000D01*
X21222500Y-14097000D02*
X21322500Y-14097000D01*
X22161500Y-14047000D02*
X22161500Y-14147000D01*
X22111500Y-14097000D02*
X22211500Y-14097000D01*
X22415500Y-14047000D02*
X22415500Y-14147000D01*
X22365500Y-14097000D02*
X22465500Y-14097000D01*
X22669500Y-14047000D02*
X22669500Y-14147000D01*
X22619500Y-14097000D02*
X22719500Y-14097000D01*
X22923500Y-14047000D02*
X22923500Y-14147000D01*
X22873500Y-14097000D02*
X22973500Y-14097000D01*
X23177500Y-14047000D02*
X23177500Y-14147000D01*
X23127500Y-14097000D02*
X23227500Y-14097000D01*
X24426427Y-13694927D02*
X24426427Y-13610073D01*
X24341573Y-13610073D01*
X24341573Y-13694927D01*
X24426427Y-13694927D01*
X24743927Y-8932427D02*
X24743927Y-8847573D01*
X24659073Y-8847573D01*
X24659073Y-8932427D01*
X24743927Y-8932427D01*
X25176427Y-13694927D02*
X25176427Y-13610073D01*
X25091573Y-13610073D01*
X25091573Y-13694927D01*
X25176427Y-13694927D01*
X25493927Y-8932427D02*
X25493927Y-8847573D01*
X25409073Y-8847573D01*
X25409073Y-8932427D01*
X25493927Y-8932427D01*
D12*
X9933428Y-15139214D02*
X9933428Y-14839214D01*
X10004857Y-14839214D01*
X10047714Y-14853500D01*
X10076286Y-14882071D01*
X10090571Y-14910643D01*
X10104857Y-14967786D01*
X10104857Y-15010643D01*
X10090571Y-15067786D01*
X10076286Y-15096357D01*
X10047714Y-15124929D01*
X10004857Y-15139214D01*
X9933428Y-15139214D01*
X10233428Y-15139214D02*
X10233428Y-14939214D01*
X10233428Y-14996357D02*
X10247714Y-14967786D01*
X10262000Y-14953500D01*
X10290571Y-14939214D01*
X10319143Y-14939214D01*
X10419143Y-15139214D02*
X10419143Y-14939214D01*
X10419143Y-14839214D02*
X10404857Y-14853500D01*
X10419143Y-14867786D01*
X10433428Y-14853500D01*
X10419143Y-14839214D01*
X10419143Y-14867786D01*
X10604857Y-15139214D02*
X10576286Y-15124929D01*
X10562000Y-15096357D01*
X10562000Y-14839214D01*
X10762000Y-15139214D02*
X10733428Y-15124929D01*
X10719143Y-15096357D01*
X10719143Y-14839214D01*
X11104857Y-15139214D02*
X11104857Y-14839214D01*
X11204857Y-15053500D01*
X11304857Y-14839214D01*
X11304857Y-15139214D01*
X11576286Y-15139214D02*
X11576286Y-14982071D01*
X11562000Y-14953500D01*
X11533428Y-14939214D01*
X11476286Y-14939214D01*
X11447714Y-14953500D01*
X11576286Y-15124929D02*
X11547714Y-15139214D01*
X11476286Y-15139214D01*
X11447714Y-15124929D01*
X11433428Y-15096357D01*
X11433428Y-15067786D01*
X11447714Y-15039214D01*
X11476286Y-15024929D01*
X11547714Y-15024929D01*
X11576286Y-15010643D01*
X11719143Y-14939214D02*
X11719143Y-15239214D01*
X11719143Y-14953500D02*
X11747714Y-14939214D01*
X11804857Y-14939214D01*
X11833428Y-14953500D01*
X11847714Y-14967786D01*
X11862000Y-14996357D01*
X11862000Y-15082071D01*
X11847714Y-15110643D01*
X11833428Y-15124929D01*
X11804857Y-15139214D01*
X11747714Y-15139214D01*
X11719143Y-15124929D01*
X11990571Y-15110643D02*
X12004857Y-15124929D01*
X11990571Y-15139214D01*
X11976286Y-15124929D01*
X11990571Y-15110643D01*
X11990571Y-15139214D01*
X11990571Y-14953500D02*
X12004857Y-14967786D01*
X11990571Y-14982071D01*
X11976286Y-14967786D01*
X11990571Y-14953500D01*
X11990571Y-14982071D01*
X9607000Y-15613500D02*
X9647000Y-15653500D01*
X9647000Y-15613500D02*
X9607000Y-15653500D01*
X9990571Y-15469214D02*
X10019143Y-15469214D01*
X10047714Y-15483500D01*
X10062000Y-15497786D01*
X10076286Y-15526357D01*
X10090571Y-15583500D01*
X10090571Y-15654929D01*
X10076286Y-15712071D01*
X10062000Y-15740643D01*
X10047714Y-15754929D01*
X10019143Y-15769214D01*
X9990571Y-15769214D01*
X9962000Y-15754929D01*
X9947714Y-15740643D01*
X9933428Y-15712071D01*
X9919143Y-15654929D01*
X9919143Y-15583500D01*
X9933428Y-15526357D01*
X9947714Y-15497786D01*
X9962000Y-15483500D01*
X9990571Y-15469214D01*
X10219143Y-15740643D02*
X10233428Y-15754929D01*
X10219143Y-15769214D01*
X10204857Y-15754929D01*
X10219143Y-15740643D01*
X10219143Y-15769214D01*
X10490571Y-15569214D02*
X10490571Y-15769214D01*
X10419143Y-15454929D02*
X10347714Y-15669214D01*
X10533428Y-15669214D01*
X10704857Y-15469214D02*
X10733428Y-15469214D01*
X10762000Y-15483500D01*
X10776286Y-15497786D01*
X10790571Y-15526357D01*
X10804857Y-15583500D01*
X10804857Y-15654929D01*
X10790571Y-15712071D01*
X10776286Y-15740643D01*
X10762000Y-15754929D01*
X10733428Y-15769214D01*
X10704857Y-15769214D01*
X10676286Y-15754929D01*
X10662000Y-15740643D01*
X10647714Y-15712071D01*
X10633428Y-15654929D01*
X10633428Y-15583500D01*
X10647714Y-15526357D01*
X10662000Y-15497786D01*
X10676286Y-15483500D01*
X10704857Y-15469214D01*
X10990571Y-15469214D02*
X11019143Y-15469214D01*
X11047714Y-15483500D01*
X11062000Y-15497786D01*
X11076286Y-15526357D01*
X11090571Y-15583500D01*
X11090571Y-15654929D01*
X11076286Y-15712071D01*
X11062000Y-15740643D01*
X11047714Y-15754929D01*
X11019143Y-15769214D01*
X10990571Y-15769214D01*
X10962000Y-15754929D01*
X10947714Y-15740643D01*
X10933428Y-15712071D01*
X10919143Y-15654929D01*
X10919143Y-15583500D01*
X10933428Y-15526357D01*
X10947714Y-15497786D01*
X10962000Y-15483500D01*
X10990571Y-15469214D01*
X11219143Y-15769214D02*
X11219143Y-15569214D01*
X11219143Y-15597786D02*
X11233428Y-15583500D01*
X11262000Y-15569214D01*
X11304857Y-15569214D01*
X11333428Y-15583500D01*
X11347714Y-15612071D01*
X11347714Y-15769214D01*
X11347714Y-15612071D02*
X11362000Y-15583500D01*
X11390571Y-15569214D01*
X11433428Y-15569214D01*
X11462000Y-15583500D01*
X11476286Y-15612071D01*
X11476286Y-15769214D01*
X11619143Y-15769214D02*
X11619143Y-15569214D01*
X11619143Y-15597786D02*
X11633428Y-15583500D01*
X11662000Y-15569214D01*
X11704857Y-15569214D01*
X11733428Y-15583500D01*
X11747714Y-15612071D01*
X11747714Y-15769214D01*
X11747714Y-15612071D02*
X11762000Y-15583500D01*
X11790571Y-15569214D01*
X11833428Y-15569214D01*
X11862000Y-15583500D01*
X11876286Y-15612071D01*
X11876286Y-15769214D01*
X12462000Y-15454929D02*
X12204857Y-15840643D01*
X12847714Y-15469214D02*
X12876286Y-15469214D01*
X12904857Y-15483500D01*
X12919143Y-15497786D01*
X12933428Y-15526357D01*
X12947714Y-15583500D01*
X12947714Y-15654929D01*
X12933428Y-15712071D01*
X12919143Y-15740643D01*
X12904857Y-15754929D01*
X12876286Y-15769214D01*
X12847714Y-15769214D01*
X12819143Y-15754929D01*
X12804857Y-15740643D01*
X12790571Y-15712071D01*
X12776286Y-15654929D01*
X12776286Y-15583500D01*
X12790571Y-15526357D01*
X12804857Y-15497786D01*
X12819143Y-15483500D01*
X12847714Y-15469214D01*
X13076286Y-15740643D02*
X13090571Y-15754929D01*
X13076286Y-15769214D01*
X13062000Y-15754929D01*
X13076286Y-15740643D01*
X13076286Y-15769214D01*
X13276286Y-15469214D02*
X13304857Y-15469214D01*
X13333428Y-15483500D01*
X13347714Y-15497786D01*
X13362000Y-15526357D01*
X13376286Y-15583500D01*
X13376286Y-15654929D01*
X13362000Y-15712071D01*
X13347714Y-15740643D01*
X13333428Y-15754929D01*
X13304857Y-15769214D01*
X13276286Y-15769214D01*
X13247714Y-15754929D01*
X13233428Y-15740643D01*
X13219143Y-15712071D01*
X13204857Y-15654929D01*
X13204857Y-15583500D01*
X13219143Y-15526357D01*
X13233428Y-15497786D01*
X13247714Y-15483500D01*
X13276286Y-15469214D01*
X13662000Y-15769214D02*
X13490571Y-15769214D01*
X13576286Y-15769214D02*
X13576286Y-15469214D01*
X13547714Y-15512071D01*
X13519143Y-15540643D01*
X13490571Y-15554929D01*
X13933428Y-15469214D02*
X13790571Y-15469214D01*
X13776286Y-15612071D01*
X13790571Y-15597786D01*
X13819143Y-15583500D01*
X13890571Y-15583500D01*
X13919143Y-15597786D01*
X13933428Y-15612071D01*
X13947714Y-15640643D01*
X13947714Y-15712071D01*
X13933428Y-15740643D01*
X13919143Y-15754929D01*
X13890571Y-15769214D01*
X13819143Y-15769214D01*
X13790571Y-15754929D01*
X13776286Y-15740643D01*
X14047714Y-15469214D02*
X14247714Y-15469214D01*
X14119143Y-15769214D01*
X14347714Y-15469214D02*
X14347714Y-15526357D01*
X14462000Y-15469214D02*
X14462000Y-15526357D01*
X14904857Y-15883500D02*
X14890571Y-15869214D01*
X14862000Y-15826357D01*
X14847714Y-15797786D01*
X14833428Y-15754929D01*
X14819143Y-15683500D01*
X14819143Y-15626357D01*
X14833428Y-15554929D01*
X14847714Y-15512071D01*
X14862000Y-15483500D01*
X14890571Y-15440643D01*
X14904857Y-15426357D01*
X15004857Y-15497786D02*
X15019143Y-15483500D01*
X15047714Y-15469214D01*
X15119143Y-15469214D01*
X15147714Y-15483500D01*
X15162000Y-15497786D01*
X15176286Y-15526357D01*
X15176286Y-15554929D01*
X15162000Y-15597786D01*
X14990571Y-15769214D01*
X15176286Y-15769214D01*
X15290571Y-15497786D02*
X15304857Y-15483500D01*
X15333428Y-15469214D01*
X15404857Y-15469214D01*
X15433428Y-15483500D01*
X15447714Y-15497786D01*
X15462000Y-15526357D01*
X15462000Y-15554929D01*
X15447714Y-15597786D01*
X15276286Y-15769214D01*
X15462000Y-15769214D01*
X15719143Y-15469214D02*
X15662000Y-15469214D01*
X15633428Y-15483500D01*
X15619143Y-15497786D01*
X15590571Y-15540643D01*
X15576286Y-15597786D01*
X15576286Y-15712071D01*
X15590571Y-15740643D01*
X15604857Y-15754929D01*
X15633428Y-15769214D01*
X15690571Y-15769214D01*
X15719143Y-15754929D01*
X15733428Y-15740643D01*
X15747714Y-15712071D01*
X15747714Y-15640643D01*
X15733428Y-15612071D01*
X15719143Y-15597786D01*
X15690571Y-15583500D01*
X15633428Y-15583500D01*
X15604857Y-15597786D01*
X15590571Y-15612071D01*
X15576286Y-15640643D01*
X16104857Y-15769214D02*
X16104857Y-15469214D01*
X16233428Y-15769214D02*
X16233428Y-15612071D01*
X16219143Y-15583500D01*
X16190571Y-15569214D01*
X16147714Y-15569214D01*
X16119143Y-15583500D01*
X16104857Y-15597786D01*
X16419143Y-15769214D02*
X16390571Y-15754929D01*
X16376286Y-15740643D01*
X16362000Y-15712071D01*
X16362000Y-15626357D01*
X16376286Y-15597786D01*
X16390571Y-15583500D01*
X16419143Y-15569214D01*
X16462000Y-15569214D01*
X16490571Y-15583500D01*
X16504857Y-15597786D01*
X16519143Y-15626357D01*
X16519143Y-15712071D01*
X16504857Y-15740643D01*
X16490571Y-15754929D01*
X16462000Y-15769214D01*
X16419143Y-15769214D01*
X16690571Y-15769214D02*
X16662000Y-15754929D01*
X16647714Y-15726357D01*
X16647714Y-15469214D01*
X16919143Y-15754929D02*
X16890571Y-15769214D01*
X16833428Y-15769214D01*
X16804857Y-15754929D01*
X16790571Y-15726357D01*
X16790571Y-15612071D01*
X16804857Y-15583500D01*
X16833428Y-15569214D01*
X16890571Y-15569214D01*
X16919143Y-15583500D01*
X16933428Y-15612071D01*
X16933428Y-15640643D01*
X16790571Y-15669214D01*
X17047714Y-15754929D02*
X17076286Y-15769214D01*
X17133428Y-15769214D01*
X17162000Y-15754929D01*
X17176286Y-15726357D01*
X17176286Y-15712071D01*
X17162000Y-15683500D01*
X17133428Y-15669214D01*
X17090571Y-15669214D01*
X17062000Y-15654929D01*
X17047714Y-15626357D01*
X17047714Y-15612071D01*
X17062000Y-15583500D01*
X17090571Y-15569214D01*
X17133428Y-15569214D01*
X17162000Y-15583500D01*
X17276286Y-15883500D02*
X17290571Y-15869214D01*
X17319143Y-15826357D01*
X17333428Y-15797786D01*
X17347714Y-15754929D01*
X17362000Y-15683500D01*
X17362000Y-15626357D01*
X17347714Y-15554929D01*
X17333428Y-15512071D01*
X17319143Y-15483500D01*
X17290571Y-15440643D01*
X17276286Y-15426357D01*
X9647000Y-16029500D02*
G75*
G03*
X9647000Y-16029500I-40000J0D01*
G01*
X9990571Y-15865214D02*
X10019143Y-15865214D01*
X10047714Y-15879500D01*
X10062000Y-15893786D01*
X10076286Y-15922357D01*
X10090571Y-15979500D01*
X10090571Y-16050929D01*
X10076286Y-16108071D01*
X10062000Y-16136643D01*
X10047714Y-16150929D01*
X10019143Y-16165214D01*
X9990571Y-16165214D01*
X9962000Y-16150929D01*
X9947714Y-16136643D01*
X9933428Y-16108071D01*
X9919143Y-16050929D01*
X9919143Y-15979500D01*
X9933428Y-15922357D01*
X9947714Y-15893786D01*
X9962000Y-15879500D01*
X9990571Y-15865214D01*
X10219143Y-16136643D02*
X10233428Y-16150929D01*
X10219143Y-16165214D01*
X10204857Y-16150929D01*
X10219143Y-16136643D01*
X10219143Y-16165214D01*
X10404857Y-15993786D02*
X10376286Y-15979500D01*
X10362000Y-15965214D01*
X10347714Y-15936643D01*
X10347714Y-15922357D01*
X10362000Y-15893786D01*
X10376286Y-15879500D01*
X10404857Y-15865214D01*
X10462000Y-15865214D01*
X10490571Y-15879500D01*
X10504857Y-15893786D01*
X10519143Y-15922357D01*
X10519143Y-15936643D01*
X10504857Y-15965214D01*
X10490571Y-15979500D01*
X10462000Y-15993786D01*
X10404857Y-15993786D01*
X10376286Y-16008071D01*
X10362000Y-16022357D01*
X10347714Y-16050929D01*
X10347714Y-16108071D01*
X10362000Y-16136643D01*
X10376286Y-16150929D01*
X10404857Y-16165214D01*
X10462000Y-16165214D01*
X10490571Y-16150929D01*
X10504857Y-16136643D01*
X10519143Y-16108071D01*
X10519143Y-16050929D01*
X10504857Y-16022357D01*
X10490571Y-16008071D01*
X10462000Y-15993786D01*
X10704857Y-15865214D02*
X10733428Y-15865214D01*
X10762000Y-15879500D01*
X10776286Y-15893786D01*
X10790571Y-15922357D01*
X10804857Y-15979500D01*
X10804857Y-16050929D01*
X10790571Y-16108071D01*
X10776286Y-16136643D01*
X10762000Y-16150929D01*
X10733428Y-16165214D01*
X10704857Y-16165214D01*
X10676286Y-16150929D01*
X10662000Y-16136643D01*
X10647714Y-16108071D01*
X10633428Y-16050929D01*
X10633428Y-15979500D01*
X10647714Y-15922357D01*
X10662000Y-15893786D01*
X10676286Y-15879500D01*
X10704857Y-15865214D01*
X10990571Y-15865214D02*
X11019143Y-15865214D01*
X11047714Y-15879500D01*
X11062000Y-15893786D01*
X11076286Y-15922357D01*
X11090571Y-15979500D01*
X11090571Y-16050929D01*
X11076286Y-16108071D01*
X11062000Y-16136643D01*
X11047714Y-16150929D01*
X11019143Y-16165214D01*
X10990571Y-16165214D01*
X10962000Y-16150929D01*
X10947714Y-16136643D01*
X10933428Y-16108071D01*
X10919143Y-16050929D01*
X10919143Y-15979500D01*
X10933428Y-15922357D01*
X10947714Y-15893786D01*
X10962000Y-15879500D01*
X10990571Y-15865214D01*
X11219143Y-16165214D02*
X11219143Y-15965214D01*
X11219143Y-15993786D02*
X11233428Y-15979500D01*
X11262000Y-15965214D01*
X11304857Y-15965214D01*
X11333428Y-15979500D01*
X11347714Y-16008071D01*
X11347714Y-16165214D01*
X11347714Y-16008071D02*
X11362000Y-15979500D01*
X11390571Y-15965214D01*
X11433428Y-15965214D01*
X11462000Y-15979500D01*
X11476286Y-16008071D01*
X11476286Y-16165214D01*
X11619143Y-16165214D02*
X11619143Y-15965214D01*
X11619143Y-15993786D02*
X11633428Y-15979500D01*
X11662000Y-15965214D01*
X11704857Y-15965214D01*
X11733428Y-15979500D01*
X11747714Y-16008071D01*
X11747714Y-16165214D01*
X11747714Y-16008071D02*
X11762000Y-15979500D01*
X11790571Y-15965214D01*
X11833428Y-15965214D01*
X11862000Y-15979500D01*
X11876286Y-16008071D01*
X11876286Y-16165214D01*
X12462000Y-15850929D02*
X12204857Y-16236643D01*
X12847714Y-15865214D02*
X12876286Y-15865214D01*
X12904857Y-15879500D01*
X12919143Y-15893786D01*
X12933428Y-15922357D01*
X12947714Y-15979500D01*
X12947714Y-16050929D01*
X12933428Y-16108071D01*
X12919143Y-16136643D01*
X12904857Y-16150929D01*
X12876286Y-16165214D01*
X12847714Y-16165214D01*
X12819143Y-16150929D01*
X12804857Y-16136643D01*
X12790571Y-16108071D01*
X12776286Y-16050929D01*
X12776286Y-15979500D01*
X12790571Y-15922357D01*
X12804857Y-15893786D01*
X12819143Y-15879500D01*
X12847714Y-15865214D01*
X13076286Y-16136643D02*
X13090571Y-16150929D01*
X13076286Y-16165214D01*
X13062000Y-16150929D01*
X13076286Y-16136643D01*
X13076286Y-16165214D01*
X13276286Y-15865214D02*
X13304857Y-15865214D01*
X13333428Y-15879500D01*
X13347714Y-15893786D01*
X13362000Y-15922357D01*
X13376286Y-15979500D01*
X13376286Y-16050929D01*
X13362000Y-16108071D01*
X13347714Y-16136643D01*
X13333428Y-16150929D01*
X13304857Y-16165214D01*
X13276286Y-16165214D01*
X13247714Y-16150929D01*
X13233428Y-16136643D01*
X13219143Y-16108071D01*
X13204857Y-16050929D01*
X13204857Y-15979500D01*
X13219143Y-15922357D01*
X13233428Y-15893786D01*
X13247714Y-15879500D01*
X13276286Y-15865214D01*
X13476286Y-15865214D02*
X13662000Y-15865214D01*
X13562000Y-15979500D01*
X13604857Y-15979500D01*
X13633428Y-15993786D01*
X13647714Y-16008071D01*
X13662000Y-16036643D01*
X13662000Y-16108071D01*
X13647714Y-16136643D01*
X13633428Y-16150929D01*
X13604857Y-16165214D01*
X13519143Y-16165214D01*
X13490571Y-16150929D01*
X13476286Y-16136643D01*
X13947714Y-16165214D02*
X13776286Y-16165214D01*
X13862000Y-16165214D02*
X13862000Y-15865214D01*
X13833428Y-15908071D01*
X13804857Y-15936643D01*
X13776286Y-15950929D01*
X14219143Y-15865214D02*
X14076286Y-15865214D01*
X14062000Y-16008071D01*
X14076286Y-15993786D01*
X14104857Y-15979500D01*
X14176286Y-15979500D01*
X14204857Y-15993786D01*
X14219143Y-16008071D01*
X14233428Y-16036643D01*
X14233428Y-16108071D01*
X14219143Y-16136643D01*
X14204857Y-16150929D01*
X14176286Y-16165214D01*
X14104857Y-16165214D01*
X14076286Y-16150929D01*
X14062000Y-16136643D01*
X14347714Y-15865214D02*
X14347714Y-15922357D01*
X14462000Y-15865214D02*
X14462000Y-15922357D01*
X14904857Y-16279500D02*
X14890571Y-16265214D01*
X14862000Y-16222357D01*
X14847714Y-16193786D01*
X14833428Y-16150929D01*
X14819143Y-16079500D01*
X14819143Y-16022357D01*
X14833428Y-15950929D01*
X14847714Y-15908071D01*
X14862000Y-15879500D01*
X14890571Y-15836643D01*
X14904857Y-15822357D01*
X14990571Y-15865214D02*
X15176286Y-15865214D01*
X15076286Y-15979500D01*
X15119143Y-15979500D01*
X15147714Y-15993786D01*
X15162000Y-16008071D01*
X15176286Y-16036643D01*
X15176286Y-16108071D01*
X15162000Y-16136643D01*
X15147714Y-16150929D01*
X15119143Y-16165214D01*
X15033428Y-16165214D01*
X15004857Y-16150929D01*
X14990571Y-16136643D01*
X15347714Y-15993786D02*
X15319143Y-15979500D01*
X15304857Y-15965214D01*
X15290571Y-15936643D01*
X15290571Y-15922357D01*
X15304857Y-15893786D01*
X15319143Y-15879500D01*
X15347714Y-15865214D01*
X15404857Y-15865214D01*
X15433428Y-15879500D01*
X15447714Y-15893786D01*
X15462000Y-15922357D01*
X15462000Y-15936643D01*
X15447714Y-15965214D01*
X15433428Y-15979500D01*
X15404857Y-15993786D01*
X15347714Y-15993786D01*
X15319143Y-16008071D01*
X15304857Y-16022357D01*
X15290571Y-16050929D01*
X15290571Y-16108071D01*
X15304857Y-16136643D01*
X15319143Y-16150929D01*
X15347714Y-16165214D01*
X15404857Y-16165214D01*
X15433428Y-16150929D01*
X15447714Y-16136643D01*
X15462000Y-16108071D01*
X15462000Y-16050929D01*
X15447714Y-16022357D01*
X15433428Y-16008071D01*
X15404857Y-15993786D01*
X15633428Y-15993786D02*
X15604857Y-15979500D01*
X15590571Y-15965214D01*
X15576286Y-15936643D01*
X15576286Y-15922357D01*
X15590571Y-15893786D01*
X15604857Y-15879500D01*
X15633428Y-15865214D01*
X15690571Y-15865214D01*
X15719143Y-15879500D01*
X15733428Y-15893786D01*
X15747714Y-15922357D01*
X15747714Y-15936643D01*
X15733428Y-15965214D01*
X15719143Y-15979500D01*
X15690571Y-15993786D01*
X15633428Y-15993786D01*
X15604857Y-16008071D01*
X15590571Y-16022357D01*
X15576286Y-16050929D01*
X15576286Y-16108071D01*
X15590571Y-16136643D01*
X15604857Y-16150929D01*
X15633428Y-16165214D01*
X15690571Y-16165214D01*
X15719143Y-16150929D01*
X15733428Y-16136643D01*
X15747714Y-16108071D01*
X15747714Y-16050929D01*
X15733428Y-16022357D01*
X15719143Y-16008071D01*
X15690571Y-15993786D01*
X16104857Y-16165214D02*
X16104857Y-15865214D01*
X16233428Y-16165214D02*
X16233428Y-16008071D01*
X16219143Y-15979500D01*
X16190571Y-15965214D01*
X16147714Y-15965214D01*
X16119143Y-15979500D01*
X16104857Y-15993786D01*
X16419143Y-16165214D02*
X16390571Y-16150929D01*
X16376286Y-16136643D01*
X16362000Y-16108071D01*
X16362000Y-16022357D01*
X16376286Y-15993786D01*
X16390571Y-15979500D01*
X16419143Y-15965214D01*
X16462000Y-15965214D01*
X16490571Y-15979500D01*
X16504857Y-15993786D01*
X16519143Y-16022357D01*
X16519143Y-16108071D01*
X16504857Y-16136643D01*
X16490571Y-16150929D01*
X16462000Y-16165214D01*
X16419143Y-16165214D01*
X16690571Y-16165214D02*
X16662000Y-16150929D01*
X16647714Y-16122357D01*
X16647714Y-15865214D01*
X16919143Y-16150929D02*
X16890571Y-16165214D01*
X16833428Y-16165214D01*
X16804857Y-16150929D01*
X16790571Y-16122357D01*
X16790571Y-16008071D01*
X16804857Y-15979500D01*
X16833428Y-15965214D01*
X16890571Y-15965214D01*
X16919143Y-15979500D01*
X16933428Y-16008071D01*
X16933428Y-16036643D01*
X16790571Y-16065214D01*
X17047714Y-16150929D02*
X17076286Y-16165214D01*
X17133428Y-16165214D01*
X17162000Y-16150929D01*
X17176286Y-16122357D01*
X17176286Y-16108071D01*
X17162000Y-16079500D01*
X17133428Y-16065214D01*
X17090571Y-16065214D01*
X17062000Y-16050929D01*
X17047714Y-16022357D01*
X17047714Y-16008071D01*
X17062000Y-15979500D01*
X17090571Y-15965214D01*
X17133428Y-15965214D01*
X17162000Y-15979500D01*
X17276286Y-16279500D02*
X17290571Y-16265214D01*
X17319143Y-16222357D01*
X17333428Y-16193786D01*
X17347714Y-16150929D01*
X17362000Y-16079500D01*
X17362000Y-16022357D01*
X17347714Y-15950929D01*
X17333428Y-15908071D01*
X17319143Y-15879500D01*
X17290571Y-15836643D01*
X17276286Y-15822357D01*
X9597000Y-16375500D02*
X9597000Y-16475500D01*
X9547000Y-16425500D02*
X9647000Y-16425500D01*
X10090571Y-16561214D02*
X9919143Y-16561214D01*
X10004857Y-16561214D02*
X10004857Y-16261214D01*
X9976286Y-16304071D01*
X9947714Y-16332643D01*
X9919143Y-16346929D01*
X10219143Y-16532643D02*
X10233428Y-16546929D01*
X10219143Y-16561214D01*
X10204857Y-16546929D01*
X10219143Y-16532643D01*
X10219143Y-16561214D01*
X10419143Y-16261214D02*
X10447714Y-16261214D01*
X10476286Y-16275500D01*
X10490571Y-16289786D01*
X10504857Y-16318357D01*
X10519143Y-16375500D01*
X10519143Y-16446929D01*
X10504857Y-16504071D01*
X10490571Y-16532643D01*
X10476286Y-16546929D01*
X10447714Y-16561214D01*
X10419143Y-16561214D01*
X10390571Y-16546929D01*
X10376286Y-16532643D01*
X10362000Y-16504071D01*
X10347714Y-16446929D01*
X10347714Y-16375500D01*
X10362000Y-16318357D01*
X10376286Y-16289786D01*
X10390571Y-16275500D01*
X10419143Y-16261214D01*
X10704857Y-16261214D02*
X10733428Y-16261214D01*
X10762000Y-16275500D01*
X10776286Y-16289786D01*
X10790571Y-16318357D01*
X10804857Y-16375500D01*
X10804857Y-16446929D01*
X10790571Y-16504071D01*
X10776286Y-16532643D01*
X10762000Y-16546929D01*
X10733428Y-16561214D01*
X10704857Y-16561214D01*
X10676286Y-16546929D01*
X10662000Y-16532643D01*
X10647714Y-16504071D01*
X10633428Y-16446929D01*
X10633428Y-16375500D01*
X10647714Y-16318357D01*
X10662000Y-16289786D01*
X10676286Y-16275500D01*
X10704857Y-16261214D01*
X10990571Y-16261214D02*
X11019143Y-16261214D01*
X11047714Y-16275500D01*
X11062000Y-16289786D01*
X11076286Y-16318357D01*
X11090571Y-16375500D01*
X11090571Y-16446929D01*
X11076286Y-16504071D01*
X11062000Y-16532643D01*
X11047714Y-16546929D01*
X11019143Y-16561214D01*
X10990571Y-16561214D01*
X10962000Y-16546929D01*
X10947714Y-16532643D01*
X10933428Y-16504071D01*
X10919143Y-16446929D01*
X10919143Y-16375500D01*
X10933428Y-16318357D01*
X10947714Y-16289786D01*
X10962000Y-16275500D01*
X10990571Y-16261214D01*
X11219143Y-16561214D02*
X11219143Y-16361214D01*
X11219143Y-16389786D02*
X11233428Y-16375500D01*
X11262000Y-16361214D01*
X11304857Y-16361214D01*
X11333428Y-16375500D01*
X11347714Y-16404071D01*
X11347714Y-16561214D01*
X11347714Y-16404071D02*
X11362000Y-16375500D01*
X11390571Y-16361214D01*
X11433428Y-16361214D01*
X11462000Y-16375500D01*
X11476286Y-16404071D01*
X11476286Y-16561214D01*
X11619143Y-16561214D02*
X11619143Y-16361214D01*
X11619143Y-16389786D02*
X11633428Y-16375500D01*
X11662000Y-16361214D01*
X11704857Y-16361214D01*
X11733428Y-16375500D01*
X11747714Y-16404071D01*
X11747714Y-16561214D01*
X11747714Y-16404071D02*
X11762000Y-16375500D01*
X11790571Y-16361214D01*
X11833428Y-16361214D01*
X11862000Y-16375500D01*
X11876286Y-16404071D01*
X11876286Y-16561214D01*
X12462000Y-16246929D02*
X12204857Y-16632643D01*
X12847714Y-16261214D02*
X12876286Y-16261214D01*
X12904857Y-16275500D01*
X12919143Y-16289786D01*
X12933428Y-16318357D01*
X12947714Y-16375500D01*
X12947714Y-16446929D01*
X12933428Y-16504071D01*
X12919143Y-16532643D01*
X12904857Y-16546929D01*
X12876286Y-16561214D01*
X12847714Y-16561214D01*
X12819143Y-16546929D01*
X12804857Y-16532643D01*
X12790571Y-16504071D01*
X12776286Y-16446929D01*
X12776286Y-16375500D01*
X12790571Y-16318357D01*
X12804857Y-16289786D01*
X12819143Y-16275500D01*
X12847714Y-16261214D01*
X13076286Y-16532643D02*
X13090571Y-16546929D01*
X13076286Y-16561214D01*
X13062000Y-16546929D01*
X13076286Y-16532643D01*
X13076286Y-16561214D01*
X13276286Y-16261214D02*
X13304857Y-16261214D01*
X13333428Y-16275500D01*
X13347714Y-16289786D01*
X13362000Y-16318357D01*
X13376286Y-16375500D01*
X13376286Y-16446929D01*
X13362000Y-16504071D01*
X13347714Y-16532643D01*
X13333428Y-16546929D01*
X13304857Y-16561214D01*
X13276286Y-16561214D01*
X13247714Y-16546929D01*
X13233428Y-16532643D01*
X13219143Y-16504071D01*
X13204857Y-16446929D01*
X13204857Y-16375500D01*
X13219143Y-16318357D01*
X13233428Y-16289786D01*
X13247714Y-16275500D01*
X13276286Y-16261214D01*
X13476286Y-16261214D02*
X13662000Y-16261214D01*
X13562000Y-16375500D01*
X13604857Y-16375500D01*
X13633428Y-16389786D01*
X13647714Y-16404071D01*
X13662000Y-16432643D01*
X13662000Y-16504071D01*
X13647714Y-16532643D01*
X13633428Y-16546929D01*
X13604857Y-16561214D01*
X13519143Y-16561214D01*
X13490571Y-16546929D01*
X13476286Y-16532643D01*
X13804857Y-16561214D02*
X13862000Y-16561214D01*
X13890571Y-16546929D01*
X13904857Y-16532643D01*
X13933428Y-16489786D01*
X13947714Y-16432643D01*
X13947714Y-16318357D01*
X13933428Y-16289786D01*
X13919143Y-16275500D01*
X13890571Y-16261214D01*
X13833428Y-16261214D01*
X13804857Y-16275500D01*
X13790571Y-16289786D01*
X13776286Y-16318357D01*
X13776286Y-16389786D01*
X13790571Y-16418357D01*
X13804857Y-16432643D01*
X13833428Y-16446929D01*
X13890571Y-16446929D01*
X13919143Y-16432643D01*
X13933428Y-16418357D01*
X13947714Y-16389786D01*
X14204857Y-16361214D02*
X14204857Y-16561214D01*
X14133428Y-16246929D02*
X14062000Y-16461214D01*
X14247714Y-16461214D01*
X14347714Y-16261214D02*
X14347714Y-16318357D01*
X14462000Y-16261214D02*
X14462000Y-16318357D01*
X14904857Y-16675500D02*
X14890571Y-16661214D01*
X14862000Y-16618357D01*
X14847714Y-16589786D01*
X14833428Y-16546929D01*
X14819143Y-16475500D01*
X14819143Y-16418357D01*
X14833428Y-16346929D01*
X14847714Y-16304071D01*
X14862000Y-16275500D01*
X14890571Y-16232643D01*
X14904857Y-16218357D01*
X15147714Y-16361214D02*
X15147714Y-16561214D01*
X15076286Y-16246929D02*
X15004857Y-16461214D01*
X15190571Y-16461214D01*
X15276286Y-16261214D02*
X15476286Y-16261214D01*
X15347714Y-16561214D01*
X15819143Y-16561214D02*
X15819143Y-16261214D01*
X15947714Y-16561214D02*
X15947714Y-16404071D01*
X15933428Y-16375500D01*
X15904857Y-16361214D01*
X15862000Y-16361214D01*
X15833428Y-16375500D01*
X15819143Y-16389786D01*
X16133428Y-16561214D02*
X16104857Y-16546929D01*
X16090571Y-16532643D01*
X16076286Y-16504071D01*
X16076286Y-16418357D01*
X16090571Y-16389786D01*
X16104857Y-16375500D01*
X16133428Y-16361214D01*
X16176286Y-16361214D01*
X16204857Y-16375500D01*
X16219143Y-16389786D01*
X16233428Y-16418357D01*
X16233428Y-16504071D01*
X16219143Y-16532643D01*
X16204857Y-16546929D01*
X16176286Y-16561214D01*
X16133428Y-16561214D01*
X16404857Y-16561214D02*
X16376286Y-16546929D01*
X16362000Y-16518357D01*
X16362000Y-16261214D01*
X16633428Y-16546929D02*
X16604857Y-16561214D01*
X16547714Y-16561214D01*
X16519143Y-16546929D01*
X16504857Y-16518357D01*
X16504857Y-16404071D01*
X16519143Y-16375500D01*
X16547714Y-16361214D01*
X16604857Y-16361214D01*
X16633428Y-16375500D01*
X16647714Y-16404071D01*
X16647714Y-16432643D01*
X16504857Y-16461214D01*
X16762000Y-16546929D02*
X16790571Y-16561214D01*
X16847714Y-16561214D01*
X16876286Y-16546929D01*
X16890571Y-16518357D01*
X16890571Y-16504071D01*
X16876286Y-16475500D01*
X16847714Y-16461214D01*
X16804857Y-16461214D01*
X16776286Y-16446929D01*
X16762000Y-16418357D01*
X16762000Y-16404071D01*
X16776286Y-16375500D01*
X16804857Y-16361214D01*
X16847714Y-16361214D01*
X16876286Y-16375500D01*
X16990571Y-16675500D02*
X17004857Y-16661214D01*
X17033428Y-16618357D01*
X17047714Y-16589786D01*
X17062000Y-16546929D01*
X17076286Y-16475500D01*
X17076286Y-16418357D01*
X17062000Y-16346929D01*
X17047714Y-16304071D01*
X17033428Y-16275500D01*
X17004857Y-16232643D01*
X16990571Y-16218357D01*
X9629427Y-16863927D02*
X9629427Y-16779073D01*
X9544573Y-16779073D01*
X9544573Y-16863927D01*
X9629427Y-16863927D01*
X10090571Y-16957214D02*
X9919143Y-16957214D01*
X10004857Y-16957214D02*
X10004857Y-16657214D01*
X9976286Y-16700071D01*
X9947714Y-16728643D01*
X9919143Y-16742929D01*
X10219143Y-16928643D02*
X10233428Y-16942929D01*
X10219143Y-16957214D01*
X10204857Y-16942929D01*
X10219143Y-16928643D01*
X10219143Y-16957214D01*
X10347714Y-16685786D02*
X10362000Y-16671500D01*
X10390571Y-16657214D01*
X10462000Y-16657214D01*
X10490571Y-16671500D01*
X10504857Y-16685786D01*
X10519143Y-16714357D01*
X10519143Y-16742929D01*
X10504857Y-16785786D01*
X10333428Y-16957214D01*
X10519143Y-16957214D01*
X10704857Y-16657214D02*
X10733428Y-16657214D01*
X10762000Y-16671500D01*
X10776286Y-16685786D01*
X10790571Y-16714357D01*
X10804857Y-16771500D01*
X10804857Y-16842929D01*
X10790571Y-16900072D01*
X10776286Y-16928643D01*
X10762000Y-16942929D01*
X10733428Y-16957214D01*
X10704857Y-16957214D01*
X10676286Y-16942929D01*
X10662000Y-16928643D01*
X10647714Y-16900072D01*
X10633428Y-16842929D01*
X10633428Y-16771500D01*
X10647714Y-16714357D01*
X10662000Y-16685786D01*
X10676286Y-16671500D01*
X10704857Y-16657214D01*
X10990571Y-16657214D02*
X11019143Y-16657214D01*
X11047714Y-16671500D01*
X11062000Y-16685786D01*
X11076286Y-16714357D01*
X11090571Y-16771500D01*
X11090571Y-16842929D01*
X11076286Y-16900072D01*
X11062000Y-16928643D01*
X11047714Y-16942929D01*
X11019143Y-16957214D01*
X10990571Y-16957214D01*
X10962000Y-16942929D01*
X10947714Y-16928643D01*
X10933428Y-16900072D01*
X10919143Y-16842929D01*
X10919143Y-16771500D01*
X10933428Y-16714357D01*
X10947714Y-16685786D01*
X10962000Y-16671500D01*
X10990571Y-16657214D01*
X11219143Y-16957214D02*
X11219143Y-16757214D01*
X11219143Y-16785786D02*
X11233428Y-16771500D01*
X11262000Y-16757214D01*
X11304857Y-16757214D01*
X11333428Y-16771500D01*
X11347714Y-16800072D01*
X11347714Y-16957214D01*
X11347714Y-16800072D02*
X11362000Y-16771500D01*
X11390571Y-16757214D01*
X11433428Y-16757214D01*
X11462000Y-16771500D01*
X11476286Y-16800072D01*
X11476286Y-16957214D01*
X11619143Y-16957214D02*
X11619143Y-16757214D01*
X11619143Y-16785786D02*
X11633428Y-16771500D01*
X11662000Y-16757214D01*
X11704857Y-16757214D01*
X11733428Y-16771500D01*
X11747714Y-16800072D01*
X11747714Y-16957214D01*
X11747714Y-16800072D02*
X11762000Y-16771500D01*
X11790571Y-16757214D01*
X11833428Y-16757214D01*
X11862000Y-16771500D01*
X11876286Y-16800072D01*
X11876286Y-16957214D01*
X12462000Y-16642929D02*
X12204857Y-17028643D01*
X12847714Y-16657214D02*
X12876286Y-16657214D01*
X12904857Y-16671500D01*
X12919143Y-16685786D01*
X12933428Y-16714357D01*
X12947714Y-16771500D01*
X12947714Y-16842929D01*
X12933428Y-16900072D01*
X12919143Y-16928643D01*
X12904857Y-16942929D01*
X12876286Y-16957214D01*
X12847714Y-16957214D01*
X12819143Y-16942929D01*
X12804857Y-16928643D01*
X12790571Y-16900072D01*
X12776286Y-16842929D01*
X12776286Y-16771500D01*
X12790571Y-16714357D01*
X12804857Y-16685786D01*
X12819143Y-16671500D01*
X12847714Y-16657214D01*
X13076286Y-16928643D02*
X13090571Y-16942929D01*
X13076286Y-16957214D01*
X13062000Y-16942929D01*
X13076286Y-16928643D01*
X13076286Y-16957214D01*
X13276286Y-16657214D02*
X13304857Y-16657214D01*
X13333428Y-16671500D01*
X13347714Y-16685786D01*
X13362000Y-16714357D01*
X13376286Y-16771500D01*
X13376286Y-16842929D01*
X13362000Y-16900072D01*
X13347714Y-16928643D01*
X13333428Y-16942929D01*
X13304857Y-16957214D01*
X13276286Y-16957214D01*
X13247714Y-16942929D01*
X13233428Y-16928643D01*
X13219143Y-16900072D01*
X13204857Y-16842929D01*
X13204857Y-16771500D01*
X13219143Y-16714357D01*
X13233428Y-16685786D01*
X13247714Y-16671500D01*
X13276286Y-16657214D01*
X13633428Y-16757214D02*
X13633428Y-16957214D01*
X13562000Y-16642929D02*
X13490571Y-16857214D01*
X13676286Y-16857214D01*
X13762000Y-16657214D02*
X13962000Y-16657214D01*
X13833428Y-16957214D01*
X14062000Y-16685786D02*
X14076286Y-16671500D01*
X14104857Y-16657214D01*
X14176286Y-16657214D01*
X14204857Y-16671500D01*
X14219143Y-16685786D01*
X14233428Y-16714357D01*
X14233428Y-16742929D01*
X14219143Y-16785786D01*
X14047714Y-16957214D01*
X14233428Y-16957214D01*
X14347714Y-16657214D02*
X14347714Y-16714357D01*
X14462000Y-16657214D02*
X14462000Y-16714357D01*
X14904857Y-17071500D02*
X14890571Y-17057214D01*
X14862000Y-17014357D01*
X14847714Y-16985786D01*
X14833428Y-16942929D01*
X14819143Y-16871500D01*
X14819143Y-16814357D01*
X14833428Y-16742929D01*
X14847714Y-16700071D01*
X14862000Y-16671500D01*
X14890571Y-16628643D01*
X14904857Y-16614357D01*
X15147714Y-16757214D02*
X15147714Y-16957214D01*
X15076286Y-16642929D02*
X15004857Y-16857214D01*
X15190571Y-16857214D01*
X15533428Y-16957214D02*
X15533428Y-16657214D01*
X15662000Y-16957214D02*
X15662000Y-16800072D01*
X15647714Y-16771500D01*
X15619143Y-16757214D01*
X15576286Y-16757214D01*
X15547714Y-16771500D01*
X15533428Y-16785786D01*
X15847714Y-16957214D02*
X15819143Y-16942929D01*
X15804857Y-16928643D01*
X15790571Y-16900072D01*
X15790571Y-16814357D01*
X15804857Y-16785786D01*
X15819143Y-16771500D01*
X15847714Y-16757214D01*
X15890571Y-16757214D01*
X15919143Y-16771500D01*
X15933428Y-16785786D01*
X15947714Y-16814357D01*
X15947714Y-16900072D01*
X15933428Y-16928643D01*
X15919143Y-16942929D01*
X15890571Y-16957214D01*
X15847714Y-16957214D01*
X16119143Y-16957214D02*
X16090571Y-16942929D01*
X16076286Y-16914357D01*
X16076286Y-16657214D01*
X16347714Y-16942929D02*
X16319143Y-16957214D01*
X16262000Y-16957214D01*
X16233428Y-16942929D01*
X16219143Y-16914357D01*
X16219143Y-16800072D01*
X16233428Y-16771500D01*
X16262000Y-16757214D01*
X16319143Y-16757214D01*
X16347714Y-16771500D01*
X16362000Y-16800072D01*
X16362000Y-16828643D01*
X16219143Y-16857214D01*
X16476286Y-16942929D02*
X16504857Y-16957214D01*
X16562000Y-16957214D01*
X16590571Y-16942929D01*
X16604857Y-16914357D01*
X16604857Y-16900072D01*
X16590571Y-16871500D01*
X16562000Y-16857214D01*
X16519143Y-16857214D01*
X16490571Y-16842929D01*
X16476286Y-16814357D01*
X16476286Y-16800072D01*
X16490571Y-16771500D01*
X16519143Y-16757214D01*
X16562000Y-16757214D01*
X16590571Y-16771500D01*
X16704857Y-17071500D02*
X16719143Y-17057214D01*
X16747714Y-17014357D01*
X16762000Y-16985786D01*
X16776286Y-16942929D01*
X16790571Y-16871500D01*
X16790571Y-16814357D01*
X16776286Y-16742929D01*
X16762000Y-16700071D01*
X16747714Y-16671500D01*
X16719143Y-16628643D01*
X16704857Y-16614357D01*
M02*
