%TF.GenerationSoftware,KiCad,Pcbnew,5.1.12-84ad8e8a86~92~ubuntu18.04.1*%
%TF.CreationDate,2022-01-22T16:21:03-05:00*%
%TF.ProjectId,kicad,6b696361-642e-46b6-9963-61645f706362,rev?*%
%TF.SameCoordinates,Original*%
%TF.FileFunction,Copper,L4,Bot*%
%TF.FilePolarity,Positive*%
%FSLAX46Y46*%
G04 Gerber Fmt 4.6, Leading zero omitted, Abs format (unit mm)*
G04 Created by KiCad (PCBNEW 5.1.12-84ad8e8a86~92~ubuntu18.04.1) date 2022-01-22 16:21:03*
%MOMM*%
%LPD*%
G01*
G04 APERTURE LIST*
%TA.AperFunction,ComponentPad*%
%ADD10O,1.600000X1.600000*%
%TD*%
%TA.AperFunction,ComponentPad*%
%ADD11R,1.600000X1.600000*%
%TD*%
%TA.AperFunction,ComponentPad*%
%ADD12C,1.600000*%
%TD*%
%TA.AperFunction,ComponentPad*%
%ADD13C,1.700000*%
%TD*%
%TA.AperFunction,ComponentPad*%
%ADD14O,1.700000X1.700000*%
%TD*%
%TA.AperFunction,ComponentPad*%
%ADD15R,1.700000X1.700000*%
%TD*%
%TA.AperFunction,ComponentPad*%
%ADD16C,2.400000*%
%TD*%
%TA.AperFunction,ComponentPad*%
%ADD17R,2.400000X2.400000*%
%TD*%
%TA.AperFunction,ViaPad*%
%ADD18C,0.800000*%
%TD*%
%TA.AperFunction,Conductor*%
%ADD19C,0.250000*%
%TD*%
G04 APERTURE END LIST*
D10*
%TO.P,U18,24*%
%TO.N,+5V*%
X223520000Y-99060000D03*
%TO.P,U18,12*%
%TO.N,GND*%
X251460000Y-114300000D03*
%TO.P,U18,23*%
%TO.N,Net-(U10-Pad10)*%
X226060000Y-99060000D03*
%TO.P,U18,11*%
%TO.N,Net-(U18-Pad11)*%
X248920000Y-114300000D03*
%TO.P,U18,22*%
%TO.N,Net-(U10-Pad9)*%
X228600000Y-99060000D03*
%TO.P,U18,10*%
%TO.N,Net-(U18-Pad10)*%
X246380000Y-114300000D03*
%TO.P,U18,21*%
%TO.N,Net-(U10-Pad8)*%
X231140000Y-99060000D03*
%TO.P,U18,9*%
%TO.N,Net-(U18-Pad9)*%
X243840000Y-114300000D03*
%TO.P,U18,20*%
%TO.N,Net-(U10-Pad7)*%
X233680000Y-99060000D03*
%TO.P,U18,8*%
%TO.N,Net-(U17-Pad4)*%
X241300000Y-114300000D03*
%TO.P,U18,19*%
%TO.N,Net-(U17-Pad11)*%
X236220000Y-99060000D03*
%TO.P,U18,7*%
%TO.N,Net-(U14-Pad2)*%
X238760000Y-114300000D03*
%TO.P,U18,18*%
%TO.N,GND*%
X238760000Y-99060000D03*
%TO.P,U18,6*%
%TO.N,Net-(U14-Pad5)*%
X236220000Y-114300000D03*
%TO.P,U18,17*%
%TO.N,Net-(U18-Pad17)*%
X241300000Y-99060000D03*
%TO.P,U18,5*%
%TO.N,Net-(U14-Pad10)*%
X233680000Y-114300000D03*
%TO.P,U18,16*%
%TO.N,Net-(U18-Pad16)*%
X243840000Y-99060000D03*
%TO.P,U18,4*%
%TO.N,Net-(U14-Pad13)*%
X231140000Y-114300000D03*
%TO.P,U18,15*%
%TO.N,Net-(U18-Pad15)*%
X246380000Y-99060000D03*
%TO.P,U18,3*%
%TO.N,Net-(U18-Pad3)*%
X228600000Y-114300000D03*
%TO.P,U18,14*%
%TO.N,Net-(U18-Pad14)*%
X248920000Y-99060000D03*
%TO.P,U18,2*%
%TO.N,Net-(U18-Pad2)*%
X226060000Y-114300000D03*
%TO.P,U18,13*%
%TO.N,Net-(U18-Pad13)*%
X251460000Y-99060000D03*
D11*
%TO.P,U18,1*%
%TO.N,Net-(U18-Pad1)*%
X223520000Y-114300000D03*
%TD*%
D10*
%TO.P,U17,14*%
%TO.N,+5V*%
X217805000Y-95250000D03*
%TO.P,U17,7*%
%TO.N,GND*%
X202565000Y-87630000D03*
%TO.P,U17,13*%
%TO.N,Net-(U16-Pad19)*%
X215265000Y-95250000D03*
%TO.P,U17,6*%
%TO.N,Net-(U15-Pad11)*%
X205105000Y-87630000D03*
%TO.P,U17,12*%
%TO.N,Net-(U11-Pad19)*%
X212725000Y-95250000D03*
%TO.P,U17,5*%
%TO.N,Net-(U14-Pad1)*%
X207645000Y-87630000D03*
%TO.P,U17,11*%
%TO.N,Net-(U17-Pad11)*%
X210185000Y-95250000D03*
%TO.P,U17,4*%
%TO.N,Net-(U17-Pad4)*%
X210185000Y-87630000D03*
%TO.P,U17,10*%
%TO.N,Net-(U17-Pad10)*%
X207645000Y-95250000D03*
%TO.P,U17,3*%
%TO.N,Net-(U10-Pad20)*%
X212725000Y-87630000D03*
%TO.P,U17,9*%
%TO.N,Net-(U17-Pad9)*%
X205105000Y-95250000D03*
%TO.P,U17,2*%
%TO.N,Net-(U17-Pad2)*%
X215265000Y-87630000D03*
%TO.P,U17,8*%
%TO.N,Net-(U17-Pad8)*%
X202565000Y-95250000D03*
D11*
%TO.P,U17,1*%
%TO.N,Net-(U11-Pad17)*%
X217805000Y-87630000D03*
%TD*%
D10*
%TO.P,U16,20*%
%TO.N,+5V*%
X167005000Y-95250000D03*
%TO.P,U16,10*%
%TO.N,GND*%
X144145000Y-87630000D03*
%TO.P,U16,19*%
%TO.N,Net-(U16-Pad19)*%
X164465000Y-95250000D03*
%TO.P,U16,9*%
%TO.N,GND*%
X146685000Y-87630000D03*
%TO.P,U16,18*%
%TO.N,+5V*%
X161925000Y-95250000D03*
%TO.P,U16,8*%
%TO.N,GND*%
X149225000Y-87630000D03*
%TO.P,U16,17*%
%TO.N,Net-(U10-Pad3)*%
X159385000Y-95250000D03*
%TO.P,U16,7*%
%TO.N,GND*%
X151765000Y-87630000D03*
%TO.P,U16,16*%
%TO.N,+5V*%
X156845000Y-95250000D03*
%TO.P,U16,6*%
%TO.N,GND*%
X154305000Y-87630000D03*
%TO.P,U16,15*%
%TO.N,Net-(U10-Pad4)*%
X154305000Y-95250000D03*
%TO.P,U16,5*%
%TO.N,GND*%
X156845000Y-87630000D03*
%TO.P,U16,14*%
%TO.N,+5V*%
X151765000Y-95250000D03*
%TO.P,U16,4*%
%TO.N,GND*%
X159385000Y-87630000D03*
%TO.P,U16,13*%
%TO.N,Net-(U10-Pad5)*%
X149225000Y-95250000D03*
%TO.P,U16,3*%
%TO.N,GND*%
X161925000Y-87630000D03*
%TO.P,U16,12*%
%TO.N,+5V*%
X146685000Y-95250000D03*
%TO.P,U16,2*%
%TO.N,GND*%
X164465000Y-87630000D03*
%TO.P,U16,11*%
%TO.N,Net-(U10-Pad6)*%
X144145000Y-95250000D03*
D11*
%TO.P,U16,1*%
%TO.N,Net-(U16-Pad1)*%
X167005000Y-87630000D03*
%TD*%
D10*
%TO.P,U15,20*%
%TO.N,+5V*%
X240665000Y-128270000D03*
%TO.P,U15,10*%
%TO.N,GND*%
X217805000Y-120650000D03*
%TO.P,U15,19*%
%TO.N,Net-(U15-Pad19)*%
X238125000Y-128270000D03*
%TO.P,U15,9*%
%TO.N,Net-(U15-Pad9)*%
X220345000Y-120650000D03*
%TO.P,U15,18*%
%TO.N,Net-(U1-Pad18)*%
X235585000Y-128270000D03*
%TO.P,U15,8*%
%TO.N,Net-(U1-Pad8)*%
X222885000Y-120650000D03*
%TO.P,U15,17*%
%TO.N,Net-(U1-Pad17)*%
X233045000Y-128270000D03*
%TO.P,U15,7*%
%TO.N,Net-(U1-Pad7)*%
X225425000Y-120650000D03*
%TO.P,U15,16*%
%TO.N,Net-(U15-Pad16)*%
X230505000Y-128270000D03*
%TO.P,U15,6*%
%TO.N,Net-(U15-Pad6)*%
X227965000Y-120650000D03*
%TO.P,U15,15*%
%TO.N,Net-(U15-Pad15)*%
X227965000Y-128270000D03*
%TO.P,U15,5*%
%TO.N,Net-(J5-Pad2)*%
X230505000Y-120650000D03*
%TO.P,U15,14*%
%TO.N,Net-(U1-Pad14)*%
X225425000Y-128270000D03*
%TO.P,U15,4*%
%TO.N,Net-(U1-Pad4)*%
X233045000Y-120650000D03*
%TO.P,U15,13*%
%TO.N,Net-(U1-Pad13)*%
X222885000Y-128270000D03*
%TO.P,U15,3*%
%TO.N,Net-(U1-Pad3)*%
X235585000Y-120650000D03*
%TO.P,U15,12*%
%TO.N,Net-(U15-Pad12)*%
X220345000Y-128270000D03*
%TO.P,U15,2*%
%TO.N,Net-(J5-Pad1)*%
X238125000Y-120650000D03*
%TO.P,U15,11*%
%TO.N,Net-(U15-Pad11)*%
X217805000Y-128270000D03*
D11*
%TO.P,U15,1*%
%TO.N,GND*%
X240665000Y-120650000D03*
%TD*%
D10*
%TO.P,U14,14*%
%TO.N,+5V*%
X239395000Y-95250000D03*
%TO.P,U14,7*%
%TO.N,GND*%
X224155000Y-87630000D03*
%TO.P,U14,13*%
%TO.N,Net-(U14-Pad13)*%
X236855000Y-95250000D03*
%TO.P,U14,6*%
%TO.N,Net-(U14-Pad6)*%
X226695000Y-87630000D03*
%TO.P,U14,12*%
%TO.N,Net-(U14-Pad1)*%
X234315000Y-95250000D03*
%TO.P,U14,5*%
%TO.N,Net-(U14-Pad5)*%
X229235000Y-87630000D03*
%TO.P,U14,11*%
%TO.N,Net-(U1-Pad11)*%
X231775000Y-95250000D03*
%TO.P,U14,4*%
%TO.N,Net-(U14-Pad1)*%
X231775000Y-87630000D03*
%TO.P,U14,10*%
%TO.N,Net-(U14-Pad10)*%
X229235000Y-95250000D03*
%TO.P,U14,3*%
%TO.N,Net-(U12-Pad11)*%
X234315000Y-87630000D03*
%TO.P,U14,9*%
%TO.N,Net-(U14-Pad1)*%
X226695000Y-95250000D03*
%TO.P,U14,2*%
%TO.N,Net-(U14-Pad2)*%
X236855000Y-87630000D03*
%TO.P,U14,8*%
%TO.N,Net-(U14-Pad8)*%
X224155000Y-95250000D03*
D11*
%TO.P,U14,1*%
%TO.N,Net-(U14-Pad1)*%
X239395000Y-87630000D03*
%TD*%
D10*
%TO.P,U13,28*%
%TO.N,+5V*%
X251460000Y-80010000D03*
%TO.P,U13,14*%
%TO.N,GND*%
X218440000Y-64770000D03*
%TO.P,U13,27*%
%TO.N,+5V*%
X248920000Y-80010000D03*
%TO.P,U13,13*%
%TO.N,Net-(U1-Pad7)*%
X220980000Y-64770000D03*
%TO.P,U13,26*%
%TO.N,Net-(U10-Pad26)*%
X246380000Y-80010000D03*
%TO.P,U13,12*%
%TO.N,Net-(U1-Pad4)*%
X223520000Y-64770000D03*
%TO.P,U13,25*%
%TO.N,Net-(U10-Pad25)*%
X243840000Y-80010000D03*
%TO.P,U13,11*%
%TO.N,Net-(U1-Pad3)*%
X226060000Y-64770000D03*
%TO.P,U13,24*%
%TO.N,Net-(U10-Pad24)*%
X241300000Y-80010000D03*
%TO.P,U13,10*%
%TO.N,Net-(U10-Pad10)*%
X228600000Y-64770000D03*
%TO.P,U13,23*%
%TO.N,Net-(U10-Pad23)*%
X238760000Y-80010000D03*
%TO.P,U13,9*%
%TO.N,Net-(U10-Pad9)*%
X231140000Y-64770000D03*
%TO.P,U13,22*%
%TO.N,GND*%
X236220000Y-80010000D03*
%TO.P,U13,8*%
%TO.N,Net-(U10-Pad8)*%
X233680000Y-64770000D03*
%TO.P,U13,21*%
%TO.N,Net-(U10-Pad21)*%
X233680000Y-80010000D03*
%TO.P,U13,7*%
%TO.N,Net-(U10-Pad7)*%
X236220000Y-64770000D03*
%TO.P,U13,20*%
%TO.N,Net-(U13-Pad20)*%
X231140000Y-80010000D03*
%TO.P,U13,6*%
%TO.N,Net-(U10-Pad6)*%
X238760000Y-64770000D03*
%TO.P,U13,19*%
%TO.N,Net-(U1-Pad18)*%
X228600000Y-80010000D03*
%TO.P,U13,5*%
%TO.N,Net-(U10-Pad5)*%
X241300000Y-64770000D03*
%TO.P,U13,18*%
%TO.N,Net-(U1-Pad17)*%
X226060000Y-80010000D03*
%TO.P,U13,4*%
%TO.N,Net-(U10-Pad4)*%
X243840000Y-64770000D03*
%TO.P,U13,17*%
%TO.N,Net-(U1-Pad14)*%
X223520000Y-80010000D03*
%TO.P,U13,3*%
%TO.N,Net-(U10-Pad3)*%
X246380000Y-64770000D03*
%TO.P,U13,16*%
%TO.N,Net-(U1-Pad13)*%
X220980000Y-80010000D03*
%TO.P,U13,2*%
%TO.N,Net-(U10-Pad2)*%
X248920000Y-64770000D03*
%TO.P,U13,15*%
%TO.N,Net-(U1-Pad8)*%
X218440000Y-80010000D03*
D11*
%TO.P,U13,1*%
%TO.N,Net-(U10-Pad1)*%
X251460000Y-64770000D03*
%TD*%
D10*
%TO.P,U12,20*%
%TO.N,+5V*%
X211455000Y-124460000D03*
%TO.P,U12,10*%
%TO.N,GND*%
X188595000Y-116840000D03*
%TO.P,U12,19*%
%TO.N,Net-(U12-Pad19)*%
X208915000Y-124460000D03*
%TO.P,U12,9*%
%TO.N,Net-(J4-Pad4)*%
X191135000Y-116840000D03*
%TO.P,U12,18*%
%TO.N,Net-(U1-Pad18)*%
X206375000Y-124460000D03*
%TO.P,U12,8*%
%TO.N,Net-(U1-Pad8)*%
X193675000Y-116840000D03*
%TO.P,U12,17*%
%TO.N,Net-(U1-Pad17)*%
X203835000Y-124460000D03*
%TO.P,U12,7*%
%TO.N,Net-(U1-Pad7)*%
X196215000Y-116840000D03*
%TO.P,U12,16*%
%TO.N,Net-(U12-Pad16)*%
X201295000Y-124460000D03*
%TO.P,U12,6*%
%TO.N,Net-(J4-Pad3)*%
X198755000Y-116840000D03*
%TO.P,U12,15*%
%TO.N,Net-(U12-Pad15)*%
X198755000Y-124460000D03*
%TO.P,U12,5*%
%TO.N,Net-(J4-Pad2)*%
X201295000Y-116840000D03*
%TO.P,U12,14*%
%TO.N,Net-(U1-Pad14)*%
X196215000Y-124460000D03*
%TO.P,U12,4*%
%TO.N,Net-(U1-Pad4)*%
X203835000Y-116840000D03*
%TO.P,U12,13*%
%TO.N,Net-(U1-Pad13)*%
X193675000Y-124460000D03*
%TO.P,U12,3*%
%TO.N,Net-(U1-Pad3)*%
X206375000Y-116840000D03*
%TO.P,U12,12*%
%TO.N,Net-(J4-Pad5)*%
X191135000Y-124460000D03*
%TO.P,U12,2*%
%TO.N,Net-(J4-Pad1)*%
X208915000Y-116840000D03*
%TO.P,U12,11*%
%TO.N,Net-(U12-Pad11)*%
X188595000Y-124460000D03*
D11*
%TO.P,U12,1*%
%TO.N,GND*%
X211455000Y-116840000D03*
%TD*%
D10*
%TO.P,U11,20*%
%TO.N,+5V*%
X196215000Y-95250000D03*
%TO.P,U11,10*%
%TO.N,GND*%
X173355000Y-87630000D03*
%TO.P,U11,19*%
%TO.N,Net-(U11-Pad19)*%
X193675000Y-95250000D03*
%TO.P,U11,9*%
%TO.N,+5V*%
X175895000Y-87630000D03*
%TO.P,U11,18*%
%TO.N,GND*%
X191135000Y-95250000D03*
%TO.P,U11,8*%
%TO.N,Net-(U10-Pad23)*%
X178435000Y-87630000D03*
%TO.P,U11,17*%
%TO.N,Net-(U11-Pad17)*%
X188595000Y-95250000D03*
%TO.P,U11,7*%
%TO.N,+5V*%
X180975000Y-87630000D03*
%TO.P,U11,16*%
X186055000Y-95250000D03*
%TO.P,U11,6*%
%TO.N,Net-(U10-Pad21)*%
X183515000Y-87630000D03*
%TO.P,U11,15*%
%TO.N,Net-(U10-Pad1)*%
X183515000Y-95250000D03*
%TO.P,U11,5*%
%TO.N,+5V*%
X186055000Y-87630000D03*
%TO.P,U11,14*%
X180975000Y-95250000D03*
%TO.P,U11,4*%
%TO.N,Net-(U10-Pad24)*%
X188595000Y-87630000D03*
%TO.P,U11,13*%
%TO.N,Net-(U10-Pad26)*%
X178435000Y-95250000D03*
%TO.P,U11,3*%
%TO.N,+5V*%
X191135000Y-87630000D03*
%TO.P,U11,12*%
X175895000Y-95250000D03*
%TO.P,U11,2*%
%TO.N,Net-(U10-Pad25)*%
X193675000Y-87630000D03*
%TO.P,U11,11*%
%TO.N,Net-(U10-Pad2)*%
X173355000Y-95250000D03*
D11*
%TO.P,U11,1*%
%TO.N,Net-(U11-Pad1)*%
X196215000Y-87630000D03*
%TD*%
D10*
%TO.P,U10,28*%
%TO.N,+5V*%
X212090000Y-80010000D03*
%TO.P,U10,14*%
%TO.N,GND*%
X179070000Y-64770000D03*
%TO.P,U10,27*%
%TO.N,Net-(U10-Pad27)*%
X209550000Y-80010000D03*
%TO.P,U10,13*%
%TO.N,Net-(U1-Pad7)*%
X181610000Y-64770000D03*
%TO.P,U10,26*%
%TO.N,Net-(U10-Pad26)*%
X207010000Y-80010000D03*
%TO.P,U10,12*%
%TO.N,Net-(U1-Pad4)*%
X184150000Y-64770000D03*
%TO.P,U10,25*%
%TO.N,Net-(U10-Pad25)*%
X204470000Y-80010000D03*
%TO.P,U10,11*%
%TO.N,Net-(U1-Pad3)*%
X186690000Y-64770000D03*
%TO.P,U10,24*%
%TO.N,Net-(U10-Pad24)*%
X201930000Y-80010000D03*
%TO.P,U10,10*%
%TO.N,Net-(U10-Pad10)*%
X189230000Y-64770000D03*
%TO.P,U10,23*%
%TO.N,Net-(U10-Pad23)*%
X199390000Y-80010000D03*
%TO.P,U10,9*%
%TO.N,Net-(U10-Pad9)*%
X191770000Y-64770000D03*
%TO.P,U10,22*%
%TO.N,Net-(U10-Pad22)*%
X196850000Y-80010000D03*
%TO.P,U10,8*%
%TO.N,Net-(U10-Pad8)*%
X194310000Y-64770000D03*
%TO.P,U10,21*%
%TO.N,Net-(U10-Pad21)*%
X194310000Y-80010000D03*
%TO.P,U10,7*%
%TO.N,Net-(U10-Pad7)*%
X196850000Y-64770000D03*
%TO.P,U10,20*%
%TO.N,Net-(U10-Pad20)*%
X191770000Y-80010000D03*
%TO.P,U10,6*%
%TO.N,Net-(U10-Pad6)*%
X199390000Y-64770000D03*
%TO.P,U10,19*%
%TO.N,Net-(U1-Pad18)*%
X189230000Y-80010000D03*
%TO.P,U10,5*%
%TO.N,Net-(U10-Pad5)*%
X201930000Y-64770000D03*
%TO.P,U10,18*%
%TO.N,Net-(U1-Pad17)*%
X186690000Y-80010000D03*
%TO.P,U10,4*%
%TO.N,Net-(U10-Pad4)*%
X204470000Y-64770000D03*
%TO.P,U10,17*%
%TO.N,Net-(U1-Pad14)*%
X184150000Y-80010000D03*
%TO.P,U10,3*%
%TO.N,Net-(U10-Pad3)*%
X207010000Y-64770000D03*
%TO.P,U10,16*%
%TO.N,Net-(U1-Pad13)*%
X181610000Y-80010000D03*
%TO.P,U10,2*%
%TO.N,Net-(U10-Pad2)*%
X209550000Y-64770000D03*
%TO.P,U10,15*%
%TO.N,Net-(U1-Pad8)*%
X179070000Y-80010000D03*
D11*
%TO.P,U10,1*%
%TO.N,Net-(U10-Pad1)*%
X212090000Y-64770000D03*
%TD*%
D10*
%TO.P,U9,20*%
%TO.N,+5V*%
X181610000Y-109220000D03*
%TO.P,U9,10*%
%TO.N,GND*%
X158750000Y-101600000D03*
%TO.P,U9,19*%
%TO.N,Net-(U1-Pad18)*%
X179070000Y-109220000D03*
%TO.P,U9,9*%
%TO.N,Net-(U1-Pad8)*%
X161290000Y-101600000D03*
%TO.P,U9,18*%
%TO.N,Net-(J1-Pad1)*%
X176530000Y-109220000D03*
%TO.P,U9,8*%
%TO.N,Net-(J1-Pad5)*%
X163830000Y-101600000D03*
%TO.P,U9,17*%
%TO.N,Net-(J1-Pad2)*%
X173990000Y-109220000D03*
%TO.P,U9,7*%
%TO.N,Net-(J1-Pad6)*%
X166370000Y-101600000D03*
%TO.P,U9,16*%
%TO.N,Net-(U1-Pad17)*%
X171450000Y-109220000D03*
%TO.P,U9,6*%
%TO.N,Net-(U1-Pad7)*%
X168910000Y-101600000D03*
%TO.P,U9,15*%
%TO.N,Net-(U1-Pad14)*%
X168910000Y-109220000D03*
%TO.P,U9,5*%
%TO.N,Net-(U1-Pad4)*%
X171450000Y-101600000D03*
%TO.P,U9,14*%
%TO.N,Net-(J1-Pad3)*%
X166370000Y-109220000D03*
%TO.P,U9,4*%
%TO.N,Net-(J1-Pad7)*%
X173990000Y-101600000D03*
%TO.P,U9,13*%
%TO.N,Net-(J1-Pad4)*%
X163830000Y-109220000D03*
%TO.P,U9,3*%
%TO.N,Net-(J1-Pad8)*%
X176530000Y-101600000D03*
%TO.P,U9,12*%
%TO.N,Net-(U1-Pad13)*%
X161290000Y-109220000D03*
%TO.P,U9,2*%
%TO.N,Net-(U1-Pad3)*%
X179070000Y-101600000D03*
%TO.P,U9,11*%
%TO.N,Net-(J1-Pad9)*%
X158750000Y-109220000D03*
D11*
%TO.P,U9,1*%
%TO.N,Net-(U18-Pad3)*%
X181610000Y-101600000D03*
%TD*%
D10*
%TO.P,U8,20*%
%TO.N,+5V*%
X182245000Y-124460000D03*
%TO.P,U8,10*%
%TO.N,GND*%
X159385000Y-116840000D03*
%TO.P,U8,19*%
%TO.N,Net-(U8-Pad19)*%
X179705000Y-124460000D03*
%TO.P,U8,9*%
%TO.N,Net-(U8-Pad9)*%
X161925000Y-116840000D03*
%TO.P,U8,18*%
%TO.N,Net-(U1-Pad18)*%
X177165000Y-124460000D03*
%TO.P,U8,8*%
%TO.N,Net-(U1-Pad8)*%
X164465000Y-116840000D03*
%TO.P,U8,17*%
%TO.N,Net-(U1-Pad17)*%
X174625000Y-124460000D03*
%TO.P,U8,7*%
%TO.N,Net-(U1-Pad7)*%
X167005000Y-116840000D03*
%TO.P,U8,16*%
%TO.N,Net-(U8-Pad16)*%
X172085000Y-124460000D03*
%TO.P,U8,6*%
%TO.N,Net-(U8-Pad6)*%
X169545000Y-116840000D03*
%TO.P,U8,15*%
%TO.N,Net-(U8-Pad15)*%
X169545000Y-124460000D03*
%TO.P,U8,5*%
%TO.N,Net-(J3-Pad18)*%
X172085000Y-116840000D03*
%TO.P,U8,14*%
%TO.N,Net-(U1-Pad14)*%
X167005000Y-124460000D03*
%TO.P,U8,4*%
%TO.N,Net-(U1-Pad4)*%
X174625000Y-116840000D03*
%TO.P,U8,13*%
%TO.N,Net-(U1-Pad13)*%
X164465000Y-124460000D03*
%TO.P,U8,3*%
%TO.N,Net-(U1-Pad3)*%
X177165000Y-116840000D03*
%TO.P,U8,12*%
%TO.N,Net-(U8-Pad12)*%
X161925000Y-124460000D03*
%TO.P,U8,2*%
%TO.N,Net-(J3-Pad17)*%
X179705000Y-116840000D03*
%TO.P,U8,11*%
%TO.N,Net-(U14-Pad6)*%
X159385000Y-124460000D03*
D11*
%TO.P,U8,1*%
%TO.N,GND*%
X182245000Y-116840000D03*
%TD*%
D10*
%TO.P,U7,14*%
%TO.N,+5V*%
X137160000Y-95250000D03*
%TO.P,U7,7*%
%TO.N,GND*%
X121920000Y-87630000D03*
%TO.P,U7,13*%
%TO.N,Net-(U7-Pad13)*%
X134620000Y-95250000D03*
%TO.P,U7,6*%
%TO.N,Net-(U7-Pad6)*%
X124460000Y-87630000D03*
%TO.P,U7,12*%
%TO.N,Net-(U7-Pad12)*%
X132080000Y-95250000D03*
%TO.P,U7,5*%
%TO.N,Net-(U7-Pad5)*%
X127000000Y-87630000D03*
%TO.P,U7,11*%
%TO.N,Net-(U7-Pad11)*%
X129540000Y-95250000D03*
%TO.P,U7,4*%
%TO.N,Net-(U7-Pad4)*%
X129540000Y-87630000D03*
%TO.P,U7,10*%
%TO.N,Net-(U7-Pad10)*%
X127000000Y-95250000D03*
%TO.P,U7,3*%
%TO.N,Net-(U3-Pad3)*%
X132080000Y-87630000D03*
%TO.P,U7,9*%
%TO.N,Net-(U7-Pad9)*%
X124460000Y-95250000D03*
%TO.P,U7,2*%
%TO.N,Net-(U10-Pad22)*%
X134620000Y-87630000D03*
%TO.P,U7,8*%
%TO.N,Net-(U7-Pad8)*%
X121920000Y-95250000D03*
D11*
%TO.P,U7,1*%
%TO.N,Net-(U3-Pad13)*%
X137160000Y-87630000D03*
%TD*%
D10*
%TO.P,U6,20*%
%TO.N,+5V*%
X152400000Y-109220000D03*
%TO.P,U6,10*%
%TO.N,GND*%
X129540000Y-101600000D03*
%TO.P,U6,19*%
%TO.N,Net-(U1-Pad18)*%
X149860000Y-109220000D03*
%TO.P,U6,9*%
%TO.N,Net-(U1-Pad8)*%
X132080000Y-101600000D03*
%TO.P,U6,18*%
%TO.N,Net-(J1-Pad1)*%
X147320000Y-109220000D03*
%TO.P,U6,8*%
%TO.N,Net-(J1-Pad5)*%
X134620000Y-101600000D03*
%TO.P,U6,17*%
%TO.N,Net-(J1-Pad2)*%
X144780000Y-109220000D03*
%TO.P,U6,7*%
%TO.N,Net-(J1-Pad6)*%
X137160000Y-101600000D03*
%TO.P,U6,16*%
%TO.N,Net-(U1-Pad17)*%
X142240000Y-109220000D03*
%TO.P,U6,6*%
%TO.N,Net-(U1-Pad7)*%
X139700000Y-101600000D03*
%TO.P,U6,15*%
%TO.N,Net-(U1-Pad14)*%
X139700000Y-109220000D03*
%TO.P,U6,5*%
%TO.N,Net-(U1-Pad4)*%
X142240000Y-101600000D03*
%TO.P,U6,14*%
%TO.N,Net-(J1-Pad3)*%
X137160000Y-109220000D03*
%TO.P,U6,4*%
%TO.N,Net-(J1-Pad7)*%
X144780000Y-101600000D03*
%TO.P,U6,13*%
%TO.N,Net-(J1-Pad4)*%
X134620000Y-109220000D03*
%TO.P,U6,3*%
%TO.N,Net-(J1-Pad8)*%
X147320000Y-101600000D03*
%TO.P,U6,12*%
%TO.N,Net-(U1-Pad13)*%
X132080000Y-109220000D03*
%TO.P,U6,2*%
%TO.N,Net-(U1-Pad3)*%
X149860000Y-101600000D03*
%TO.P,U6,11*%
%TO.N,Net-(J1-Pad10)*%
X129540000Y-109220000D03*
D11*
%TO.P,U6,1*%
%TO.N,Net-(U18-Pad2)*%
X152400000Y-101600000D03*
%TD*%
D10*
%TO.P,U5,20*%
%TO.N,+5V*%
X153035000Y-124460000D03*
%TO.P,U5,10*%
%TO.N,GND*%
X130175000Y-116840000D03*
%TO.P,U5,19*%
%TO.N,Net-(J3-Pad16)*%
X150495000Y-124460000D03*
%TO.P,U5,9*%
%TO.N,Net-(J3-Pad12)*%
X132715000Y-116840000D03*
%TO.P,U5,18*%
%TO.N,Net-(U1-Pad18)*%
X147955000Y-124460000D03*
%TO.P,U5,8*%
%TO.N,Net-(U1-Pad8)*%
X135255000Y-116840000D03*
%TO.P,U5,17*%
%TO.N,Net-(U1-Pad17)*%
X145415000Y-124460000D03*
%TO.P,U5,7*%
%TO.N,Net-(U1-Pad7)*%
X137795000Y-116840000D03*
%TO.P,U5,16*%
%TO.N,Net-(J3-Pad15)*%
X142875000Y-124460000D03*
%TO.P,U5,6*%
%TO.N,Net-(J3-Pad11)*%
X140335000Y-116840000D03*
%TO.P,U5,15*%
%TO.N,Net-(J3-Pad14)*%
X140335000Y-124460000D03*
%TO.P,U5,5*%
%TO.N,Net-(J3-Pad10)*%
X142875000Y-116840000D03*
%TO.P,U5,14*%
%TO.N,Net-(U1-Pad14)*%
X137795000Y-124460000D03*
%TO.P,U5,4*%
%TO.N,Net-(U1-Pad4)*%
X145415000Y-116840000D03*
%TO.P,U5,13*%
%TO.N,Net-(U1-Pad13)*%
X135255000Y-124460000D03*
%TO.P,U5,3*%
%TO.N,Net-(U1-Pad3)*%
X147955000Y-116840000D03*
%TO.P,U5,12*%
%TO.N,Net-(J3-Pad13)*%
X132715000Y-124460000D03*
%TO.P,U5,2*%
%TO.N,Net-(J3-Pad9)*%
X150495000Y-116840000D03*
%TO.P,U5,11*%
%TO.N,Net-(U14-Pad8)*%
X130175000Y-124460000D03*
D11*
%TO.P,U5,1*%
%TO.N,GND*%
X153035000Y-116840000D03*
%TD*%
D10*
%TO.P,U4,40*%
%TO.N,Net-(R2-Pad2)*%
X124460000Y-64770000D03*
%TO.P,U4,20*%
%TO.N,Net-(U10-Pad23)*%
X172720000Y-80010000D03*
%TO.P,U4,39*%
%TO.N,Net-(U3-Pad13)*%
X127000000Y-64770000D03*
%TO.P,U4,19*%
%TO.N,Net-(U10-Pad21)*%
X170180000Y-80010000D03*
%TO.P,U4,38*%
%TO.N,+5V*%
X129540000Y-64770000D03*
%TO.P,U4,18*%
%TO.N,Net-(U10-Pad24)*%
X167640000Y-80010000D03*
%TO.P,U4,37*%
%TO.N,Net-(U4-Pad37)*%
X132080000Y-64770000D03*
%TO.P,U4,17*%
%TO.N,Net-(U10-Pad25)*%
X165100000Y-80010000D03*
%TO.P,U4,36*%
%TO.N,Net-(R4-Pad1)*%
X134620000Y-64770000D03*
%TO.P,U4,16*%
%TO.N,Net-(U10-Pad3)*%
X162560000Y-80010000D03*
%TO.P,U4,35*%
%TO.N,Net-(U4-Pad35)*%
X137160000Y-64770000D03*
%TO.P,U4,15*%
%TO.N,Net-(U10-Pad4)*%
X160020000Y-80010000D03*
%TO.P,U4,34*%
%TO.N,Net-(U3-Pad1)*%
X139700000Y-64770000D03*
%TO.P,U4,14*%
%TO.N,Net-(U10-Pad5)*%
X157480000Y-80010000D03*
%TO.P,U4,33*%
%TO.N,Net-(U1-Pad3)*%
X142240000Y-64770000D03*
%TO.P,U4,13*%
%TO.N,Net-(U10-Pad6)*%
X154940000Y-80010000D03*
%TO.P,U4,32*%
%TO.N,Net-(U1-Pad4)*%
X144780000Y-64770000D03*
%TO.P,U4,12*%
%TO.N,Net-(U10-Pad7)*%
X152400000Y-80010000D03*
%TO.P,U4,31*%
%TO.N,Net-(U1-Pad7)*%
X147320000Y-64770000D03*
%TO.P,U4,11*%
%TO.N,Net-(U10-Pad8)*%
X149860000Y-80010000D03*
%TO.P,U4,30*%
%TO.N,Net-(U1-Pad8)*%
X149860000Y-64770000D03*
%TO.P,U4,10*%
%TO.N,Net-(U10-Pad9)*%
X147320000Y-80010000D03*
%TO.P,U4,29*%
%TO.N,Net-(U1-Pad13)*%
X152400000Y-64770000D03*
%TO.P,U4,9*%
%TO.N,Net-(U10-Pad10)*%
X144780000Y-80010000D03*
%TO.P,U4,28*%
%TO.N,Net-(U1-Pad14)*%
X154940000Y-64770000D03*
%TO.P,U4,8*%
%TO.N,+5V*%
X142240000Y-80010000D03*
%TO.P,U4,27*%
%TO.N,Net-(U1-Pad17)*%
X157480000Y-64770000D03*
%TO.P,U4,7*%
%TO.N,Net-(U4-Pad7)*%
X139700000Y-80010000D03*
%TO.P,U4,26*%
%TO.N,Net-(U1-Pad18)*%
X160020000Y-64770000D03*
%TO.P,U4,6*%
%TO.N,Net-(R3-Pad1)*%
X137160000Y-80010000D03*
%TO.P,U4,25*%
%TO.N,Net-(U11-Pad17)*%
X162560000Y-64770000D03*
%TO.P,U4,5*%
%TO.N,Net-(U4-Pad5)*%
X134620000Y-80010000D03*
%TO.P,U4,24*%
%TO.N,Net-(U10-Pad1)*%
X165100000Y-64770000D03*
%TO.P,U4,4*%
%TO.N,Net-(J1-Pad12)*%
X132080000Y-80010000D03*
%TO.P,U4,23*%
%TO.N,Net-(U10-Pad26)*%
X167640000Y-64770000D03*
%TO.P,U4,3*%
%TO.N,Net-(U4-Pad3)*%
X129540000Y-80010000D03*
%TO.P,U4,22*%
%TO.N,Net-(U10-Pad2)*%
X170180000Y-64770000D03*
%TO.P,U4,2*%
%TO.N,Net-(R1-Pad1)*%
X127000000Y-80010000D03*
%TO.P,U4,21*%
%TO.N,GND*%
X172720000Y-64770000D03*
D11*
%TO.P,U4,1*%
%TO.N,Net-(U4-Pad1)*%
X124460000Y-80010000D03*
%TD*%
D10*
%TO.P,U3,14*%
%TO.N,+5V*%
X115570000Y-95250000D03*
%TO.P,U3,7*%
%TO.N,GND*%
X100330000Y-87630000D03*
%TO.P,U3,13*%
%TO.N,Net-(U3-Pad13)*%
X113030000Y-95250000D03*
%TO.P,U3,6*%
%TO.N,Net-(U17-Pad2)*%
X102870000Y-87630000D03*
%TO.P,U3,12*%
%TO.N,Net-(U14-Pad1)*%
X110490000Y-95250000D03*
%TO.P,U3,5*%
%TO.N,Net-(U17-Pad11)*%
X105410000Y-87630000D03*
%TO.P,U3,11*%
%TO.N,Net-(U3-Pad11)*%
X107950000Y-95250000D03*
%TO.P,U3,4*%
%TO.N,Net-(U10-Pad27)*%
X107950000Y-87630000D03*
%TO.P,U3,10*%
%TO.N,Net-(U3-Pad10)*%
X105410000Y-95250000D03*
%TO.P,U3,3*%
%TO.N,Net-(U3-Pad3)*%
X110490000Y-87630000D03*
%TO.P,U3,9*%
%TO.N,Net-(U11-Pad17)*%
X102870000Y-95250000D03*
%TO.P,U3,2*%
%TO.N,Net-(U10-Pad22)*%
X113030000Y-87630000D03*
%TO.P,U3,8*%
%TO.N,Net-(U13-Pad20)*%
X100330000Y-95250000D03*
D11*
%TO.P,U3,1*%
%TO.N,Net-(U3-Pad1)*%
X115570000Y-87630000D03*
%TD*%
D10*
%TO.P,U2,20*%
%TO.N,+5V*%
X123190000Y-109220000D03*
%TO.P,U2,10*%
%TO.N,GND*%
X100330000Y-101600000D03*
%TO.P,U2,19*%
%TO.N,Net-(U1-Pad18)*%
X120650000Y-109220000D03*
%TO.P,U2,9*%
%TO.N,Net-(U1-Pad8)*%
X102870000Y-101600000D03*
%TO.P,U2,18*%
%TO.N,Net-(J1-Pad1)*%
X118110000Y-109220000D03*
%TO.P,U2,8*%
%TO.N,Net-(J1-Pad5)*%
X105410000Y-101600000D03*
%TO.P,U2,17*%
%TO.N,Net-(J1-Pad2)*%
X115570000Y-109220000D03*
%TO.P,U2,7*%
%TO.N,Net-(J1-Pad6)*%
X107950000Y-101600000D03*
%TO.P,U2,16*%
%TO.N,Net-(U1-Pad17)*%
X113030000Y-109220000D03*
%TO.P,U2,6*%
%TO.N,Net-(U1-Pad7)*%
X110490000Y-101600000D03*
%TO.P,U2,15*%
%TO.N,Net-(U1-Pad14)*%
X110490000Y-109220000D03*
%TO.P,U2,5*%
%TO.N,Net-(U1-Pad4)*%
X113030000Y-101600000D03*
%TO.P,U2,14*%
%TO.N,Net-(J1-Pad3)*%
X107950000Y-109220000D03*
%TO.P,U2,4*%
%TO.N,Net-(J1-Pad7)*%
X115570000Y-101600000D03*
%TO.P,U2,13*%
%TO.N,Net-(J1-Pad4)*%
X105410000Y-109220000D03*
%TO.P,U2,3*%
%TO.N,Net-(J1-Pad8)*%
X118110000Y-101600000D03*
%TO.P,U2,12*%
%TO.N,Net-(U1-Pad13)*%
X102870000Y-109220000D03*
%TO.P,U2,2*%
%TO.N,Net-(U1-Pad3)*%
X120650000Y-101600000D03*
%TO.P,U2,11*%
%TO.N,Net-(J1-Pad11)*%
X100330000Y-109220000D03*
D11*
%TO.P,U2,1*%
%TO.N,Net-(U18-Pad1)*%
X123190000Y-101600000D03*
%TD*%
D10*
%TO.P,U1,20*%
%TO.N,+5V*%
X123190000Y-124460000D03*
%TO.P,U1,10*%
%TO.N,GND*%
X100330000Y-116840000D03*
%TO.P,U1,19*%
%TO.N,Net-(J3-Pad8)*%
X120650000Y-124460000D03*
%TO.P,U1,9*%
%TO.N,Net-(J3-Pad4)*%
X102870000Y-116840000D03*
%TO.P,U1,18*%
%TO.N,Net-(U1-Pad18)*%
X118110000Y-124460000D03*
%TO.P,U1,8*%
%TO.N,Net-(U1-Pad8)*%
X105410000Y-116840000D03*
%TO.P,U1,17*%
%TO.N,Net-(U1-Pad17)*%
X115570000Y-124460000D03*
%TO.P,U1,7*%
%TO.N,Net-(U1-Pad7)*%
X107950000Y-116840000D03*
%TO.P,U1,16*%
%TO.N,Net-(J3-Pad7)*%
X113030000Y-124460000D03*
%TO.P,U1,6*%
%TO.N,Net-(J3-Pad3)*%
X110490000Y-116840000D03*
%TO.P,U1,15*%
%TO.N,Net-(J3-Pad6)*%
X110490000Y-124460000D03*
%TO.P,U1,5*%
%TO.N,Net-(J3-Pad2)*%
X113030000Y-116840000D03*
%TO.P,U1,14*%
%TO.N,Net-(U1-Pad14)*%
X107950000Y-124460000D03*
%TO.P,U1,4*%
%TO.N,Net-(U1-Pad4)*%
X115570000Y-116840000D03*
%TO.P,U1,13*%
%TO.N,Net-(U1-Pad13)*%
X105410000Y-124460000D03*
%TO.P,U1,3*%
%TO.N,Net-(U1-Pad3)*%
X118110000Y-116840000D03*
%TO.P,U1,12*%
%TO.N,Net-(J3-Pad5)*%
X102870000Y-124460000D03*
%TO.P,U1,2*%
%TO.N,Net-(J3-Pad1)*%
X120650000Y-116840000D03*
%TO.P,U1,11*%
%TO.N,Net-(U1-Pad11)*%
X100330000Y-124460000D03*
D11*
%TO.P,U1,1*%
%TO.N,GND*%
X123190000Y-116840000D03*
%TD*%
D12*
%TO.P,X1,7*%
%TO.N,GND*%
X116840000Y-65405000D03*
%TO.P,X1,8*%
%TO.N,Net-(U4-Pad37)*%
X116840000Y-57785000D03*
%TO.P,X1,14*%
%TO.N,+5V*%
X101600000Y-57785000D03*
D11*
%TO.P,X1,1*%
%TO.N,Net-(X1-Pad1)*%
X101600000Y-65405000D03*
%TD*%
D13*
%TO.P,SW1,1*%
%TO.N,Net-(SW1-Pad1)*%
X99695000Y-74295000D03*
%TO.P,SW1,2*%
%TO.N,GND*%
X106195000Y-74295000D03*
%TO.P,SW1,3*%
%TO.N,Net-(SW1-Pad3)*%
X99695000Y-78795000D03*
%TO.P,SW1,4*%
%TO.N,Net-(R2-Pad2)*%
X106195000Y-78795000D03*
%TD*%
D10*
%TO.P,R4,2*%
%TO.N,+5V*%
X144780000Y-61595000D03*
D12*
%TO.P,R4,1*%
%TO.N,Net-(R4-Pad1)*%
X134620000Y-61595000D03*
%TD*%
D10*
%TO.P,R3,2*%
%TO.N,+5V*%
X147320000Y-83820000D03*
D12*
%TO.P,R3,1*%
%TO.N,Net-(R3-Pad1)*%
X137160000Y-83820000D03*
%TD*%
D10*
%TO.P,R2,2*%
%TO.N,Net-(R2-Pad2)*%
X109855000Y-83185000D03*
D12*
%TO.P,R2,1*%
%TO.N,+5V*%
X109855000Y-73025000D03*
%TD*%
D10*
%TO.P,R1,2*%
%TO.N,+5V*%
X117475000Y-73025000D03*
D12*
%TO.P,R1,1*%
%TO.N,Net-(R1-Pad1)*%
X117475000Y-83185000D03*
%TD*%
D14*
%TO.P,J5,2*%
%TO.N,Net-(J5-Pad2)*%
X212725000Y-140970000D03*
D15*
%TO.P,J5,1*%
%TO.N,Net-(J5-Pad1)*%
X210185000Y-140970000D03*
%TD*%
D14*
%TO.P,J4,5*%
%TO.N,Net-(J4-Pad5)*%
X201930000Y-140970000D03*
%TO.P,J4,4*%
%TO.N,Net-(J4-Pad4)*%
X199390000Y-140970000D03*
%TO.P,J4,3*%
%TO.N,Net-(J4-Pad3)*%
X196850000Y-140970000D03*
%TO.P,J4,2*%
%TO.N,Net-(J4-Pad2)*%
X194310000Y-140970000D03*
D15*
%TO.P,J4,1*%
%TO.N,Net-(J4-Pad1)*%
X191770000Y-140970000D03*
%TD*%
D14*
%TO.P,J3,18*%
%TO.N,Net-(J3-Pad18)*%
X187960000Y-140970000D03*
%TO.P,J3,17*%
%TO.N,Net-(J3-Pad17)*%
X185420000Y-140970000D03*
%TO.P,J3,16*%
%TO.N,Net-(J3-Pad16)*%
X182880000Y-140970000D03*
%TO.P,J3,15*%
%TO.N,Net-(J3-Pad15)*%
X180340000Y-140970000D03*
%TO.P,J3,14*%
%TO.N,Net-(J3-Pad14)*%
X177800000Y-140970000D03*
%TO.P,J3,13*%
%TO.N,Net-(J3-Pad13)*%
X175260000Y-140970000D03*
%TO.P,J3,12*%
%TO.N,Net-(J3-Pad12)*%
X172720000Y-140970000D03*
%TO.P,J3,11*%
%TO.N,Net-(J3-Pad11)*%
X170180000Y-140970000D03*
%TO.P,J3,10*%
%TO.N,Net-(J3-Pad10)*%
X167640000Y-140970000D03*
%TO.P,J3,9*%
%TO.N,Net-(J3-Pad9)*%
X165100000Y-140970000D03*
%TO.P,J3,8*%
%TO.N,Net-(J3-Pad8)*%
X162560000Y-140970000D03*
%TO.P,J3,7*%
%TO.N,Net-(J3-Pad7)*%
X160020000Y-140970000D03*
%TO.P,J3,6*%
%TO.N,Net-(J3-Pad6)*%
X157480000Y-140970000D03*
%TO.P,J3,5*%
%TO.N,Net-(J3-Pad5)*%
X154940000Y-140970000D03*
%TO.P,J3,4*%
%TO.N,Net-(J3-Pad4)*%
X152400000Y-140970000D03*
%TO.P,J3,3*%
%TO.N,Net-(J3-Pad3)*%
X149860000Y-140970000D03*
%TO.P,J3,2*%
%TO.N,Net-(J3-Pad2)*%
X147320000Y-140970000D03*
D15*
%TO.P,J3,1*%
%TO.N,Net-(J3-Pad1)*%
X144780000Y-140970000D03*
%TD*%
D14*
%TO.P,J2,5*%
%TO.N,GND*%
X231775000Y-140970000D03*
%TO.P,J2,4*%
X229235000Y-140970000D03*
%TO.P,J2,3*%
X226695000Y-140970000D03*
%TO.P,J2,2*%
%TO.N,+5V*%
X224155000Y-140970000D03*
D15*
%TO.P,J2,1*%
X221615000Y-140970000D03*
%TD*%
D14*
%TO.P,J1,13*%
%TO.N,GND*%
X135890000Y-140970000D03*
%TO.P,J1,12*%
%TO.N,Net-(J1-Pad12)*%
X133350000Y-140970000D03*
%TO.P,J1,11*%
%TO.N,Net-(J1-Pad11)*%
X130810000Y-140970000D03*
%TO.P,J1,10*%
%TO.N,Net-(J1-Pad10)*%
X128270000Y-140970000D03*
%TO.P,J1,9*%
%TO.N,Net-(J1-Pad9)*%
X125730000Y-140970000D03*
%TO.P,J1,8*%
%TO.N,Net-(J1-Pad8)*%
X123190000Y-140970000D03*
%TO.P,J1,7*%
%TO.N,Net-(J1-Pad7)*%
X120650000Y-140970000D03*
%TO.P,J1,6*%
%TO.N,Net-(J1-Pad6)*%
X118110000Y-140970000D03*
%TO.P,J1,5*%
%TO.N,Net-(J1-Pad5)*%
X115570000Y-140970000D03*
%TO.P,J1,4*%
%TO.N,Net-(J1-Pad4)*%
X113030000Y-140970000D03*
%TO.P,J1,3*%
%TO.N,Net-(J1-Pad3)*%
X110490000Y-140970000D03*
%TO.P,J1,2*%
%TO.N,Net-(J1-Pad2)*%
X107950000Y-140970000D03*
D15*
%TO.P,J1,1*%
%TO.N,Net-(J1-Pad1)*%
X105410000Y-140970000D03*
%TD*%
D16*
%TO.P,C5,2*%
%TO.N,GND*%
X251340000Y-136525000D03*
D17*
%TO.P,C5,1*%
%TO.N,+5V*%
X243840000Y-136525000D03*
%TD*%
D16*
%TO.P,C1,2*%
%TO.N,GND*%
X254515000Y-88900000D03*
D17*
%TO.P,C1,1*%
%TO.N,+5V*%
X247015000Y-88900000D03*
%TD*%
D18*
%TO.N,Net-(J1-Pad12)*%
X98515000Y-97790000D03*
X97170000Y-99606006D03*
X97170000Y-146035000D03*
X128270000Y-146035000D03*
%TO.N,Net-(J1-Pad11)*%
X102870000Y-114210000D03*
X104335153Y-122359847D03*
X105410000Y-127000000D03*
X104959999Y-138430000D03*
%TO.N,Net-(J1-Pad9)*%
X162560000Y-111670000D03*
X257913436Y-111125000D03*
X211455000Y-145415000D03*
X125730000Y-145310000D03*
%TO.N,Net-(J1-Pad8)*%
X120650000Y-99785000D03*
X163830000Y-107315000D03*
X167005000Y-107315000D03*
X125640000Y-99785000D03*
%TO.N,Net-(J1-Pad7)*%
X115570000Y-98000021D03*
X144780000Y-98000021D03*
X165100000Y-92075000D03*
X175260000Y-97790000D03*
X172720000Y-99695000D03*
X121495021Y-98000021D03*
%TO.N,Net-(J1-Pad6)*%
X160020000Y-99695000D03*
X137160000Y-103505000D03*
X110490000Y-97790000D03*
X107950000Y-97790000D03*
%TO.N,Net-(J1-Pad5)*%
X106045000Y-96520000D03*
X133350000Y-93980000D03*
%TO.N,Net-(J1-Pad4)*%
X106680000Y-119925000D03*
X160655000Y-118475000D03*
X136525000Y-118745000D03*
%TO.N,Net-(J1-Pad3)*%
X107950000Y-114935000D03*
X137160000Y-114935000D03*
X139065000Y-119925000D03*
X165100000Y-119200000D03*
X99060000Y-119380000D03*
X99060000Y-121375000D03*
X109855000Y-145310000D03*
%TO.N,Net-(J1-Pad2)*%
X115570000Y-111125000D03*
X152400000Y-111579999D03*
X154940000Y-119925000D03*
X175895000Y-119925000D03*
X145234999Y-111579999D03*
X107950000Y-145310000D03*
%TO.N,Net-(J1-Pad1)*%
X176530000Y-111125000D03*
X147229999Y-107405001D03*
X116840000Y-128270000D03*
X98425000Y-128270000D03*
X98425000Y-140970000D03*
%TO.N,Net-(J3-Pad16)*%
X158205000Y-136525000D03*
X182880000Y-136525000D03*
%TO.N,Net-(J3-Pad15)*%
X156210000Y-143240000D03*
X180340000Y-143510000D03*
%TO.N,Net-(J3-Pad14)*%
X153670000Y-143965000D03*
X177800000Y-144145000D03*
%TO.N,Net-(J3-Pad13)*%
X151765000Y-144690000D03*
X175260000Y-144690000D03*
%TO.N,Net-(J3-Pad12)*%
X140735000Y-127870000D03*
X172720000Y-127869999D03*
%TO.N,Net-(J3-Pad11)*%
X142875000Y-128270000D03*
X170180000Y-127869999D03*
%TO.N,Net-(J3-Pad10)*%
X144690000Y-127869999D03*
X167005000Y-128270000D03*
%TO.N,Net-(J3-Pad9)*%
X158115000Y-126365000D03*
X165735000Y-126365000D03*
%TO.N,Net-(J3-Pad8)*%
X120650000Y-138430000D03*
%TO.N,Net-(J3-Pad7)*%
X113665000Y-135435001D03*
%TO.N,Net-(J3-Pad6)*%
X110490000Y-132715000D03*
X157480000Y-133985000D03*
%TO.N,Net-(J3-Pad5)*%
X100965000Y-137160000D03*
%TO.N,Net-(J3-Pad4)*%
X126545001Y-116205000D03*
X131458460Y-142266921D03*
%TO.N,Net-(J3-Pad3)*%
X116840000Y-142875000D03*
X149860000Y-144690000D03*
%TO.N,Net-(J3-Pad2)*%
X119380000Y-144145000D03*
X146050000Y-144690000D03*
%TO.N,Net-(J3-Pad1)*%
X120650000Y-113030000D03*
X123190000Y-113030000D03*
X123825000Y-144780000D03*
X144780000Y-144690000D03*
%TO.N,Net-(U1-Pad11)*%
X252806564Y-96443436D03*
X243205000Y-134165000D03*
X100330000Y-134620000D03*
%TO.N,Net-(U1-Pad13)*%
X181610000Y-83275000D03*
X171540000Y-83275000D03*
X171522108Y-98497108D03*
X162560000Y-99060000D03*
X161290000Y-111670000D03*
X102870000Y-112395000D03*
X132080000Y-112305000D03*
X222885000Y-125820000D03*
X193529999Y-121774999D03*
X102870000Y-121920000D03*
X135400001Y-121774999D03*
X164954999Y-121774999D03*
%TO.N,Net-(U1-Pad8)*%
X170815000Y-82550000D03*
X170815000Y-97790000D03*
X161290000Y-97790000D03*
X222885000Y-123735000D03*
X215757685Y-123292380D03*
X210820000Y-122555000D03*
X105410000Y-122555000D03*
X133985000Y-122555000D03*
X163195000Y-122555000D03*
X194513157Y-122499999D03*
%TO.N,Net-(U1-Pad14)*%
X184150000Y-84000000D03*
X172265000Y-84000000D03*
X108094999Y-127144999D03*
X137650001Y-127144999D03*
X167149999Y-127144999D03*
X196359999Y-127144999D03*
X110490000Y-106045000D03*
X161290000Y-106045000D03*
X163285000Y-106045000D03*
X168910000Y-106045000D03*
X139700000Y-106045000D03*
%TO.N,Net-(U1-Pad7)*%
X184150000Y-60960000D03*
X184150000Y-58420000D03*
X119380000Y-81280000D03*
X110490000Y-104775000D03*
X161290000Y-104775000D03*
X163285000Y-104775000D03*
X168910000Y-104775000D03*
X139700000Y-104775000D03*
X108585000Y-99785000D03*
X98159857Y-99785000D03*
X97895000Y-120650000D03*
X225425000Y-125185000D03*
X196215000Y-120740000D03*
X167005000Y-120650000D03*
X137795000Y-120650000D03*
X107950000Y-120650000D03*
%TO.N,Net-(U1-Pad17)*%
X186690000Y-85090000D03*
X182790000Y-106045000D03*
X203835000Y-131264999D03*
X115750001Y-131264999D03*
X145234999Y-131264999D03*
X174805001Y-131264999D03*
%TO.N,Net-(U1-Pad4)*%
X185150003Y-60960000D03*
X185420000Y-55155000D03*
X250190000Y-56515000D03*
X243295000Y-56515000D03*
X222250000Y-56515000D03*
X203835000Y-113755000D03*
X115570000Y-113665000D03*
X145325000Y-113755000D03*
X174625000Y-113755000D03*
X170090000Y-113755000D03*
%TO.N,Net-(U1-Pad18)*%
X198755000Y-74295000D03*
X118110000Y-132715000D03*
X148045001Y-131989999D03*
X177165000Y-132080000D03*
X206284999Y-131989999D03*
%TO.N,Net-(U1-Pad3)*%
X189230000Y-57785000D03*
X179070000Y-105320000D03*
X179070000Y-106770000D03*
%TO.N,Net-(U18-Pad1)*%
X125095000Y-113030000D03*
%TO.N,Net-(U13-Pad20)*%
X232410000Y-54700000D03*
%TO.N,Net-(U11-Pad17)*%
X245110000Y-91440000D03*
%TO.N,Net-(U17-Pad2)*%
X110490000Y-90805000D03*
X197485000Y-90805000D03*
X200025000Y-90805000D03*
X215265000Y-90805000D03*
%TO.N,Net-(U17-Pad11)*%
X169545000Y-93345000D03*
X189865000Y-92075000D03*
X212725000Y-104775000D03*
X212580001Y-97934999D03*
%TO.N,Net-(U10-Pad27)*%
X204470000Y-76290000D03*
%TO.N,Net-(U14-Pad1)*%
X211455000Y-104140000D03*
X113665000Y-98335000D03*
X155575000Y-97550011D03*
%TO.N,Net-(U3-Pad13)*%
X113030000Y-92075000D03*
X137160000Y-92075000D03*
%TO.N,Net-(U10-Pad22)*%
X192405000Y-86360000D03*
X139065000Y-85090000D03*
%TO.N,Net-(U10-Pad23)*%
X190500000Y-78830000D03*
X194945000Y-78740000D03*
%TO.N,Net-(U10-Pad2)*%
X186055000Y-99060000D03*
X186690000Y-109855000D03*
X242570000Y-54700000D03*
%TO.N,Net-(U10-Pad21)*%
X198120000Y-75565000D03*
X223520000Y-76290000D03*
X172085000Y-78195000D03*
%TO.N,Net-(U10-Pad26)*%
X186055000Y-89535000D03*
X188595000Y-89535000D03*
X206375000Y-89535000D03*
X220980000Y-90170000D03*
X224790000Y-90170000D03*
X232690049Y-80999951D03*
%TO.N,Net-(U10-Pad24)*%
X237490000Y-83095000D03*
X239485000Y-83185000D03*
X195580000Y-81280000D03*
%TO.N,Net-(U10-Pad1)*%
X243840000Y-59145000D03*
X185420000Y-108585000D03*
X252730000Y-62230000D03*
%TO.N,Net-(U10-Pad25)*%
X237490000Y-82094997D03*
X243840000Y-82550000D03*
X201295000Y-76835000D03*
%TO.N,Net-(U10-Pad4)*%
X243840000Y-72480000D03*
%TO.N,Net-(U10-Pad5)*%
X241300000Y-73205000D03*
%TO.N,Net-(U10-Pad6)*%
X238760000Y-73930000D03*
%TO.N,Net-(U10-Pad7)*%
X236220000Y-74655000D03*
X253910000Y-76835000D03*
%TO.N,Net-(U10-Pad8)*%
X233680000Y-75565000D03*
%TO.N,Net-(U10-Pad9)*%
X231140000Y-57695000D03*
X245110000Y-57695000D03*
X255270000Y-82550000D03*
%TO.N,Net-(U10-Pad10)*%
X228600000Y-55245000D03*
%TO.N,Net-(U14-Pad8)*%
X224790000Y-107315000D03*
X257188436Y-107315000D03*
X240030000Y-135435001D03*
X130175000Y-135435001D03*
%TO.N,Net-(U18-Pad2)*%
X154940000Y-112305000D03*
%TO.N,Net-(U14-Pad6)*%
X244475000Y-133440000D03*
X159385000Y-133985000D03*
%TO.N,Net-(U18-Pad3)*%
X183515000Y-111670000D03*
%TO.N,Net-(U10-Pad20)*%
X189817725Y-85381969D03*
X199194847Y-85529847D03*
%TO.N,Net-(U11-Pad19)*%
X211455000Y-99060000D03*
X217170000Y-99060000D03*
%TO.N,Net-(U12-Pad11)*%
X245110000Y-132080000D03*
X188595000Y-132715000D03*
%TO.N,Net-(U15-Pad11)*%
X217805000Y-128270000D03*
%TO.N,Net-(U16-Pad19)*%
X188595000Y-92075000D03*
X206450154Y-93904846D03*
%TO.N,Net-(U17-Pad4)*%
X242570000Y-95250000D03*
%TD*%
D19*
%TO.N,Net-(J1-Pad12)*%
X98515000Y-97790000D02*
X98515000Y-98261006D01*
X98515000Y-98261006D02*
X97170000Y-99606006D01*
X97170000Y-146035000D02*
X128255000Y-146035000D01*
X128255000Y-146035000D02*
X128270000Y-146050000D01*
X128270000Y-146050000D02*
X128270000Y-146035000D01*
%TO.N,Net-(J1-Pad11)*%
X100330000Y-109220000D02*
X100330000Y-111125000D01*
X100330000Y-111125000D02*
X102870000Y-113665000D01*
X102870000Y-113665000D02*
X102870000Y-114210000D01*
X106535001Y-123919999D02*
X106535001Y-125874999D01*
X105950001Y-123334999D02*
X106535001Y-123919999D01*
X104744620Y-123334999D02*
X105950001Y-123334999D01*
X104335153Y-122359847D02*
X104335153Y-122925532D01*
X104335153Y-122925532D02*
X104744620Y-123334999D01*
X106535001Y-125874999D02*
X105410000Y-127000000D01*
X129634999Y-142145001D02*
X130810000Y-140970000D01*
X109925999Y-142145001D02*
X129634999Y-142145001D01*
X109314999Y-141534001D02*
X109925999Y-142145001D01*
X109314999Y-140595997D02*
X109314999Y-141534001D01*
X107149002Y-138430000D02*
X109314999Y-140595997D01*
X104959999Y-138430000D02*
X107149002Y-138430000D01*
%TO.N,Net-(J1-Pad9)*%
X183531997Y-110580001D02*
X257265001Y-110580001D01*
X182261997Y-111850001D02*
X183531997Y-110580001D01*
X162560000Y-111670000D02*
X162740001Y-111850001D01*
X162740001Y-111850001D02*
X182261997Y-111850001D01*
X257265001Y-110580001D02*
X257810000Y-111125000D01*
X257810000Y-111125000D02*
X257913436Y-111125000D01*
X211455000Y-145415000D02*
X130175000Y-145415000D01*
X130069999Y-145309999D02*
X125835001Y-145309999D01*
X130175000Y-145415000D02*
X130069999Y-145309999D01*
X125835001Y-145309999D02*
X125835000Y-145310000D01*
X125835000Y-145310000D02*
X125730000Y-145310000D01*
%TO.N,Net-(J1-Pad8)*%
X147320000Y-100965000D02*
X147320000Y-101600000D01*
X146140000Y-99785000D02*
X147320000Y-100965000D01*
X163830000Y-107315000D02*
X167005000Y-107315000D01*
X120650000Y-99785000D02*
X125640000Y-99785000D01*
X125640000Y-99785000D02*
X146140000Y-99785000D01*
%TO.N,Net-(J1-Pad7)*%
X144569979Y-98000021D02*
X144780000Y-98000021D01*
X174480001Y-97010001D02*
X175260000Y-97790000D01*
X171163001Y-81824999D02*
X174480001Y-85141999D01*
X165100000Y-92075000D02*
X170089999Y-87085001D01*
X174480001Y-85141999D02*
X174480001Y-97010001D01*
X170089999Y-87085001D02*
X170089999Y-82201999D01*
X170089999Y-82201999D02*
X170466999Y-81824999D01*
X170466999Y-81824999D02*
X171163001Y-81824999D01*
X172720000Y-100330000D02*
X173990000Y-101600000D01*
X172720000Y-99695000D02*
X172720000Y-100330000D01*
X115570000Y-98000021D02*
X121495021Y-98000021D01*
X121495021Y-98000021D02*
X144569979Y-98000021D01*
%TO.N,Net-(J1-Pad6)*%
X107950000Y-101600000D02*
X107950000Y-103505000D01*
X160020000Y-101995002D02*
X160020000Y-99695000D01*
X107950000Y-103505000D02*
X158510002Y-103505000D01*
X158510002Y-103505000D02*
X160020000Y-101995002D01*
X110490000Y-97790000D02*
X107950000Y-97790000D01*
%TO.N,Net-(J1-Pad5)*%
X163830000Y-99256998D02*
X163830000Y-101600000D01*
X161398013Y-96825011D02*
X163830000Y-99256998D01*
X106045000Y-96520000D02*
X106350011Y-96825011D01*
X133020011Y-96214989D02*
X133350000Y-95885000D01*
X133020011Y-96825011D02*
X161398013Y-96825011D01*
X133020011Y-96825011D02*
X133020011Y-96214989D01*
X106350011Y-96825011D02*
X133020011Y-96825011D01*
X133350000Y-95885000D02*
X133350000Y-93980000D01*
%TO.N,Net-(J1-Pad4)*%
X106680000Y-119925000D02*
X107860000Y-118745000D01*
X160385000Y-118745000D02*
X160655000Y-118475000D01*
X107860000Y-118745000D02*
X136525000Y-118745000D01*
X136525000Y-118745000D02*
X160385000Y-118745000D01*
%TO.N,Net-(J1-Pad3)*%
X107950000Y-114935000D02*
X137160000Y-114935000D01*
X139065000Y-119925000D02*
X153580000Y-119925000D01*
X153580000Y-119925000D02*
X154305000Y-119200000D01*
X154305000Y-119200000D02*
X165100000Y-119200000D01*
X107950000Y-114935000D02*
X98425000Y-114935000D01*
X97790000Y-115570000D02*
X97790000Y-118110000D01*
X98425000Y-114935000D02*
X97790000Y-115570000D01*
X97790000Y-118110000D02*
X99060000Y-119380000D01*
X97699999Y-144054999D02*
X98609990Y-144964990D01*
X101455001Y-123770001D02*
X101455001Y-125000001D01*
X99060000Y-121375000D02*
X101455001Y-123770001D01*
X101455001Y-125000001D02*
X98910003Y-127544999D01*
X98910003Y-127544999D02*
X98076999Y-127544999D01*
X98076999Y-127544999D02*
X97699999Y-127921999D01*
X97699999Y-127921999D02*
X97699999Y-144054999D01*
X98989981Y-144584999D02*
X109024999Y-144584999D01*
X98609990Y-144964990D02*
X98989981Y-144584999D01*
X109024999Y-144584999D02*
X109750000Y-145310000D01*
X109750000Y-145310000D02*
X109855000Y-145310000D01*
%TO.N,Net-(J1-Pad2)*%
X115570000Y-111125000D02*
X116024999Y-111579999D01*
X154940000Y-119925000D02*
X175805000Y-119925000D01*
X175805000Y-119925000D02*
X175895000Y-119925000D01*
X116024999Y-111579999D02*
X145234999Y-111579999D01*
X145234999Y-111579999D02*
X152400000Y-111579999D01*
X99789999Y-108094999D02*
X99645000Y-107950000D01*
X115570000Y-109220000D02*
X114444999Y-108094999D01*
X114444999Y-108094999D02*
X99789999Y-108094999D01*
X99645000Y-107950000D02*
X97790000Y-107950000D01*
X97169999Y-108570001D02*
X97169999Y-144159999D01*
X97790000Y-107950000D02*
X97169999Y-108570001D01*
X97169999Y-144159999D02*
X97169999Y-144794999D01*
X97169999Y-144794999D02*
X97790000Y-145415000D01*
X97790000Y-145415000D02*
X107845000Y-145415000D01*
X107845000Y-145415000D02*
X107950000Y-145310000D01*
%TO.N,Net-(J1-Pad1)*%
X118110000Y-109220000D02*
X118110000Y-106680000D01*
X118200001Y-106770001D02*
X147229999Y-106770001D01*
X118110000Y-106680000D02*
X118200001Y-106770001D01*
X149770023Y-110795024D02*
X176200024Y-110795024D01*
X147229999Y-108255001D02*
X149770023Y-110795024D01*
X176200024Y-110795024D02*
X176530000Y-111125000D01*
X147229999Y-106770001D02*
X147229999Y-107405001D01*
X147229999Y-107405001D02*
X147229999Y-108255001D01*
X116840000Y-128270000D02*
X98425000Y-128270000D01*
X98425000Y-140970000D02*
X105410000Y-140970000D01*
%TO.N,Net-(J3-Pad16)*%
X158205000Y-136525000D02*
X182880000Y-136525000D01*
%TO.N,Net-(J3-Pad15)*%
X156210000Y-143240000D02*
X180070000Y-143240000D01*
X180070000Y-143240000D02*
X180340000Y-143510000D01*
%TO.N,Net-(J3-Pad14)*%
X153670000Y-143965000D02*
X177620000Y-143965000D01*
X177620000Y-143965000D02*
X177800000Y-144145000D01*
%TO.N,Net-(J3-Pad13)*%
X151765000Y-144690000D02*
X175170000Y-144690000D01*
X175170000Y-144690000D02*
X175260000Y-144690000D01*
%TO.N,Net-(J3-Pad12)*%
X142310011Y-129445011D02*
X170909989Y-129445011D01*
X140735000Y-127870000D02*
X142310011Y-129445011D01*
X170909989Y-129445011D02*
X172485001Y-127869999D01*
X172485001Y-127869999D02*
X172720000Y-127869999D01*
%TO.N,Net-(J3-Pad11)*%
X152000001Y-128669999D02*
X152349992Y-128320009D01*
X142875000Y-128270000D02*
X143274999Y-128669999D01*
X143274999Y-128669999D02*
X152000001Y-128669999D01*
X152349992Y-128320009D02*
X164465000Y-128320009D01*
X165139992Y-128995001D02*
X168819999Y-128995001D01*
X164465000Y-128320009D02*
X165139992Y-128995001D01*
X168819999Y-128995001D02*
X169945001Y-127869999D01*
X169945001Y-127869999D02*
X170180000Y-127869999D01*
%TO.N,Net-(J3-Pad10)*%
X144690000Y-127869999D02*
X166801998Y-127870000D01*
X166801998Y-127870000D02*
X166801998Y-128066998D01*
X166801998Y-128066998D02*
X167005000Y-128270000D01*
%TO.N,Net-(J3-Pad9)*%
X158115000Y-126365000D02*
X165735000Y-126365000D01*
%TO.N,Net-(J3-Pad8)*%
X120650000Y-138430000D02*
X121114979Y-138894979D01*
X160484979Y-138894979D02*
X162560000Y-140970000D01*
X121114979Y-138894979D02*
X160484979Y-138894979D01*
%TO.N,Net-(J3-Pad7)*%
X113665000Y-135435001D02*
X117574988Y-139344989D01*
X158394989Y-139344989D02*
X160020000Y-140970000D01*
X117574988Y-139344989D02*
X158394989Y-139344989D01*
%TO.N,Net-(J3-Pad6)*%
X110490000Y-132715000D02*
X111760000Y-133985000D01*
X111760000Y-133985000D02*
X157480000Y-133985000D01*
%TO.N,Net-(J3-Pad5)*%
X100965000Y-137160000D02*
X106680000Y-137160000D01*
X106680000Y-137160000D02*
X109314999Y-139794999D01*
X153764999Y-139794999D02*
X154940000Y-140970000D01*
X109314999Y-139794999D02*
X153764999Y-139794999D01*
%TO.N,Net-(J3-Pad4)*%
X103995001Y-115714999D02*
X125874999Y-115714999D01*
X102870000Y-116840000D02*
X103995001Y-115714999D01*
X125874999Y-115714999D02*
X126365000Y-116205000D01*
X126365000Y-116205000D02*
X126545001Y-116205000D01*
X151103079Y-142266921D02*
X152400000Y-140970000D01*
X131458460Y-142266921D02*
X151103079Y-142266921D01*
%TO.N,Net-(J3-Pad3)*%
X119157007Y-143294991D02*
X145834991Y-143294991D01*
X118654999Y-143796999D02*
X119157007Y-143294991D01*
X118654999Y-144493001D02*
X118654999Y-143796999D01*
X119666999Y-145505001D02*
X118654999Y-144493001D01*
X116840000Y-142875000D02*
X119470001Y-145505001D01*
X119470001Y-145505001D02*
X119666999Y-145505001D01*
X145834991Y-143294991D02*
X147230000Y-144690000D01*
X147230000Y-144690000D02*
X149860000Y-144690000D01*
%TO.N,Net-(J3-Pad2)*%
X119380000Y-144145000D02*
X119779999Y-143745001D01*
X145105001Y-143745001D02*
X146050000Y-144690000D01*
X119779999Y-143745001D02*
X145105001Y-143745001D01*
%TO.N,Net-(J3-Pad1)*%
X120650000Y-113030000D02*
X123190000Y-113030000D01*
X124224999Y-144380001D02*
X144380001Y-144380001D01*
X123825000Y-144780000D02*
X124224999Y-144380001D01*
X144380001Y-144380001D02*
X144690000Y-144690000D01*
X144690000Y-144690000D02*
X144780000Y-144690000D01*
%TO.N,Net-(U1-Pad11)*%
X231775000Y-95250000D02*
X232968436Y-96443436D01*
X232968436Y-96443436D02*
X252806564Y-96443436D01*
X100420001Y-134710001D02*
X100330000Y-134620000D01*
X243205000Y-134165000D02*
X242659999Y-134710001D01*
X242659999Y-134710001D02*
X100420001Y-134710001D01*
%TO.N,Net-(U1-Pad13)*%
X176425040Y-74825040D02*
X181610000Y-80010000D01*
X162455040Y-74825040D02*
X176425040Y-74825040D01*
X152400000Y-64770000D02*
X162455040Y-74825040D01*
X181610000Y-80010000D02*
X181610000Y-83275000D01*
X171540000Y-83275000D02*
X171540000Y-98479216D01*
X171540000Y-98479216D02*
X171522108Y-98497108D01*
X162560000Y-107950000D02*
X161290000Y-109220000D01*
X162560000Y-99060000D02*
X162560000Y-107950000D01*
X160890001Y-111270001D02*
X154794999Y-111270001D01*
X161290000Y-111670000D02*
X160890001Y-111270001D01*
X154794999Y-111270001D02*
X153670000Y-112395000D01*
X102960001Y-112304999D02*
X102870000Y-112395000D01*
X153670000Y-112395000D02*
X153579999Y-112304999D01*
X153579999Y-112304999D02*
X102960001Y-112304999D01*
X105410000Y-121375000D02*
X105809999Y-121774999D01*
X211309999Y-121774999D02*
X215265000Y-125730000D01*
X215265000Y-125730000D02*
X222795000Y-125730000D01*
X222795000Y-125730000D02*
X222885000Y-125820000D01*
X193529999Y-121774999D02*
X211309999Y-121774999D01*
X105410000Y-121375000D02*
X103415000Y-121375000D01*
X103415000Y-121375000D02*
X102870000Y-121920000D01*
X105809999Y-121774999D02*
X135400001Y-121774999D01*
X135400001Y-121774999D02*
X164954999Y-121774999D01*
X164954999Y-121774999D02*
X193529999Y-121774999D01*
%TO.N,Net-(U1-Pad8)*%
X174335050Y-75275050D02*
X179070000Y-80010000D01*
X160365050Y-75275050D02*
X174335050Y-75275050D01*
X149860000Y-64770000D02*
X160365050Y-75275050D01*
X170815000Y-82550000D02*
X170815000Y-97790000D01*
X161290000Y-97790000D02*
X161290000Y-101600000D01*
X222885000Y-123735000D02*
X216200305Y-123735000D01*
X216200305Y-123735000D02*
X215757685Y-123292380D01*
X133985000Y-122555000D02*
X105410000Y-122555000D01*
X210820000Y-122555000D02*
X163195000Y-122555000D01*
X163195000Y-122555000D02*
X133985000Y-122555000D01*
X213450001Y-102323591D02*
X209734991Y-98608581D01*
X213450001Y-105123001D02*
X213450001Y-102323591D01*
X213073001Y-105500001D02*
X213450001Y-105123001D01*
X190009999Y-94709999D02*
X190009999Y-95790001D01*
X187869999Y-92569999D02*
X190009999Y-94709999D01*
X187869999Y-88940001D02*
X187869999Y-92569999D01*
X182441999Y-106770001D02*
X186946411Y-106770001D01*
X187630011Y-89179989D02*
X187869999Y-88940001D01*
X160164999Y-108679999D02*
X160164999Y-109760001D01*
X160749999Y-110345001D02*
X169450001Y-110345001D01*
X187630011Y-92620009D02*
X187630011Y-89179989D01*
X160164999Y-109760001D02*
X160749999Y-110345001D01*
X161290000Y-101600000D02*
X162109990Y-102419990D01*
X162109990Y-106735008D02*
X160164999Y-108679999D01*
X190009999Y-95790001D02*
X199719999Y-105500001D01*
X162109990Y-102419990D02*
X162109990Y-106735008D01*
X170035001Y-109760001D02*
X170035001Y-108731409D01*
X176041409Y-102725001D02*
X178396999Y-102725001D01*
X199719999Y-105500001D02*
X213073001Y-105500001D01*
X178396999Y-102725001D02*
X182441999Y-106770001D01*
X186946411Y-106770001D02*
X189720001Y-103996411D01*
X169450001Y-110345001D02*
X170035001Y-109760001D01*
X170035001Y-108731409D02*
X176041409Y-102725001D01*
X189720001Y-103996411D02*
X189720001Y-94709999D01*
X189720001Y-94709999D02*
X187630011Y-92620009D01*
%TO.N,Net-(U1-Pad14)*%
X178515030Y-74375030D02*
X184150000Y-80010000D01*
X164545030Y-74375030D02*
X178515030Y-74375030D01*
X154940000Y-64770000D02*
X164545030Y-74375030D01*
X184150000Y-80010000D02*
X184150000Y-84000000D01*
X170035001Y-108094999D02*
X168910000Y-109220000D01*
X172247109Y-99137889D02*
X170035001Y-101349997D01*
X170035001Y-101349997D02*
X170035001Y-108094999D01*
X172247109Y-98149107D02*
X172247109Y-99137889D01*
X171990010Y-97892008D02*
X172247109Y-98149107D01*
X171990010Y-84274990D02*
X171990010Y-97892008D01*
X172265000Y-84000000D02*
X171990010Y-84274990D01*
X225425000Y-128270000D02*
X224299999Y-127144999D01*
X137650001Y-127144999D02*
X108094999Y-127144999D01*
X167149999Y-127144999D02*
X137650001Y-127144999D01*
X224299999Y-127144999D02*
X196359999Y-127144999D01*
X196359999Y-127144999D02*
X167149999Y-127144999D01*
X110490000Y-106045000D02*
X161290000Y-106045000D01*
X163285000Y-106045000D02*
X168910000Y-106045000D01*
%TO.N,Net-(U1-Pad7)*%
X147320000Y-64770000D02*
X153670000Y-58420000D01*
X175260000Y-58420000D02*
X181610000Y-64770000D01*
X153670000Y-58420000D02*
X175260000Y-58420000D01*
X184150000Y-60960000D02*
X184150000Y-58420000D01*
X134024991Y-66635009D02*
X119380000Y-81280000D01*
X147320000Y-64770000D02*
X145454991Y-66635009D01*
X145454991Y-66635009D02*
X134024991Y-66635009D01*
X163285000Y-104775000D02*
X168910000Y-104775000D01*
X110490000Y-104775000D02*
X139700000Y-104775000D01*
X139700000Y-104775000D02*
X161290000Y-104775000D01*
X108585000Y-99785000D02*
X98159857Y-99785000D01*
X211453590Y-120650000D02*
X215898590Y-125095000D01*
X215898590Y-125095000D02*
X225425000Y-125095000D01*
X167005000Y-120650000D02*
X211453590Y-120650000D01*
X137795000Y-120650000D02*
X167005000Y-120650000D01*
X97895000Y-120650000D02*
X107950000Y-120650000D01*
X107950000Y-120650000D02*
X137795000Y-120650000D01*
%TO.N,Net-(U1-Pad17)*%
X180605020Y-73925020D02*
X186690000Y-80010000D01*
X166635020Y-73925020D02*
X180605020Y-73925020D01*
X157480000Y-64770000D02*
X166635020Y-73925020D01*
X186690000Y-80010000D02*
X186690000Y-85090000D01*
X187180001Y-85580001D02*
X187180001Y-105900001D01*
X186690000Y-85090000D02*
X187180001Y-85580001D01*
X187180001Y-105900001D02*
X187035002Y-106045000D01*
X187035002Y-106045000D02*
X182790000Y-106045000D01*
X233045000Y-128270000D02*
X229775011Y-131539989D01*
X229775011Y-131539989D02*
X218534989Y-131539989D01*
X218259998Y-131264998D02*
X204015002Y-131264998D01*
X218534989Y-131539989D02*
X218259998Y-131264998D01*
X204015002Y-131264998D02*
X204015001Y-131264999D01*
X204015001Y-131264999D02*
X203835000Y-131264999D01*
X145234999Y-131264999D02*
X115750001Y-131264999D01*
X203835000Y-131264999D02*
X174805001Y-131264999D01*
X174805001Y-131264999D02*
X145234999Y-131264999D01*
%TO.N,Net-(U1-Pad4)*%
X177349991Y-57969991D02*
X184150000Y-64770000D01*
X151580009Y-57969991D02*
X177349991Y-57969991D01*
X144780000Y-64770000D02*
X151580009Y-57969991D01*
X185150003Y-60960000D02*
X185150003Y-55424997D01*
X185150003Y-55424997D02*
X185420000Y-55155000D01*
X233045000Y-120650000D02*
X233045000Y-118745000D01*
X233045000Y-118745000D02*
X252730000Y-118745000D01*
X258813456Y-65138456D02*
X250190000Y-56515000D01*
X252730000Y-118745000D02*
X258813456Y-112661544D01*
X258813456Y-112661544D02*
X258813456Y-65138456D01*
X243295000Y-56515000D02*
X222250000Y-56515000D01*
X218440000Y-118745000D02*
X213175010Y-113480010D01*
X233045000Y-118745000D02*
X218440000Y-118745000D01*
X203835001Y-113755001D02*
X203835000Y-113755000D01*
X213175010Y-113480010D02*
X212900019Y-113755001D01*
X212900019Y-113755001D02*
X203835001Y-113755001D01*
X115660000Y-113755000D02*
X115570000Y-113665000D01*
X145325000Y-113755000D02*
X115660000Y-113755000D01*
X203835000Y-113755000D02*
X170090000Y-113755000D01*
X170090000Y-113755000D02*
X145325000Y-113755000D01*
%TO.N,Net-(U1-Pad18)*%
X182695010Y-73475010D02*
X189230000Y-80010000D01*
X168725010Y-73475010D02*
X182695010Y-73475010D01*
X160020000Y-64770000D02*
X168725010Y-73475010D01*
X193813630Y-74295000D02*
X198755000Y-74295000D01*
X189230000Y-80010000D02*
X189230000Y-78878630D01*
X189230000Y-78878630D02*
X193813630Y-74295000D01*
X235585000Y-128270000D02*
X235585000Y-132080000D01*
X235585000Y-132080000D02*
X235494999Y-131989999D01*
X118835001Y-131989999D02*
X118110000Y-132715000D01*
X148045001Y-131989999D02*
X118835001Y-131989999D01*
X235494999Y-131989999D02*
X206284999Y-131989999D01*
X206284999Y-131989999D02*
X148045001Y-131989999D01*
%TO.N,Net-(U1-Pad3)*%
X179439982Y-57519982D02*
X186690000Y-64770000D01*
X147190016Y-57519982D02*
X179439982Y-57519982D01*
X142240000Y-62469998D02*
X147190016Y-57519982D01*
X142240000Y-64770000D02*
X142240000Y-62469998D01*
X186690000Y-64770000D02*
X186690000Y-60325000D01*
X186690000Y-60325000D02*
X189230000Y-57785000D01*
X102329999Y-86504999D02*
X101600000Y-87234998D01*
X130954999Y-65310001D02*
X109760001Y-86504999D01*
X140825001Y-66184999D02*
X140825001Y-64229999D01*
X142240000Y-64770000D02*
X140825001Y-66184999D01*
X140825001Y-64229999D02*
X140240001Y-63644999D01*
X140240001Y-63644999D02*
X131539999Y-63644999D01*
X131539999Y-63644999D02*
X130954999Y-64229999D01*
X109760001Y-86504999D02*
X102329999Y-86504999D01*
X130954999Y-64229999D02*
X130954999Y-65310001D01*
X101600000Y-95645002D02*
X105014998Y-99060000D01*
X101600000Y-87234998D02*
X101600000Y-95645002D01*
X118110000Y-99060000D02*
X120650000Y-101600000D01*
X105014998Y-99060000D02*
X118110000Y-99060000D01*
X179070000Y-105320000D02*
X179070000Y-106770000D01*
X118110000Y-99060000D02*
X149860000Y-99060000D01*
X149860000Y-99060000D02*
X149860000Y-101600000D01*
X147955000Y-116840000D02*
X147955000Y-114935000D01*
X147955000Y-114935000D02*
X177165000Y-114935000D01*
X177165000Y-114935000D02*
X177165000Y-116840000D01*
X177165000Y-116840000D02*
X177165000Y-120015000D01*
X177165000Y-120015000D02*
X206375000Y-120015000D01*
X206375000Y-120015000D02*
X206375000Y-116840000D01*
X206375000Y-120015000D02*
X211455000Y-120015000D01*
X211455000Y-120015000D02*
X215900000Y-124460000D01*
X215900000Y-124460000D02*
X235585000Y-124460000D01*
X235585000Y-124460000D02*
X235585000Y-120650000D01*
%TO.N,Net-(U18-Pad1)*%
X223520000Y-114300000D02*
X220345000Y-114300000D01*
X220345000Y-114300000D02*
X219075000Y-113030000D01*
X219075000Y-113030000D02*
X125730000Y-113030000D01*
X125730000Y-113030000D02*
X125095000Y-113030000D01*
%TO.N,Net-(U13-Pad20)*%
X98519999Y-66299999D02*
X98519999Y-93439999D01*
X110519997Y-54300001D02*
X98519999Y-66299999D01*
X98519999Y-93439999D02*
X100330000Y-95250000D01*
X232010001Y-54300001D02*
X110519997Y-54300001D01*
X232410000Y-54700000D02*
X232010001Y-54300001D01*
%TO.N,Net-(U11-Pad17)*%
X245110000Y-90874315D02*
X243840000Y-89604315D01*
X245110000Y-91440000D02*
X245110000Y-90874315D01*
X243840000Y-89604315D02*
X243840000Y-84455000D01*
X220980000Y-84455000D02*
X217805000Y-87630000D01*
X243840000Y-84455000D02*
X220980000Y-84455000D01*
%TO.N,Net-(U17-Pad2)*%
X102870000Y-87630000D02*
X106045000Y-90805000D01*
X106045000Y-90805000D02*
X110490000Y-90805000D01*
X197485000Y-90805000D02*
X200025000Y-90805000D01*
X215265000Y-90805000D02*
X215265000Y-87630000D01*
%TO.N,Net-(U17-Pad11)*%
X236220000Y-99060000D02*
X235094999Y-97934999D01*
X210185000Y-97790000D02*
X210185000Y-95250000D01*
X210329999Y-97934999D02*
X210185000Y-97790000D01*
X160510001Y-94761409D02*
X161926410Y-93345000D01*
X106985011Y-89205011D02*
X133070011Y-89205011D01*
X105410000Y-87630000D02*
X106985011Y-89205011D01*
X133070011Y-89205011D02*
X140240001Y-96375001D01*
X161926410Y-93345000D02*
X169545000Y-93345000D01*
X140240001Y-96375001D02*
X159925001Y-96375001D01*
X159925001Y-96375001D02*
X160510001Y-95790001D01*
X160510001Y-95790001D02*
X160510001Y-94761409D01*
X212634999Y-104865001D02*
X212725000Y-104775000D01*
X201624999Y-104865001D02*
X212634999Y-104865001D01*
X192549999Y-95790001D02*
X201624999Y-104865001D01*
X189865000Y-92075000D02*
X192549999Y-94759999D01*
X192549999Y-94759999D02*
X192549999Y-95790001D01*
X235094999Y-97934999D02*
X212580001Y-97934999D01*
X212580001Y-97934999D02*
X210329999Y-97934999D01*
%TO.N,Net-(U10-Pad27)*%
X109075001Y-88755001D02*
X107950000Y-87630000D01*
X116630001Y-88755001D02*
X109075001Y-88755001D01*
X123440003Y-78884999D02*
X116695001Y-85630001D01*
X134870003Y-78884999D02*
X123440003Y-78884999D01*
X148445001Y-64281409D02*
X148445001Y-65310001D01*
X151766410Y-60960000D02*
X148445001Y-64281409D01*
X116695001Y-85630001D02*
X116695001Y-88690001D01*
X165495002Y-60960000D02*
X151766410Y-60960000D01*
X168765001Y-64229999D02*
X165495002Y-60960000D01*
X116695001Y-88690001D02*
X116630001Y-88755001D01*
X168765001Y-65258591D02*
X168765001Y-64229999D01*
X176081400Y-72574990D02*
X168765001Y-65258591D01*
X200754990Y-72574990D02*
X176081400Y-72574990D01*
X148445001Y-65310001D02*
X134870003Y-78884999D01*
X204470000Y-76290000D02*
X200754990Y-72574990D01*
%TO.N,Net-(U14-Pad1)*%
X231775000Y-87630000D02*
X233045000Y-86360000D01*
X238125000Y-86360000D02*
X239395000Y-87630000D01*
X233045000Y-86360000D02*
X238125000Y-86360000D01*
X233189999Y-94124999D02*
X234315000Y-95250000D01*
X227820001Y-94124999D02*
X233189999Y-94124999D01*
X226695000Y-95250000D02*
X227820001Y-94124999D01*
X207645000Y-87630000D02*
X207645000Y-90170000D01*
X223520000Y-92075000D02*
X226695000Y-95250000D01*
X209550000Y-92075000D02*
X223520000Y-92075000D01*
X211455000Y-104140000D02*
X211455000Y-100965000D01*
X208770001Y-98280001D02*
X208770001Y-91584999D01*
X208770001Y-91584999D02*
X208915000Y-91440000D01*
X211455000Y-100965000D02*
X208770001Y-98280001D01*
X207645000Y-90170000D02*
X208915000Y-91440000D01*
X208915000Y-91440000D02*
X209550000Y-92075000D01*
X113665000Y-98335000D02*
X113665000Y-97275021D01*
X113665000Y-97275021D02*
X155300010Y-97275021D01*
X155300010Y-97275021D02*
X155575000Y-97550011D01*
%TO.N,Net-(U3-Pad13)*%
X113030000Y-95250000D02*
X113030000Y-92075000D01*
X137160000Y-92075000D02*
X137160000Y-87630000D01*
%TO.N,Net-(U10-Pad22)*%
X196850000Y-80010000D02*
X196850000Y-81915000D01*
X196850000Y-81915000D02*
X192405000Y-86360000D01*
X137160000Y-85090000D02*
X134620000Y-87630000D01*
X139065000Y-85090000D02*
X137160000Y-85090000D01*
%TO.N,Net-(U3-Pad1)*%
X115570000Y-83424998D02*
X115570000Y-87630000D01*
X133099997Y-65895001D02*
X115570000Y-83424998D01*
X138574999Y-65895001D02*
X133099997Y-65895001D01*
X139700000Y-64770000D02*
X138574999Y-65895001D01*
%TO.N,Net-(U10-Pad23)*%
X190500000Y-78830000D02*
X194855000Y-78830000D01*
X194855000Y-78830000D02*
X194945000Y-78740000D01*
X199390000Y-80010000D02*
X203200000Y-83820000D01*
X203200000Y-83820000D02*
X238760000Y-83820000D01*
X238760000Y-83820000D02*
X238760000Y-80010000D01*
X172720000Y-81915000D02*
X178435000Y-87630000D01*
X172720000Y-80010000D02*
X172720000Y-81915000D01*
%TO.N,Net-(U10-Pad2)*%
X248920000Y-71755000D02*
X248920000Y-64770000D01*
X209550000Y-64770000D02*
X216535000Y-71755000D01*
X216535000Y-71755000D02*
X248920000Y-71755000D01*
X173355000Y-95250000D02*
X173355000Y-99060000D01*
X173355000Y-99060000D02*
X186055000Y-99060000D01*
X246273002Y-54700000D02*
X242570000Y-54700000D01*
X258363447Y-66790445D02*
X246273002Y-54700000D01*
X258363447Y-107849401D02*
X258363447Y-66790445D01*
X186690000Y-109855000D02*
X256357848Y-109855000D01*
X256357848Y-109855000D02*
X258363447Y-107849401D01*
%TO.N,Net-(U10-Pad21)*%
X198120000Y-76638002D02*
X198120000Y-75565000D01*
X194310000Y-80010000D02*
X194748002Y-80010000D01*
X194748002Y-80010000D02*
X198120000Y-76638002D01*
X223520000Y-76290000D02*
X233331999Y-76290001D01*
X233331999Y-79661999D02*
X233680000Y-80010000D01*
X233331999Y-76290001D02*
X233331999Y-79661999D01*
X183515000Y-87630000D02*
X174080000Y-78195000D01*
X174080000Y-78195000D02*
X172085000Y-78195000D01*
%TO.N,Net-(U10-Pad26)*%
X167640000Y-64770000D02*
X175895000Y-73025000D01*
X200025000Y-73025000D02*
X207010000Y-80010000D01*
X175895000Y-73025000D02*
X200025000Y-73025000D01*
X235679999Y-78884999D02*
X245254999Y-78884999D01*
X235094999Y-79469999D02*
X235679999Y-78884999D01*
X235094999Y-80260003D02*
X235094999Y-79469999D01*
X233139999Y-81135001D02*
X234220001Y-81135001D01*
X232554999Y-80550001D02*
X233139999Y-81135001D01*
X231969999Y-78884999D02*
X232554999Y-79469999D01*
X245254999Y-78884999D02*
X246380000Y-80010000D01*
X234220001Y-81135001D02*
X235094999Y-80260003D01*
X208135001Y-78884999D02*
X231969999Y-78884999D01*
X207010000Y-80010000D02*
X208135001Y-78884999D01*
X178435000Y-95250000D02*
X184150000Y-89535000D01*
X184150000Y-89535000D02*
X186055000Y-89535000D01*
X188595000Y-89535000D02*
X206375000Y-89535000D01*
X220980000Y-90170000D02*
X224790000Y-90170000D01*
X232554999Y-80154999D02*
X232554999Y-80864901D01*
X232554999Y-80864901D02*
X232690049Y-80999951D01*
X232554999Y-80154999D02*
X232554999Y-80550001D01*
X232554999Y-79469999D02*
X232554999Y-80154999D01*
%TO.N,Net-(U10-Pad24)*%
X201930000Y-80010000D02*
X205015000Y-83095000D01*
X205015000Y-83095000D02*
X237490000Y-83095000D01*
X239485000Y-83185000D02*
X241300000Y-83185000D01*
X241300000Y-83185000D02*
X241300000Y-80010000D01*
X188595000Y-87630000D02*
X194945000Y-81280000D01*
X194945000Y-81280000D02*
X195580000Y-81280000D01*
%TO.N,Net-(U10-Pad1)*%
X212090000Y-64770000D02*
X217805000Y-59055000D01*
X217805000Y-59055000D02*
X243750000Y-59055000D01*
X243750000Y-59055000D02*
X243840000Y-59145000D01*
X257913437Y-107663001D02*
X257913437Y-67413437D01*
X185420000Y-108585000D02*
X256991438Y-108585000D01*
X256991438Y-108585000D02*
X257913437Y-107663001D01*
X257913437Y-67413437D02*
X252730000Y-62230000D01*
%TO.N,Net-(U10-Pad25)*%
X204470000Y-80010000D02*
X206554997Y-82094997D01*
X206554997Y-82094997D02*
X237490000Y-82094997D01*
X243840000Y-82550000D02*
X243840000Y-80010000D01*
X200899998Y-76835000D02*
X201295000Y-76835000D01*
X198264999Y-79469999D02*
X200899998Y-76835000D01*
X198264999Y-83040001D02*
X198264999Y-79469999D01*
X193675000Y-87630000D02*
X198264999Y-83040001D01*
%TO.N,Net-(U10-Pad3)*%
X207010000Y-64770000D02*
X213360000Y-58420000D01*
X213360000Y-58420000D02*
X246380000Y-58420000D01*
X246380000Y-58420000D02*
X246380000Y-64770000D01*
X160799999Y-93835001D02*
X159385000Y-95250000D01*
X160799999Y-81770001D02*
X160799999Y-93835001D01*
X162560000Y-80010000D02*
X160799999Y-81770001D01*
%TO.N,Net-(U10-Pad4)*%
X204470000Y-64770000D02*
X212180000Y-72480000D01*
X212180000Y-72480000D02*
X243840000Y-72480000D01*
X155719999Y-93835001D02*
X154305000Y-95250000D01*
X155719999Y-84310001D02*
X155719999Y-93835001D01*
X160020000Y-80010000D02*
X155719999Y-84310001D01*
%TO.N,Net-(U10-Pad5)*%
X201930000Y-64770000D02*
X210365000Y-73205000D01*
X210365000Y-73205000D02*
X241300000Y-73205000D01*
X152890001Y-91584999D02*
X149225000Y-95250000D01*
X152890001Y-84599999D02*
X152890001Y-91584999D01*
X157480000Y-80010000D02*
X152890001Y-84599999D01*
%TO.N,Net-(U10-Pad6)*%
X199390000Y-64770000D02*
X208550000Y-73930000D01*
X208550000Y-73930000D02*
X238760000Y-73930000D01*
X150639999Y-88755001D02*
X144145000Y-95250000D01*
X150639999Y-84310001D02*
X150639999Y-88755001D01*
X154940000Y-80010000D02*
X150639999Y-84310001D01*
%TO.N,Net-(U10-Pad7)*%
X196850000Y-64770000D02*
X206735000Y-74655000D01*
X206735000Y-74655000D02*
X236220000Y-74655000D01*
X252089979Y-84020609D02*
X252089979Y-92069979D01*
X253910000Y-76835000D02*
X253910000Y-82200588D01*
X253910000Y-82200588D02*
X252089979Y-84020609D01*
X254000000Y-93980000D02*
X254000000Y-104138590D01*
X252089979Y-92069979D02*
X254000000Y-93980000D01*
X254000000Y-104138590D02*
X253998590Y-104140000D01*
X253998590Y-104140000D02*
X233680000Y-104140000D01*
X233680000Y-104140000D02*
X233680000Y-99060000D01*
%TO.N,Net-(U10-Pad8)*%
X194310000Y-64770000D02*
X205105000Y-75565000D01*
X205105000Y-75565000D02*
X233680000Y-75565000D01*
X233680000Y-75565000D02*
X254635000Y-75565000D01*
X252539989Y-84207009D02*
X252539989Y-91249989D01*
X254635000Y-75565000D02*
X254635000Y-82111998D01*
X254635000Y-82111998D02*
X252539989Y-84207009D01*
X252539989Y-91249989D02*
X254635000Y-93345000D01*
X254635000Y-93345000D02*
X254635000Y-104140000D01*
X254635000Y-104140000D02*
X254000000Y-104775000D01*
X254000000Y-104775000D02*
X231140000Y-104775000D01*
X231140000Y-104775000D02*
X231140000Y-99060000D01*
%TO.N,Net-(U10-Pad9)*%
X191770000Y-64770000D02*
X198845000Y-57695000D01*
X198845000Y-57695000D02*
X231140000Y-57695000D01*
X231140000Y-57695000D02*
X245110000Y-57695000D01*
X252989999Y-84830001D02*
X252989999Y-90429999D01*
X255270000Y-82550000D02*
X252989999Y-84830001D01*
X252989999Y-90429999D02*
X255270000Y-92710000D01*
X255270000Y-92710000D02*
X255270000Y-105410000D01*
X255270000Y-105410000D02*
X228600000Y-105410000D01*
X228600000Y-105410000D02*
X228600000Y-99060000D01*
%TO.N,Net-(U10-Pad10)*%
X189230000Y-64770000D02*
X198755000Y-55245000D01*
X198755000Y-55245000D02*
X228600000Y-55245000D01*
X256040001Y-67164999D02*
X256040001Y-106544999D01*
X244520001Y-55644999D02*
X256040001Y-67164999D01*
X228600000Y-55245000D02*
X228999999Y-55644999D01*
X228999999Y-55644999D02*
X244520001Y-55644999D01*
X256040001Y-106544999D02*
X255905000Y-106680000D01*
X255905000Y-106680000D02*
X226060000Y-106680000D01*
X226060000Y-106680000D02*
X226060000Y-99060000D01*
%TO.N,Net-(U14-Pad8)*%
X224790000Y-107315000D02*
X257188436Y-107315000D01*
X240030000Y-135435001D02*
X130175000Y-135435001D01*
%TO.N,Net-(U18-Pad2)*%
X224934999Y-115425001D02*
X224580001Y-115425001D01*
X224645001Y-115360001D02*
X224645001Y-113239999D01*
X226060000Y-114300000D02*
X224934999Y-115425001D01*
X224645001Y-113239999D02*
X223800002Y-112395000D01*
X224580001Y-115425001D02*
X224645001Y-115360001D01*
X223800002Y-112395000D02*
X154940000Y-112395000D01*
X154940000Y-112395000D02*
X154940000Y-112305000D01*
%TO.N,Net-(U14-Pad6)*%
X244475000Y-133440000D02*
X159930000Y-133440000D01*
X159930000Y-133440000D02*
X159385000Y-133985000D01*
%TO.N,Net-(U18-Pad3)*%
X228600000Y-114300000D02*
X226060000Y-111760000D01*
X226060000Y-111760000D02*
X183605000Y-111760000D01*
X183605000Y-111760000D02*
X183515000Y-111670000D01*
%TO.N,Net-(U10-Pad20)*%
X190644999Y-84554695D02*
X189817725Y-85381969D01*
X191770000Y-80010000D02*
X190644999Y-81135001D01*
X190644999Y-81135001D02*
X190644999Y-84554695D01*
X211599999Y-88755001D02*
X212725000Y-87630000D01*
X209644999Y-88755001D02*
X211599999Y-88755001D01*
X209059999Y-88170001D02*
X209644999Y-88755001D01*
X209059999Y-87379997D02*
X209059999Y-88170001D01*
X207209849Y-85529847D02*
X209059999Y-87379997D01*
X199194847Y-85529847D02*
X207209849Y-85529847D01*
%TO.N,Net-(U11-Pad19)*%
X211455000Y-99060000D02*
X217170000Y-99060000D01*
%TO.N,Net-(U12-Pad11)*%
X245110000Y-132080000D02*
X244475000Y-132715000D01*
X244475000Y-132715000D02*
X188595000Y-132715000D01*
%TO.N,Net-(U16-Pad19)*%
X192767848Y-93904846D02*
X206450154Y-93904846D01*
X190213001Y-91349999D02*
X192767848Y-93904846D01*
X188595000Y-92075000D02*
X189320001Y-91349999D01*
X189320001Y-91349999D02*
X190213001Y-91349999D01*
%TO.N,Net-(U17-Pad4)*%
X242570000Y-95250000D02*
X242570000Y-85090000D01*
X216744999Y-88755001D02*
X216390001Y-88400003D01*
X218865001Y-88755001D02*
X216744999Y-88755001D01*
X242570000Y-85090000D02*
X222530002Y-85090000D01*
X216390001Y-87089999D02*
X214390002Y-85090000D01*
X216390001Y-88400003D02*
X216390001Y-87089999D01*
X222530002Y-85090000D02*
X218865001Y-88755001D01*
X214390002Y-85090000D02*
X210185000Y-85090000D01*
X210185000Y-85090000D02*
X210185000Y-87630000D01*
%TD*%
M02*
